<?xml version="1.0" encoding="utf-8"?>
<!-- Generator: Adobe Illustrator 20.0.0, SVG Export Plug-In . SVG Version: 6.00 Build 0)  -->
<svg version="1.1"
	 id="Layer_1" xmlns:cc="http://creativecommons.org/ns#" xmlns:dc="http://purl.org/dc/elements/1.1/" xmlns:inkscape="http://www.inkscape.org/namespaces/inkscape" xmlns:rdf="http://www.w3.org/1999/02/22-rdf-syntax-ns#" xmlns:sodipodi="http://sodipodi.sourceforge.net/DTD/sodipodi-0.dtd" xmlns:svg="http://www.w3.org/2000/svg"
	 xmlns="http://www.w3.org/2000/svg" xmlns:xlink="http://www.w3.org/1999/xlink" x="0px" y="0px" viewBox="0 0 67.2 75.4"
	 style="enable-background:new 0 0 67.2 75.4;" xml:space="preserve">
<g transform="translate(0,-952.36218)">
	<path d="M18.9,952.4L0,961.6l0,0v38.5l48,27.7l19.2-10.6v-38.1l-0.1,0.1L18.9,952.4L18.9,952.4z M25.4,984.8l4,2.3v4l-4-2.3V984.8z
		 M63,987.3v4l-4,2.3v-4L63,987.3L63,987.3z M32,988.5l4,2.3v4l-4-2.3V988.5z M56.5,991v4l-4,2.3v-4L56.5,991z M25.4,991.4l4,2.3v4
		l-4-2.3V991.4z M38.8,992.3l4,2.3v4l-4-2.3V992.3z M63,993.9v4l-4,2.3v-4L63,993.9z M32,995.1l4,2.3v4l-4-2.3V995.1z M56.5,997.6v4
		l-4,2.3v-4L56.5,997.6z M25.4,997.8l4,2.3v4l-4-2.3V997.8L25.4,997.8z M38.8,998.9l4,2.3v4l-4-2.3V998.9z M63,1000.3v4l-4,2.3v-4
		L63,1000.3z M32,1001.5l4,2.3v4l-4-2.3V1001.5L32,1001.5z M56.5,1004.1v4l-4,2.3v-4L56.5,1004.1L56.5,1004.1z M25.4,1004.4l4,2.3v4
		l-4-2.3V1004.4L25.4,1004.4z M38.8,1005.4l4,2.3v4l-4-2.3V1005.4L38.8,1005.4z M63,1006.9v4l-4,2.3v-4L63,1006.9L63,1006.9z
		 M32,1008.1l4,2.3v4l-4-2.3V1008.1L32,1008.1z M56.5,1010.7v4l-4,2.3v-4L56.5,1010.7z M38.8,1012l4,2.3v4l-4-2.3V1012z"/>
</g>
</svg>
