<?xml version="1.0" encoding="utf-8"?>
<!-- Generator: Adobe Illustrator 20.0.0, SVG Export Plug-In . SVG Version: 6.00 Build 0)  -->
<svg version="1.1" id="Layer_1" xmlns:inkscape="http://www.inkscape.org/namespaces/inkscape"
	 xmlns="http://www.w3.org/2000/svg" xmlns:xlink="http://www.w3.org/1999/xlink" x="0px" y="0px" viewBox="0 0 598 430.5"
	 style="enable-background:new 0 0 598 430.5;" xml:space="preserve">
<g transform="matrix(1,0,0,1,0,0)">
</g>
<g transform="matrix(11.8081,0,0,11.8081,0,0)">
</g>
<g transform="matrix(11.8081,0,0,11.8081,0,0)">
</g>
<g transform="matrix(11.8081,0,0,11.8081,0,0)">
</g>
<g transform="matrix(11.8081,0,0,11.8081,0,0)">
</g>
<g transform="matrix(11.8081,0,0,11.8081,0,0)">
</g>
<g transform="matrix(1,0,0,1,0,0)">
</g>
<g transform="matrix(1,0,0,1,0,0)">
</g>
<g transform="matrix(11.8081,0,0,11.8081,0,-11.8081)">
</g>
<g transform="matrix(11.8081,0,0,11.8081,0,-11.8081)">
</g>
<g transform="matrix(11.8081,0,0,11.8081,0,-11.8081)">
</g>
<g transform="matrix(11.8081,0,0,11.8081,0,-11.8081)">
</g>
<g transform="matrix(11.8081,0,0,11.8081,0,-11.8081)">
</g>
<g transform="matrix(11.8081,0,0,11.8081,0,-11.8081)">
</g>
<g transform="matrix(1,0,0,1,0,0)">
</g>
<g transform="matrix(11.8081,0,0,11.8081,0,-11.8081)">
</g>
<g transform="matrix(11.8081,0,0,11.8081,0,-11.8081)">
</g>
<g transform="matrix(11.8081,0,0,11.8081,0,0)">
</g>
<g transform="matrix(11.8081,0,0,11.8081,0,0)">
</g>
<g transform="matrix(1,0,0,1,0,0)">
</g>
<g transform="matrix(1,0,0,1,0,0)">
</g>
<g transform="matrix(11.8081,0,0,11.8081,0,-11.8081)">
</g>
<g transform="matrix(11.8081,0,0,11.8081,0,-11.8081)">
</g>
<g transform="matrix(11.8081,0,0,11.8081,0,-11.8081)">
</g>
<g transform="matrix(11.8081,0,0,11.8081,0,-11.8081)">
</g>
<g transform="matrix(11.8081,0,0,11.8081,0,-11.8081)">
</g>
<g transform="matrix(1,0,0,1,0,0)">
</g>
<g transform="matrix(11.8081,0,0,11.8081,0,-11.8081)">
</g>
<g transform="matrix(11.8081,0,0,11.8081,0,-11.8081)">
</g>
<g transform="matrix(11.8081,0,0,11.8081,0,0)">
</g>
<g transform="matrix(11.8081,0,0,11.8081,0,0)">
</g>
<g transform="matrix(1,0,0,1,0,0)">
</g>
<g transform="matrix(1,0,0,1,0,0)">
</g>
<g transform="matrix(11.8081,0,0,11.8081,0,-11.8081)">
</g>
<g transform="matrix(11.8081,0,0,11.8081,0,-11.8081)">
</g>
<g transform="matrix(0.999751,0,0,0.999751,0,-11.8081)">
	<path vector-effect="none" d="M204.4,66.7l0.3,0.5l0.5,0.8l0.1,0.2l0.7,1.1l0.3,0.5l0.5,0.8l0.5,0.8l0.5,0.8l0.5,0.8l0.5,0.8
		l0.5,0.8l0.5,0.8l1.5,2.4l0.2,0.4l0,0l0.2,0.4l1.4,2.1l1.4,2.2l0.5,0.8l0.2,0.3l0.5,0.8l0.4,0.7l0.3,0.4l1.5,2.4l0.3,0.5l0.2,0.3
		l1.5,2.3l0.2,0.3l1.4,2.2l1.7,2.7l0.5,0.8l3.4,4.3l0.2,0.2l0.3,0.4l1.1,1.3l0.1,0.2l1.2,1.4l1.7,2.1l0.3,0.4l0.3,0.4l0.6,0.8
		l0.1-0.1l0.7-0.8l0.6-0.7l0.6-0.7l0.8-0.8l1.1-1.2l0.2-0.2l0.2-0.2l0.3-0.3l1.3-1.3l0.7-0.8l0.7-0.7l1.3-1.3l1-1l0.7-0.7l0.6-0.6
		l1-1l0,0.1l0.8,1.7l0.4,0.9l0.4,0.8l0.3,0.7l1.3,2.7l6.4,9.8l0.4,0.6l0.4,0.5l0.6,0.7l2.6,2.9l0.3,0.4l0.1,0.2l0.5,0.6l0.1,0.1
		l0.1,0.1l0.1,0.2l0.1,0.2l0.1,0.2l0.1,0.2l0.3,0.3l0.4,0.4l0.5,0.7l0.2,0.3l0.5,0.7l0.4,0.5l0.1,0.2l0.6,0.7l0.7,1l1.7,2.2l0.1,0.2
		l0.5,0.6l1.6,2.1l0.4,0.5l0.8,1.2l-1.3,1l-0.8,0.6l-1.1,0.7l-1.1,0.8l-1.2,0.8l-0.3,0.2l1,1.7l0.5,0.8l0.5,0.9l0.5,0.9l0.2,0.3
		l0.7,1.2l-1.2,0.8l-0.8,0.5l-0.4,0.2l-1.4,0.9l-0.9,0.6l0.9,1.2l0.3,0.4l2.8,3.8l0.1,0.2l1.2,1.7l1.7,2.3l0.7,0.9l0,0l0,0l0.3,0.5
		l0.3,0.5l0,0l0.3,0.5l0.7,1.1l0.1,0.1l1.1,1.8l1.2,2l0.6,1l0.5,0.8l0.5,0.9l0.8,1.4l1.5,2.5l0,0l0.6,0.9l0.3,0.4l1.4,1.6l0.8,1
		l1.4,1.7l0.8,0.9l0.5,0.6l0.8,0.9l0.4,0.5l0.6,0.7l0.7,0.8l0.9,1.1l0.3,0.4l0.4,0.5l0.7,0.8l1.3,1.5l0.4,0.5l0.2,0.2l0.2,0.2
		l0.3,0.3l1.5,1.7l1.9,2.2l0.2,0.2l0.4,0.5l1.4,1.6l0.5,0.6l0.5,0.6l0.6,0.7l0.6,0.7l0.6,0.6l0.6,0.6l0.5,0.6l0.7,0.8l1.3,1.5
		l0.2,0.2l0.1,0.1l0.2,0l0.9,0.1l1.6,0.2l1.8,0.2l0.2,0l1.3,0.2l1,1.1l1.2,1.3l0.1,0.1l5.2,5.7l0.2,0.2l3.6,3.9l0.2,0.3l0.1,0.1
		l0.2,0.2l0.4,0.4l2.7,3l2.8,3.1l-0.2,0.1l-2.7,1.5l-0.9,0.5l0.9,1.2l1.3,1.6l0.8,0.9l2.1,2.5l0.7,0.8l0.9,1.1l0.5,0.6l0,0
		l19.3,24.3l5.7,7.1l0.6,0l2.5,0l0.7,0l1.1,0l0.3,0l1.5,0l0.6,0l0.7,0l0.7,0l0.3,0l0.8,0l0.2,0l1.6,0l1.7,0l1.3,0l2.7-0.1l1,0
		l2.6-0.1l2.1-0.1l0.7,0l1.5,0l1,0l0.7,0l1.5,0l1.3,0l0.8,0l0.6,0l0.6,0l0.6,0l0.6,0l0.7,0l1.9,0l0,0l0.2,0l0.5,0l0.8,0l0.3,0
		l1.9,0.2l0.7,0.1l2.4,0.2l1,0.1l0.1,0l1.9,0.1l0.5,0l1.6,0.1l0.5,0l0.5,0l1.9,0.1l0.9,0.1l1.2,0.1l0.1,0l0.2,0l0.5,0l2.4,0.1
		l2.7,0.2l0.5,0l0.3,0l2.8,0.3l1.9,0.2l0.5,0l0.5,0.1l7.8,0.8l0.7,0.1l1.9,0.2l1.2,0.1l0.8,0.1l1.3,0.1l1.2,0.1l0.9,0.1l1.1,0.1
		l0.7,0.1l0.8,0.1l0.3,0.1l0.2,0.1l1.5,0.5l1.8,0.6l0.5,0.2l0.7,0.2l0.7,0.2l0.8,0.3l0.5,0.2l0.7,0.2l0.6,0.2l0.7,0.2l0.7,0.2
		l1.5,0.5l0.9,0.3l1.4,0.5l0.7,0.2l0.5,0.2l0.5,0.2l1.1,0.4l3.3,1.1l3.3,1.1l0.4,0.1l0,0l4-8.4l0.7,0.8l0.9,1.9l0.2,0.4l0.1,0.2
		l0.1,0.2l0.1,0.2l0.1,0.2l0.1,0.2l0.1,0.2l0.1,0.2l0.1,0.2l0.1,0.2l0.2,0.2l0.2,0.2l0.2,0.1l0.2,0.1l0.2,0.1l0.2,0.1l0.2,0.1
		l0.2,0.1l0.2,0.1l0.2,0.1l0.2,0.1l0.2,0.1l0.2,0.1l0.2,0l0.2,0l0.2,0l0.2,0l0.2,0l0.2,0l0.2,0l0.2,0l1.2-0.2l0.2,0l1.4-0.3l0.7,0
		l0.9-0.1l3.7,0.2l1.4-0.1l0.5,0l0.6-0.1l1.1-0.2l1-0.4l0.4-0.2l1.1-0.7l1-2.3l0.1-0.2l0.1-0.2l0.1-0.2l0.2-0.2l0.2-0.2l0.2-0.1
		l0.2-0.1l0.2-0.1l0.2-0.1l0.2-0.1l0.2-0.1l0.2-0.1l0.1,0l0.1,0l0.2,0l0.2,0l0.2,0l0.2,0l0.2-0.1l0.2-0.1l0.2-0.1l0.1,0l2.7,0.2h0.2
		l0.2,0l0.2,0l0.4-0.1l0.4-0.1l0.2-0.1l0.1,0l0.2-0.1l0.1-0.1l0.1-0.1l0.1,0l0.1,0l0.1,0l0.1,0l0.1,0l0.1,0l0.1,0l0.1,0l0.1,0
		l0.2,0.2l0.2,0.2l0.1,0.1l0.1,0.1l0.1,0.1l0.1,0.1l0,0.1l0,0.1l0.1,0.2l0.1,0.2l0.1,0.2l0.2,0.3l0.1,0.1l0.5,0.4l0.3,0.2l0,0l0.2,0
		l0.4-0.1l0.2-0.1l0.2-0.1l0.1,0l0.1,0l0.1-0.1l0.1,0l0.1-0.1l0.1,0l0.2-0.1l0.2-0.2l0.3-0.3l0.2-0.2l0.3-0.3l0.3-0.3l0.4-0.4
		l0.2-0.3l0.1-0.1l0.1-0.1l0.1-0.1l0.1-0.1l0.1,0l0.2-0.1l0.1,0l0.2,0l0.2,0l0.2,0l0.3,0l0.2,0l0.2,0l0.2,0l0.2,0.1l0.2,0l0.2,0.1
		l0.3,0.1l0.2,0.1l0.2,0.1l0.2,0.1l0.1,0.1l0.1,0.1l0.1,0.1l0.1,0.1l0.3,0.3l0.3,0.3l0.3,0.3l0.2,0.2l0.2,0.2l0.2,0.2l0.4,0.4
		l0.3,0.3l0.2,0.2l0.2,0.2l0.2,0.2l0.2,0.2l0.2,0.2l0.2,0.1l0.3,0.2l0.2,0.1l0.1,0.1l0.1,0l0.3,0.1l0.2,0.1l0.2,0.1l0.2,0.1l0.2,0
		l0.1,0l0.1,0l0.3,0l0.2,0l0.3,0l0.3,0l0.3,0l0.3,0h0.3l0.3,0l0.3,0l0.3,0l0.1,0l0.3,0l0.2,0l0.4,0l0.3,0l0.4,0l0.3-0.1l0.3-0.1
		l0.4-0.1l0.2-0.1l0.2-0.1l0.1-0.1l0.4-0.2l0.3-0.2l0.4-0.2l0,0l0.2-0.2l0.2-0.2l0.3-0.2l0.3-0.3l0.3-0.3l0.1-0.1l0.2-0.2l0.3-0.2
		l0.3-0.2l0.3-0.1l0.2-0.1l0.2-0.1l0.2-0.1l0.2-0.1l0.2-0.1l0.2,0l0.1,0l0.1,0l0.1,0l0.1,0l0.1,0l0.1,0l0.1,0.1l0.1,0.1l0.1,0.2
		l0.2,0.3l0.1,0.1l0.2,0.2l0.2,0.2l0.3,0.3l0.2,0.3l0.3,0.3l0.2,0.3l0.2,0.3l0.2,0.2l0.1,0.2l0.1,0.1l0.1,0.2l0.2,0.2l0.2,0.2
		l0.2,0.3l0.2,0.3l0.1,0.1l0.1,0.1l0.2,0.3l0.2,0.2l0.1,0.2l0.2,0.4l0.3,0.5l0.1,0.2l0.1,0.3l0.1,0.2l0.1,0.2l0.1,0.3l0.1,0.3
		l0.1,0.4l0.1,0.3l0.1,0.2l0.1,0.2l0.1,0.2l0.1,0.1l0.1,0.2l0.1,0.2l0.1,0.2l0.1,0.1l0.1,0.1l0.1,0.1l0.2,0.1l0.2,0.2l0.1,0.1
		l0.1,0.1l0.2,0.2l0.2,0.2l0.2,0.2l0.3,0.2l0.2,0.1l0.2,0.2l0.1,0.1l0.2,0.2l0.2,0.1l0.3,0.2l0.3,0.2l0.2,0.1l0.1,0l0.3,0.1l0.2,0
		l0.2,0l0.1,0l0.1,0l0.3,0l0.3,0l0.1,0l0.2,0l0.2-0.1l0.2-0.1l0.2-0.1l0.1-0.1l0.2-0.1l0.2-0.1l0.2-0.1l0.2-0.2l0.5-0.4l0.2-0.1
		l0.3-0.2l0.4-0.3l0.1-0.1l0.3-0.3l0.1-0.1l0.1-0.1l0.1-0.1l0.3-0.2l0.5-0.4l0.6-0.4l0.5-0.4l0.5-0.4l0.2-0.2l0.3-0.2l0.6-0.4
		l0.3-0.2l0.3-0.2l0.3-0.1l0.1-0.1l0.5-0.1l1.1,3.4l0.5,1.6l6.8,1.3l1.2,0.3l3,0.6l0.4,0.1l1.2,0.2l0.2,0l6.6,1.4l12.2,2.1l3.3,0.6
		l14.3,19.1l2.7,4.1l-23.5,1l-1.1,0l-0.9,0l-7.3,0l-0.6,0l-1,0l-2,2.9l-3.6,5.2l-1,1.5l-3.7,5.4l-9.7,14.3l-7.7,11.4l-2.1,3.1
		l-3,15.5l-1.6,2l-9.8,18.5l-6.9,6.9l-1.8,5.5l-9.3,3.6l-5.4,1.9l-4.7,1.7l-9.9,3.8l-21.4,8.2l-21.8,8.3l-47.2,11.2l-7.7,1.3
		l-3.8,0.7l-8.7,1.2l-29.1,2.4l-9.5,0.6l-4.6,0.6l-5.5,0.2l-7.9,0.2l-4.8-0.7l-1.4-0.2l-6.5-1l-8.4-1.9l-4.3-2.5l-2.6-1.9l-4.8-3.7
		l-5-3.9l-2.7-3.5l-3.4-6.6l-1-2.4l-0.3-0.7l-0.3-2.9l0.4-2.9l0.3-4.2l0.1-1.9l1.5-6.4l0.6-5.3l0.2-1.9l0.1-3.4l-0.7-9.5l-0.7-5.2
		l-0.1-0.4l0-0.5l-0.1-1l-0.9-14l0.1-10.2l-0.7-19.6l-0.8-4.2l-1.2-3.5l-1.8-3.3l-0.7-0.8l-1.2-2.1l-0.6-0.8l-3.4-2.3l-1.6-0.4
		l-3.6-1l-1.6-0.2l-2.7,0.1l-2.1,0.4l-3.7,0.3l-2,0.4l-5.2-0.2l-3.1-0.7l-5.5-2.5l-2-1.2l-3.4-3.8l-0.6-0.9l-4.6-8.6l-7.9-13.9
		l-2.3-2.4l-8.9-7.9l-5.4-2.2l-4.5-0.1l-3.2,0.1l-2.5,0.1l-4.3,1l-4.9,3.1l-4,5.6l-0.8,2.3l0,1.3l0,1.2l0.4,2l1.7,2.6l0.7,1.2l1,1.4
		l2.8,3.5l1,2.2l0.6,2.9l0.5,4.1l0,1.1l-0.3,1.9l-2.7,3.5l-2.9,2.7l-2.6,2.5l-4.4,3.7l-4,2.6l-3.4,2l-2.5,1.6l-1.8,1.2l-2.4,2.2
		l-1.5,1.8l-1.9,2.2l-1.7,1.9l-2.3,3.2l-1.5,1.9l-3.5,4l-1.1,1.3l-2.4,2.2l-1.6,1.2l-2.9,1.2l-0.3,0.2l-1.1,0.3l-0.7,0.2l-1.1,0.3
		l-0.3,0.1l-3.3,0.5l-2.9-0.5l-2-1l-2.4-1.1l-5.5-2.4l-2.5-0.6l-1.5,0l-2.4,0.4l-2-6.6l-0.4-1l0,0l-0.6-1.5l-1.2-2.7l-0.5-1.6
		l0.5-0.2l0.1,0l0.5-0.1l2-0.4l0.2,0l1.4-0.3l0.6-0.1l0,0l0.8-0.2l0.1,0l0.4-0.1l0.4-0.1l0.1,0l0.2,0l0.4-0.1l0,0l0.1-0.1l0.3-0.1
		l0.2-0.1l0.3-0.2l0.1,0l0.6-0.3l0.1,0l0.1,0l0.2-0.2l0.1-0.1l0.3-0.2l0.1-0.1l0.1-0.1l0.2-0.1l0.1-0.1l0.2-0.1l0.1-0.1l0.2-0.2
		l0.2-0.2l0.2-0.2l0.1-0.1l0.2-0.2l0.1-0.1l0.2-0.3l0-0.1l0.1-0.1l0.1-0.1l0.2-0.4l0.2-0.4l0.1-0.3l0.1-0.1l0-0.1l0.2-0.5l0.2-0.4
		l0.2-0.5l0.1-0.3l0.1-0.3l0.2-0.4l0.1-0.3l0.1-0.2l0.3-0.6l0.2-0.4l0.2-0.4l0.2-0.3l0-0.1l0.2-0.5l0.3-0.6l0.1-0.1l0.2-0.4l0.3-0.6
		l0.2-0.4l0.2-0.4l0.2-0.4l0.1-0.3l0.1-0.3l0.8-1.7l0.7-1.5l1-2.2l0.3-0.7l0.6-1l0,0l0.4-0.7l0.1-0.1l0.3-0.7l0.4-2.2l1.3-2.8l1-2.3
		l0.6-2.8l0.4-2.4l0.4-2.6l0.5-2.8l0.2-2.2l0.4-6.9l0.6-9.1l0-0.4l-9.9-1.6l-14.4-2.4l1.7-9.8l0.1-0.4l-12.8,1.3l-8,0.8l-16.7,3.7
		l0,0l-2.1-0.3l-0.2,0l-1.4-0.2l-0.2-0.1l-0.2-0.1l-0.2-0.1l-0.2-0.1l-2.8-0.6l-1.2-0.2l-0.2,0l-0.2,0l-0.2,0l-0.2,0l-0.2,0l-0.2,0
		l-0.2,0l-0.2,0l-0.2,0l-0.2,0l-0.2,0l-0.2,0l-0.2,0l-0.2,0l-0.2,0l-0.2,0l-0.2,0l-0.2,0l-0.2,0l-0.2,0l-0.2,0l-0.2,0l-0.2,0l-0.2,0
		l-0.2,0l-0.2,0l-0.2,0l-0.2,0l-2-0.3l-1.5-0.2l-0.2,0l-0.2,0l0,0l0,0l0,0l0,0l0,0l0,0l0,0l0,0l-0.1,0l-10.2-1.3l-0.3-1.7l-0.2-0.8
		l-0.2-0.8l-0.1-0.5l-0.3-1.2l-0.3-1.2l-0.1-0.4l-0.4-1.6l-0.4-1.7l-2.2-8.8l-0.2-0.9l-0.1-0.2l-0.1-0.6l-0.3-1.4l-0.3-1.4l-0.3-1.4
		l0,0l-0.2-0.7l-0.4-1.6l-0.1-0.3l-0.3-1.1l-0.3-1.1l-0.2-0.9l-0.6-2.3l0-0.1l-0.1-0.5l-0.1-0.5l-0.2-0.6l-0.5-1.9l-2.8-10.8l6.2,3
		l1.3,0.6l0.3-1.1l-1.6-4.3l-0.2-0.5l0.7-2.3l-2.4-2.4l-3.8-1.1l-1.9-0.6l-0.4-0.2l-0.4-0.2l-5.9-2.9l0-0.1l0.1-1l-1-0.6l-0.1-0.1
		l-0.1-0.1l-0.1-0.1l-0.1-0.1l-0.1-0.1l-0.1-0.1l0-0.1l0-0.1l0-0.1l0-0.1l0-0.2l0-0.2l0-0.2l0-0.2l0-0.2l-0.1-0.2l-0.1-0.2l-0.1-0.2
		l-0.1-0.2l-0.1-0.2l-0.1-0.2l-0.1-0.2l-0.1-0.2l-0.1-0.2l-0.1-0.2L15,188l-0.1-0.2l-0.1-0.2l-0.1-0.2l-2.3-4.4l-2.5-5.1l-9.5-19.7
		L0,157.2l11.8-2.3l1-0.4l1-0.8l0.8-0.8l1.2-2l1-2.4l4.1-22.2l-0.1-0.5L18,113.9l-0.1-0.3l-0.4-1.5l-5.3-23.1l0.4-0.3l0.1-0.1
		l0.2-0.2l0.8-0.6l0.5-0.4l1.1-0.9l2-1.6l0.5-0.4l0.4-0.3l1.4-1.1l0.9-0.7l1.7-1.4l1.5-1.3l0.4-0.3l0.1-0.1l0.7-1.1l0.3-0.5l0.4-0.7
		l0.3-0.5l1.1-1.9l4.2-6.9l1-1.6l14.5-24.2l1.7-2.3l1.3-2l1.1-1.8l0.7-1.1l8.3,4.8l2.5,1.4l1.7,1l8,4.9l0.5,0.3l0.5,0.3l4.2,2.5
		l6.3,3.8l0.5,0.3l2.1,1.2l0.9,0.5l0.3,0.1l16.8,9.6l0.5,0.3l1.3,0.7l0.2,0.1l0-0.1l0.2-0.8l0.1-0.5l0.4-1.3l0.4-1.2l1.1-1.1
		l1.8-1.8l3.6-3.4l2.5-2.7l1.3-1.3l5.3-5.7l7.3-4l3.2-0.2l7-0.4l6.6-4.9l6.8-6.5l6.8-10l2.5-6.7l0.3-1.1l0.5-0.5l0.3-0.3l0.1-0.1
		l2.5,2.6l4.5,4.9l1,1.1l8.6,9.7l2.2,3.4l0.1,0.1l1.1,1.7l0.5,0.8l0.8,1.3l0.2,0.3l0.8,1.3l0.3,0.5l0.3,0.4l0.5,0.8l1.2,1.9l0.5,0.8
		l0.8,1.3l0.5,0.8l0.1,0.2l0.5,0.7l0.6,0.9l0.6,0.9l0.6,0.9l0.6,0.9l0.4,0.6l1.7,2.6l0.3,0.5l0.3,0.5l0.1,0.1l0.4,0.6l0.9,1.4
		l0.4,0.6l1.3,2l0.5,0.8l0.3,0.5l0.9,1.4l0.9,1.4l1.3,1.9l0.7,1L204.4,66.7"/>
</g>
<g transform="matrix(11.8081,0,0,11.8081,0,-11.8081)">
</g>
<g transform="matrix(11.8081,0,0,11.8081,0,-11.8081)">
</g>
<g transform="matrix(11.8081,0,0,11.8081,0,-11.8081)">
</g>
<g transform="matrix(1,0,0,1,0,0)">
</g>
<g transform="matrix(11.8081,0,0,11.8081,0,-11.8081)">
</g>
<g transform="matrix(11.8081,0,0,11.8081,0,-11.8081)">
</g>
<g transform="matrix(11.8081,0,0,11.8081,0,0)">
</g>
<g transform="matrix(11.8081,0,0,11.8081,0,0)">
</g>
<g transform="matrix(1,0,0,1,0,0)">
</g>
<g transform="matrix(1,0,0,1,0,0)">
</g>
<g transform="matrix(11.8081,0,0,11.8081,0,-11.8081)">
</g>
<g transform="matrix(11.8081,0,0,11.8081,0,-11.8081)">
</g>
<g transform="matrix(11.8081,0,0,11.8081,0,-11.8081)">
</g>
<g transform="matrix(11.8081,0,0,11.8081,0,-11.8081)">
</g>
<g transform="matrix(11.8081,0,0,11.8081,0,-11.8081)">
</g>
<g transform="matrix(1,0,0,1,0,0)">
</g>
<g transform="matrix(11.8081,0,0,11.8081,0,-11.8081)">
</g>
<g transform="matrix(11.8081,0,0,11.8081,0,-11.8081)">
</g>
<g transform="matrix(11.8081,0,0,11.8081,0,0)">
</g>
<g transform="matrix(11.8081,0,0,11.8081,0,0)">
</g>
<g transform="matrix(1,0,0,1,0,0)">
</g>
<g transform="matrix(1,0,0,1,0,0)">
</g>
<g transform="matrix(11.8081,0,0,11.8081,0,-11.8081)">
</g>
<g transform="matrix(11.8081,0,0,11.8081,0,-11.8081)">
</g>
<g transform="matrix(11.8081,0,0,11.8081,0,-11.8081)">
</g>
<g transform="matrix(11.8081,0,0,11.8081,0,-11.8081)">
</g>
<g transform="matrix(11.8081,0,0,11.8081,0,-11.8081)">
</g>
<g transform="matrix(1,0,0,1,0,0)">
</g>
<g transform="matrix(11.8081,0,0,11.8081,0,-11.8081)">
</g>
<g transform="matrix(11.8081,0,0,11.8081,0,-11.8081)">
</g>
<g transform="matrix(11.8081,0,0,11.8081,0,0)">
</g>
<g transform="matrix(11.8081,0,0,11.8081,0,0)">
</g>
<g transform="matrix(1,0,0,1,0,0)">
</g>
</svg>
