<?xml version="1.0" encoding="utf-8"?>
<!-- Generator: Adobe Illustrator 20.0.0, SVG Export Plug-In . SVG Version: 6.00 Build 0)  -->
<svg version="1.1" id="Layer_1" xmlns="http://www.w3.org/2000/svg" xmlns:xlink="http://www.w3.org/1999/xlink" x="0px" y="0px"
	 viewBox="0 0 90 74.6" style="enable-background:new 0 0 90 74.6;" xml:space="preserve">
<style type="text/css">
	.st0{display:none;}
	.st1{display:inline;}
	.st2{fill:#3FE6AC;}
</style>
<g class="st0">
	<rect x="-491" y="-747.7" class="st1" width="1156" height="905"/>
</g>
<g>
	<g>
		<rect x="64.3" y="6.4" class="st2" width="2.6" height="2.6"/>
		<rect x="64.3" y="11.6" class="st2" width="2.6" height="2.6"/>
		<rect x="64.3" y="16.7" class="st2" width="2.6" height="2.6"/>
		<rect x="64.3" y="21.9" class="st2" width="2.6" height="2.6"/>
		<rect x="69.4" y="6.4" class="st2" width="2.6" height="2.6"/>
		<rect x="69.4" y="11.6" class="st2" width="2.6" height="2.6"/>
		<rect x="69.4" y="16.7" class="st2" width="2.6" height="2.6"/>
		<rect x="69.4" y="21.9" class="st2" width="2.6" height="2.6"/>
		<rect x="74.6" y="6.4" class="st2" width="2.6" height="2.6"/>
		<rect x="74.6" y="11.6" class="st2" width="2.6" height="2.6"/>
		<rect x="74.6" y="16.7" class="st2" width="2.6" height="2.6"/>
		<rect x="74.6" y="21.9" class="st2" width="2.6" height="2.6"/>
		<rect x="20.6" y="50.1" class="st2" width="2.6" height="2.6"/>
		<rect x="20.6" y="55.3" class="st2" width="2.6" height="2.6"/>
		<rect x="20.6" y="60.4" class="st2" width="2.6" height="2.6"/>
		<rect x="20.6" y="65.6" class="st2" width="2.6" height="2.6"/>
		<rect x="25.7" y="50.1" class="st2" width="2.6" height="2.6"/>
		<rect x="25.7" y="55.3" class="st2" width="2.6" height="2.6"/>
		<rect x="25.7" y="60.4" class="st2" width="2.6" height="2.6"/>
		<rect x="25.7" y="65.6" class="st2" width="2.6" height="2.6"/>
		<rect x="30.9" y="50.1" class="st2" width="2.6" height="2.6"/>
		<rect x="30.9" y="55.3" class="st2" width="2.6" height="2.6"/>
		<rect x="30.9" y="60.4" class="st2" width="2.6" height="2.6"/>
		<rect x="30.9" y="65.6" class="st2" width="2.6" height="2.6"/>
		<rect x="41.1" y="55.3" class="st2" width="2.6" height="2.6"/>
		<rect x="41.1" y="60.4" class="st2" width="2.6" height="2.6"/>
		<rect x="41.1" y="65.6" class="st2" width="2.6" height="2.6"/>
		<rect x="46.3" y="55.3" class="st2" width="2.6" height="2.6"/>
		<rect x="46.3" y="60.4" class="st2" width="2.6" height="2.6"/>
		<rect x="46.3" y="65.6" class="st2" width="2.6" height="2.6"/>
		<rect x="41.1" y="34.7" class="st2" width="2.6" height="2.6"/>
		<rect x="41.1" y="39.9" class="st2" width="2.6" height="2.6"/>
		<rect x="41.1" y="45" class="st2" width="2.6" height="2.6"/>
		<rect x="41.1" y="50.1" class="st2" width="2.6" height="2.6"/>
		<rect x="46.3" y="34.7" class="st2" width="2.6" height="2.6"/>
		<rect x="46.3" y="39.9" class="st2" width="2.6" height="2.6"/>
		<rect x="46.3" y="45" class="st2" width="2.6" height="2.6"/>
		<rect x="46.3" y="50.1" class="st2" width="2.6" height="2.6"/>
		<rect x="5.1" y="57.9" class="st2" width="2.6" height="2.6"/>
		<rect x="5.1" y="63" class="st2" width="2.6" height="2.6"/>
		<rect x="5.1" y="68.1" class="st2" width="2.6" height="2.6"/>
		<rect x="10.3" y="57.9" class="st2" width="2.6" height="2.6"/>
		<rect x="10.3" y="63" class="st2" width="2.6" height="2.6"/>
		<rect x="10.3" y="68.1" class="st2" width="2.6" height="2.6"/>
		<rect x="5.1" y="37.3" class="st2" width="2.6" height="2.6"/>
		<rect x="5.1" y="42.4" class="st2" width="2.6" height="2.6"/>
		<rect x="5.1" y="47.6" class="st2" width="2.6" height="2.6"/>
		<rect x="5.1" y="52.7" class="st2" width="2.6" height="2.6"/>
		<rect x="10.3" y="37.3" class="st2" width="2.6" height="2.6"/>
		<rect x="10.3" y="42.4" class="st2" width="2.6" height="2.6"/>
		<rect x="10.3" y="47.6" class="st2" width="2.6" height="2.6"/>
		<rect x="10.3" y="52.7" class="st2" width="2.6" height="2.6"/>
		<rect x="23.1" y="37.3" class="st2" width="2.6" height="2.6"/>
		<rect x="23.1" y="42.4" class="st2" width="2.6" height="2.6"/>
		<rect x="23.1" y="16.7" class="st2" width="2.6" height="2.6"/>
		<rect x="23.1" y="21.9" class="st2" width="2.6" height="2.6"/>
		<rect x="23.1" y="27" class="st2" width="2.6" height="2.6"/>
		<rect x="23.1" y="32.1" class="st2" width="2.6" height="2.6"/>
		<path class="st2" d="M82.3,28.3V0H59.1v54H54V28.3H36v15.4h-5.1V10.3H15.4v20.6H0v43.7h90V28.3H82.3z M87.4,72H2.6V33.4H18V12.9
			h10.3v33.4h10.3V30.9h12.9v25.7h10.3v-54h18v28.3h7.7V72z"/>
		<polygon class="st2" points="64.3,57.9 65.6,57.9 66.9,57.9 66.9,55.3 64.3,55.3 		"/>
		<polygon class="st2" points="64.3,60.4 64.3,63 66.9,63 66.9,60.4 65.6,60.4 		"/>
		<polygon class="st2" points="64.3,65.6 64.3,68.1 65.6,68.1 66.9,68.1 66.9,65.6 65.6,65.6 		"/>
		<polygon class="st2" points="69.4,57.9 70.7,57.9 72,57.9 72,55.3 69.4,55.3 		"/>
		<polygon class="st2" points="69.4,60.4 69.4,63 72,63 72,60.4 70.7,60.4 		"/>
		<polygon class="st2" points="69.4,65.6 69.4,68.1 70.7,68.1 72,68.1 72,65.6 70.7,65.6 		"/>
		<polygon class="st2" points="64.3,34.7 64.3,37.3 66.9,37.3 66.9,34.7 65.6,34.7 		"/>
		<polygon class="st2" points="64.3,42.4 65.6,42.4 66.9,42.4 66.9,39.9 64.3,39.9 		"/>
		<polygon class="st2" points="64.3,45 64.3,47.6 66.9,47.6 66.9,45 65.6,45 		"/>
		<polygon class="st2" points="64.3,50.1 64.3,52.7 66.9,52.7 66.9,50.1 65.6,50.1 		"/>
		<polygon class="st2" points="69.4,34.7 69.4,37.3 72,37.3 72,34.7 70.7,34.7 		"/>
		<polygon class="st2" points="69.4,42.4 70.7,42.4 72,42.4 72,39.9 69.4,39.9 		"/>
		<polygon class="st2" points="69.4,45 69.4,47.6 72,47.6 72,45 70.7,45 		"/>
		<polygon class="st2" points="69.4,50.1 69.4,52.7 72,52.7 72,50.1 70.7,50.1 		"/>
		<polygon class="st2" points="74.6,57.9 75.9,57.9 77.1,57.9 77.1,55.3 74.6,55.3 		"/>
		<polygon class="st2" points="74.6,60.4 74.6,63 77.1,63 77.1,60.4 75.9,60.4 		"/>
		<polygon class="st2" points="74.6,65.6 74.6,68.1 75.9,68.1 77.1,68.1 77.1,65.6 75.9,65.6 		"/>
		<polygon class="st2" points="79.7,57.9 81,57.9 82.3,57.9 82.3,55.3 79.7,55.3 		"/>
		<polygon class="st2" points="79.7,60.4 79.7,63 82.3,63 82.3,60.4 81,60.4 		"/>
		<polygon class="st2" points="79.7,65.6 79.7,68.1 81,68.1 82.3,68.1 82.3,65.6 81,65.6 		"/>
		<polygon class="st2" points="74.6,34.7 74.6,37.3 77.1,37.3 77.1,34.7 75.9,34.7 		"/>
		<polygon class="st2" points="74.6,42.4 75.9,42.4 77.1,42.4 77.1,39.9 74.6,39.9 		"/>
		<polygon class="st2" points="74.6,45 74.6,47.6 77.1,47.6 77.1,45 75.9,45 		"/>
		<polygon class="st2" points="74.6,50.1 74.6,52.7 77.1,52.7 77.1,50.1 75.9,50.1 		"/>
		<polygon class="st2" points="79.7,37.3 82.3,37.3 82.3,34.7 81,34.7 79.7,34.7 		"/>
		<polygon class="st2" points="79.7,42.4 81,42.4 82.3,42.4 82.3,39.9 79.7,39.9 		"/>
		<polygon class="st2" points="79.7,45 79.7,47.6 82.3,47.6 82.3,45 81,45 		"/>
		<polygon class="st2" points="79.7,50.1 79.7,52.7 82.3,52.7 82.3,50.1 81,50.1 		"/>
	</g>
</g>
</svg>
