<svg xmlns="http://www.w3.org/2000/svg" xmlns:xlink="http://www.w3.org/1999/xlink" version="1.1" x="0px" y="0px" viewBox="0 0 100 125" style="enable-background:new 0 0 100 100;" xml:space="preserve"><style type="text/css">
	.st0{fill:none;stroke:#000000;stroke-width:2;stroke-linecap:round;stroke-linejoin:round;stroke-miterlimit:10;}
</style><path d="M87.9,69.4c-1.4,0-2.1-0.4-2.9-0.9c-0.9-0.5-1.9-1.1-3.9-1.1s-3,0.6-3.9,1.1c-0.8,0.5-1.5,0.9-2.9,0.9  c-1.4,0-2.1-0.4-2.9-0.9c-0.9-0.5-1.9-1.1-3.9-1.1c-2,0-3,0.6-3.9,1.1c-0.8,0.5-1.5,0.9-2.9,0.9s-2.1-0.4-2.9-0.9  c-0.9-0.5-1.9-1.1-3.9-1.1c-2,0-3,0.6-3.9,1.1c-0.8,0.5-1.5,0.9-2.9,0.9c-1.4,0-2.1-0.4-2.9-0.9c-0.9-0.5-1.9-1.1-3.9-1.1  c-2,0-3,0.6-3.9,1.1c-0.8,0.5-1.5,0.9-2.9,0.9c-1.4,0-2.1-0.4-2.9-0.9c-0.9-0.5-1.9-1.1-3.9-1.1c-2,0-3,0.6-3.9,1.1  c-0.8,0.5-1.5,0.9-2.9,0.9s-2.1-0.4-2.9-0.9c-0.9-0.5-1.9-1.1-3.9-1.1c-0.6,0-1,0.4-1,1s0.4,1,1,1c1.4,0,2.1,0.4,2.9,0.9  c0.9,0.5,1.9,1.1,3.9,1.1s3-0.6,3.9-1.1c0.8-0.5,1.5-0.9,2.9-0.9c1.4,0,2.1,0.4,2.9,0.9c0.9,0.5,1.9,1.1,3.9,1.1c2,0,3-0.6,3.9-1.1  c0.8-0.5,1.5-0.9,2.9-0.9c1.4,0,2.1,0.4,2.9,0.9c0.9,0.5,1.9,1.1,3.9,1.1c2,0,3-0.6,3.9-1.1c0.8-0.5,1.5-0.9,2.9-0.9  c1.4,0,2.1,0.4,2.9,0.9c0.9,0.5,1.9,1.1,3.9,1.1s3-0.6,3.9-1.1c0.8-0.5,1.5-0.9,2.9-0.9c1.4,0,2.1,0.4,2.9,0.9  c0.9,0.5,1.9,1.1,3.9,1.1c2,0,3-0.6,3.9-1.1c0.8-0.5,1.5-0.9,2.9-0.9s2.1,0.4,2.9,0.9c0.9,0.5,1.9,1.1,3.9,1.1c0.6,0,1-0.4,1-1  S88.5,69.4,87.9,69.4z"/><path d="M87.9,76.3c-1.4,0-2.1-0.4-2.9-0.9c-0.9-0.5-1.9-1.1-3.9-1.1s-3,0.6-3.9,1.1c-0.8,0.5-1.5,0.9-2.9,0.9  c-1.4,0-2.1-0.4-2.9-0.9c-0.9-0.5-1.9-1.1-3.9-1.1c-2,0-3,0.6-3.9,1.1c-0.8,0.5-1.5,0.9-2.9,0.9s-2.1-0.4-2.9-0.9  c-0.9-0.5-1.9-1.1-3.9-1.1c-2,0-3,0.6-3.9,1.1c-0.8,0.5-1.5,0.9-2.9,0.9c-1.4,0-2.1-0.4-2.9-0.9c-0.9-0.5-1.9-1.1-3.9-1.1  c-2,0-3,0.6-3.9,1.1c-0.8,0.5-1.5,0.9-2.9,0.9c-1.4,0-2.1-0.4-2.9-0.9c-0.9-0.5-1.9-1.1-3.9-1.1c-2,0-3,0.6-3.9,1.1  c-0.8,0.5-1.5,0.9-2.9,0.9s-2.1-0.4-2.9-0.9c-0.9-0.5-1.9-1.1-3.9-1.1c-0.6,0-1,0.4-1,1s0.4,1,1,1c1.4,0,2.1,0.4,2.9,0.9  c0.9,0.5,1.9,1.1,3.9,1.1s3-0.6,3.9-1.1c0.8-0.5,1.5-0.9,2.9-0.9c1.4,0,2.1,0.4,2.9,0.9c0.9,0.5,1.9,1.1,3.9,1.1c2,0,3-0.6,3.9-1.1  c0.8-0.5,1.5-0.9,2.9-0.9c1.4,0,2.1,0.4,2.9,0.9c0.9,0.5,1.9,1.1,3.9,1.1c2,0,3-0.6,3.9-1.1c0.8-0.5,1.5-0.9,2.9-0.9  c1.4,0,2.1,0.4,2.9,0.9c0.9,0.5,1.9,1.1,3.9,1.1s3-0.6,3.9-1.1c0.8-0.5,1.5-0.9,2.9-0.9c1.4,0,2.1,0.4,2.9,0.9  c0.9,0.5,1.9,1.1,3.9,1.1c2,0,3-0.6,3.9-1.1c0.8-0.5,1.5-0.9,2.9-0.9s2.1,0.4,2.9,0.9c0.9,0.5,1.9,1.1,3.9,1.1c0.6,0,1-0.4,1-1  S88.5,76.3,87.9,76.3z"/><path d="M87.9,83.1c-1.4,0-2.1-0.4-2.9-0.9c-0.9-0.5-1.9-1.1-3.9-1.1s-3,0.6-3.9,1.1c-0.8,0.5-1.5,0.9-2.9,0.9  c-1.4,0-2.1-0.4-2.9-0.9c-0.9-0.5-1.9-1.1-3.9-1.1c-2,0-3,0.6-3.9,1.1c-0.8,0.5-1.5,0.9-2.9,0.9s-2.1-0.4-2.9-0.9  c-0.9-0.5-1.9-1.1-3.9-1.1c-2,0-3,0.6-3.9,1.1c-0.8,0.5-1.5,0.9-2.9,0.9c-1.4,0-2.1-0.4-2.9-0.9c-0.9-0.5-1.9-1.1-3.9-1.1  c-2,0-3,0.6-3.9,1.1c-0.8,0.5-1.5,0.9-2.9,0.9c-1.4,0-2.1-0.4-2.9-0.9c-0.9-0.5-1.9-1.1-3.9-1.1c-2,0-3,0.6-3.9,1.1  c-0.8,0.5-1.5,0.9-2.9,0.9s-2.1-0.4-2.9-0.9c-0.9-0.5-1.9-1.1-3.9-1.1c-0.6,0-1,0.4-1,1s0.4,1,1,1c1.4,0,2.1,0.4,2.9,0.9  c0.9,0.5,1.9,1.1,3.9,1.1s3-0.6,3.9-1.1c0.8-0.5,1.5-0.9,2.9-0.9c1.4,0,2.1,0.4,2.9,0.9c0.9,0.5,1.9,1.1,3.9,1.1c2,0,3-0.6,3.9-1.1  c0.8-0.5,1.5-0.9,2.9-0.9c1.4,0,2.1,0.4,2.9,0.9c0.9,0.5,1.9,1.1,3.9,1.1c2,0,3-0.6,3.9-1.1c0.8-0.5,1.5-0.9,2.9-0.9  c1.4,0,2.1,0.4,2.9,0.9c0.9,0.5,1.9,1.1,3.9,1.1s3-0.6,3.9-1.1c0.8-0.5,1.5-0.9,2.9-0.9c1.4,0,2.1,0.4,2.9,0.9  c0.9,0.5,1.9,1.1,3.9,1.1c2,0,3-0.6,3.9-1.1c0.8-0.5,1.5-0.9,2.9-0.9s2.1,0.4,2.9,0.9c0.9,0.5,1.9,1.1,3.9,1.1c0.6,0,1-0.4,1-1  S88.5,83.1,87.9,83.1z"/><path d="M87.9,61.1h-9.6V50.8c5.3-0.7,9.4-7,9.4-14.7c0-8.2-4.7-14.8-10.4-14.8s-10.4,6.6-10.4,14.8c0,7.7,4.2,14,9.4,14.7v10.3  H64.7v-6.5c0-0.6-0.4-1-1-1H51.6v-2.8c0-2.1,1.5-3.7,3.3-3.7s3.3,1.7,3.3,3.7c0,0.6,0.4,1,1,1s1-0.4,1-1c0-3.2-2.4-5.7-5.3-5.7  c-1.3,0-2.4,0.5-3.3,1.3v-4.7c0-1.6,1.1-2.9,2.6-2.9c1.4,0,2.6,1.3,2.6,2.9c0,0.6,0.4,1,1,1s1-0.4,1-1c0-2.7-2-4.9-4.6-4.9  c-0.9,0-1.8,0.3-2.6,0.8v-3.4c0-1.1,0.7-1.9,1.7-1.9s1.7,0.9,1.7,1.9c0,0.6,0.4,1,1,1s1-0.4,1-1c0-2.2-1.6-3.9-3.7-3.9  c-1.1,0-2,0.5-2.7,1.2c-0.7-0.8-1.6-1.2-2.7-1.2c-2,0-3.7,1.8-3.7,3.9c0,0.6,0.4,1,1,1s1-0.4,1-1c0-1.1,0.7-1.9,1.7-1.9  s1.7,0.9,1.7,1.9v3.4c-0.7-0.5-1.6-0.8-2.6-0.8c-2.5,0-4.6,2.2-4.6,4.9c0,0.6,0.4,1,1,1s1-0.4,1-1c0-1.6,1.1-2.9,2.6-2.9  s2.6,1.3,2.6,2.9v4.7c-0.9-0.8-2.1-1.3-3.3-1.3c-2.9,0-5.3,2.6-5.3,5.7c0,0.6,0.4,1,1,1s1-0.4,1-1c0-2.1,1.5-3.7,3.3-3.7  s3.3,1.7,3.3,3.7v2.8H37.4c-0.6,0-1,0.4-1,1v6.5H24.4V50.8c5.4-0.8,9.4-8.3,9.4-17.7c0-10-4.6-17.8-10.4-17.8S13,23.1,13,33.1  c0,9.4,4.1,16.9,9.4,17.7v10.3h-9.5c-0.6,0-1,0.4-1,1s0.4,1,1,1h75.1c0.6,0,1-0.4,1-1S88.5,61.1,87.9,61.1z M23.4,26.9  c-0.6,0-1,0.4-1,1v13.8c-0.9-1.1-2.1-2.6-3.2-4c-0.3-0.4-1-0.5-1.4-0.2c-0.4,0.3-0.5,1-0.2,1.4c2.8,3.7,4.1,5.1,4.8,5.7v4.1  c-4.1-1-7.4-7.8-7.4-15.7c0-8.6,3.9-15.8,8.4-15.8s8.4,7.2,8.4,15.8c0,7.9-3.3,14.7-7.4,15.7V38.7l4.3-4.9c0.4-0.4,0.3-1-0.1-1.4  c-0.4-0.4-1.1-0.3-1.4,0.1l-2.8,3.2v-7.7C24.4,27.3,24,26.9,23.4,26.9z M62.7,61H38.4v-5.4h24.4V61z M77.3,26.9c-0.6,0-1,0.4-1,1  v13.8c-0.9-1.1-2.1-2.6-3.2-4c-0.3-0.4-1-0.5-1.4-0.2c-0.4,0.3-0.5,1-0.2,1.4c2.8,3.7,4.1,5.1,4.8,5.7v4.1  c-4.2-0.8-7.4-6.2-7.4-12.7c0-7.1,3.8-12.8,8.4-12.8s8.4,5.7,8.4,12.8c0,6.5-3.3,11.9-7.4,12.7V38.7l4.3-4.9c0.4-0.4,0.3-1-0.1-1.4  C82,31.9,81.4,32,81,32.4l-2.8,3.2v-7.7C78.3,27.3,77.8,26.9,77.3,26.9z"/><text x="0" y="115" fill="#000000" font-size="5px" font-weight="bold" font-family="'Helvetica Neue', Helvetica, Arial-Unicode, Arial, Sans-serif">Created by Made Somewhere</text><text x="0" y="120" fill="#000000" font-size="5px" font-weight="bold" font-family="'Helvetica Neue', Helvetica, Arial-Unicode, Arial, Sans-serif">from the Noun Project</text></svg>