<?xml version="1.0" encoding="utf-8"?>
<!-- Generator: Adobe Illustrator 20.0.0, SVG Export Plug-In . SVG Version: 6.00 Build 0)  -->
<svg version="1.1" id="Layer_1" xmlns="http://www.w3.org/2000/svg" xmlns:xlink="http://www.w3.org/1999/xlink" x="0px" y="0px"
	 viewBox="0 0 38.5 89.9" style="enable-background:new 0 0 38.5 89.9;" xml:space="preserve">
<g>
	<circle cx="20.3" cy="17.5" r="7.4"/>
	<path d="M38.4,55.2l-7.1-26.4l0,0c-0.3-1.2-1.4-2-2.6-1.9v0H13.4L5.1,1.8l0,0C4.7,0.4,3.2-0.3,1.8,0.1s-2.1,1.9-1.7,3.3l0,0
		l5.8,17.4c0,0,0,0.1,0,0.1l0,0l6,18.2v17.1v4.3v25.8h0c0,2,1.7,3.6,3.7,3.6s3.6-1.6,3.7-3.6h0V60.5h2.1v25.8h0c0,2,1.7,3.6,3.7,3.6
		c2,0,3.6-1.6,3.7-3.6h0V60.5v-4.3V39.3l4.6,17.3l0,0c0.4,1.4,1.8,2.2,3.2,1.9S38.8,56.6,38.4,55.2L38.4,55.2z"/>
</g>
</svg>
