<?xml version="1.0" encoding="utf-8"?>
<!-- Generator: Adobe Illustrator 20.0.0, SVG Export Plug-In . SVG Version: 6.00 Build 0)  -->
<svg version="1.1" id="Layer_1" xmlns="http://www.w3.org/2000/svg" xmlns:xlink="http://www.w3.org/1999/xlink" x="0px" y="0px"
	 viewBox="0 0 54.2 90" style="enable-background:new 0 0 54.2 90;" xml:space="preserve">
<g>
	<path d="M40.4,8.7c0,4.8-3.9,8.7-8.7,8.7c-4.8,0-8.7-3.9-8.7-8.7C23.1,3.9,27,0,31.7,0C36.5,0,40.4,3.9,40.4,8.7L40.4,8.7z"/>
	<path d="M52,45.7c-1.7-0.8-12.9-6.3-12.9-6.3s-4-8.4-6-13.1c-1.9-4.4-3.3-5.5-6.1-5.5h-4.2c-2.2,0-3,0.8-4.4,1.6L7,32.1
		c-1,0.6-1.6,1.4-2,2.7L2.5,51.2c-0.4,2.6,1,3.7,2.6,4.1c1.3,0.3,3.2-0.4,3.6-2.2c0.3-1.5,2.6-15,2.6-15l7.5-5.7
		c-1.2,5.7-2.5,12-2.9,14.1c-0.7,3.6,1.1,6.4,2.5,8.6c1.3,2,18.2,28.6,20.4,31.5c2.2,2.9,4.3,4.3,7.4,2.6c2.6-1.5,2.2-4.8,0.7-7.2
		S28.4,51.7,28.4,51.7l2.9-12.4c0,0,2,2.8,3,4.4c0.5,0.7,1,1,2.3,1.8c1.6,0.9,9.2,4.3,11.5,5.4c2.1,0.9,4.6,1.3,5.6-0.6
		C54.8,48.6,53.5,46.4,52,45.7L52,45.7z"/>
	<path d="M14.3,56.9L10.8,69c0,0-7.2,10.4-9.2,13.3c-1.5,2.2-2.6,4.9-0.1,6.8c2.9,2.2,5.2-0.7,6.7-2.4c1.4-1.5,7-9.3,8.5-11.3
		c1-1.3,1.6-2.5,2.1-3.6c0.3-0.7,1.4-3.8,2.1-5.8L14.3,56.9z"/>
</g>
</svg>
