<?xml version="1.0" encoding="utf-8"?>
<!-- Generator: Adobe Illustrator 20.0.0, SVG Export Plug-In . SVG Version: 6.00 Build 0)  -->
<svg version="1.1" id="Layer_1" xmlns="http://www.w3.org/2000/svg" xmlns:xlink="http://www.w3.org/1999/xlink" x="0px" y="0px"
	 viewBox="0 0 58 98.1" style="enable-background:new 0 0 58 98.1;" xml:space="preserve">
<g>
	<path d="M44,57.6L30.3,70.2v26.6c0,0.7-0.6,1.3-1.3,1.3s-1.3-0.6-1.3-1.3V57.2L17.1,48c-0.5-0.5-0.6-1.3-0.1-1.8
		c0.2-0.3,0.5-0.4,0.9-0.4c0.3,0,0.7,0.1,0.9,0.3l9.1,7.8V32.3c0-0.7,0.6-1.3,1.3-1.3s1.3,0.6,1.3,1.3v34.5l12-11.1
		c0.2-0.2,0.6-0.3,0.9-0.3s0.6,0.2,0.9,0.4C44.5,56.3,44.5,57.1,44,57.6z"/>
	<path d="M58,47.5c0,14.8-11.2,27.3-25.7,28.9v-5.3l13-12c1.3-1.2,1.4-3.3,0.2-4.6c-0.6-0.7-1.4-1-2.3-1.1c-0.9,0-1.7,0.3-2.3,0.9
		l-8.6,8v-30c0-1.8-1.5-3.3-3.3-3.3s-3.3,1.5-3.3,3.3v17.2l-5.8-5c-0.7-0.6-1.5-0.8-2.4-0.8c-0.9,0.1-1.7,0.5-2.2,1.1
		c-1.2,1.4-1,3.4,0.4,4.6l10,8.6v18.2C11.2,74.6,0,62.1,0,47.3C0.2,31.4,13.3,0,29.1,0S58,31.4,58,47.5z"/>
</g>
</svg>
