<?xml version="1.0" encoding="utf-8"?>
<!-- Generator: Adobe Illustrator 22.1.0, SVG Export Plug-In . SVG Version: 6.00 Build 0)  -->
<svg version="1.1" id="Layer_2" xmlns="http://www.w3.org/2000/svg" xmlns:xlink="http://www.w3.org/1999/xlink" x="0px" y="0px"
	 viewBox="0 0 959 928.5" style="enable-background:new 0 0 959 928.5;" xml:space="preserve">
<style type="text/css">
	.st0{fill:#5FCE23;}
	.st1{fill:#0BC0ED;}
	.st2{fill:#FFD419;}
	.st3{fill:#FF4B19;}
</style>
<path vector-effect="none" class="st0" d="M698.9,316.1l-0.1,19.4l-12.4-0.3l-4.6-17.3l2-1.9l7.3-0.2L698.9,316.1"/>
<path vector-effect="none" class="st0" d="M738.8,113.1l6.6-5.7l7.1,9.3L746,122L738.8,113.1"/>
<path vector-effect="none" class="st1" d="M739.6,238.8l0.4-1.1l3.9-3.4l2.4-2.5l3.9-1.2h2.5l1.9,0.6l1,2l0.8,3.6l-0.3,2.3l-0.7,2.8
	l-0.3,2.8l-0.7,0.1l-4.7,0.1l-4.2,0.4l-0.1-2.6l-1.9-1.6l-1.6-0.7H740L739.6,238.8"/>
<path vector-effect="none" class="st2" d="M894.5,363.2l0.1-20.3l-3.8-0.5L892,313l41.1,0.6l0.4-5.4l3.1-0.1l-0.5,32.9l2.3,0.5
	l0.4,18.5l-9.3-0.4l-0.1-14.1l-7.4-0.2l-0.1,17.3l-7.6-0.1l-0.2-7.4l-9.3,0.1l-0.2-9.4l-4.2,0.1l-0.5,21.6l-5.5,0.7L894.5,363.2"/>
<path vector-effect="none" class="st0" d="M700.3,518.5l25.3-0.1l0.1,15.7l-25,0.5L700.3,518.5"/>
<path vector-effect="none" class="st2" d="M582.3,571.3l2.9,5.5h2.1l-0.2-0.6l-0.6-2.3l7.6,0.1l-0.2,8.8H563l5.2-9.5l-2.9,0.2
	l-0.4-0.7l2.3-3l-5.4-0.3v-6.7l9.2,0.1l0.4,0.6l-1.6,3.3l-0.1,0.6l2.5,0.2l-1.4,3.4L582.3,571.3"/>
<path vector-effect="none" class="st2" d="M658,632.2l1.2-0.1l-0.4-9.8l4.3,0.1l2.2-0.1l2,0.6l1,4l1.9,0.1l0.4,1l0.1,2.2l2.2-0.2
	l6.2,7.9l-1.5,1.2l-4.6-0.2h-14.5L658,632.2"/>
<path vector-effect="none" class="st1" d="M273.9,521.1l0.5-11.5l0.1-1.7l6.6-0.2l0.1-0.8l-0.5-1.7l7.2-3.5l8.2-4.2l9.6-0.5l-0.3,4
	l-0.6,3.4l-1.2,2.1l-5.5,4.9l-0.5,1.8l0.3,2.9l-4.9,0.3l-0.6,4.9H273.9"/>
<path vector-effect="none" class="st1" d="M195.8,465l-0.1,3.1l-0.3,8.7h-6.9l0.3-10.9l-5.1-1l-17.6-0.4l0.8-3.5l-1.3-3.5l-1.6-1.4
	l-2-2.4l-0.4-7.5l0.7-1l1.3,0.9l-0.3,5.3l2.7,2.9l7.8-0.1l0.4-0.7l0.2-8.7l15.4,0.8l-0.3,17.5l1.8,1.9L195.8,465"/>
<path vector-effect="none" class="st1" d="M225.8,464.5l-0.5,17.8h-10.1h-7.5l-8.1-0.2l0.9-13.9l-4.8-0.1l0.1-3.1l6.3-0.8l10.4,0.1
	L225.8,464.5"/>
<path vector-effect="none" class="st2" d="M530.3,531.9l-7.3-0.2l-0.3-9.7l5.5,0.1l-0.1-12.7l5.1,0.3l0.1,4.7l4.7-0.2l0.4,9.6
	l7.4-0.1L546,540l-7.1,0.3l-3,2.8l-0.4-2.4l-5.3,0.1L530.3,531.9"/>
<path vector-effect="none" class="st1" d="M196.6,458.4l-0.4-12.3l24.4,0.6l0.2,14.1l-21.9,0.2l-0.7-4.1L196.6,458.4"/>
<path vector-effect="none" class="st0" d="M753.8,98.6l3.9-3.6l3.3-2.6l3.4-4.5l3.3-1.6l7.7,9.8l-1,2.9l-11.7,9.5l-0.8-0.7
	L753.8,98.6"/>
<path vector-effect="none" class="st2" d="M779.6,94.2l-0.9,0.3v1.2L770,85l0.5-1.9l2.5-0.4l0.6-1.7l2-1.9l4.2-1.9l5.1,11.7
	L779.6,94.2"/>
<path vector-effect="none" class="st1" d="M829.7,62.3l7.9-4.5l1-5.9l23-0.7l-0.4,20.8l-11.8,5.5l-0.1,8.1l-15.8-0.2l-0.9,0.8
	l-3-0.2L829.7,62.3"/>
<path vector-effect="none" class="st2" d="M630.2,333.3l-7-0.2l-4.2-0.2l-7.5,0.9l-0.7-0.9l0.8-13.4l1.1,0.6h2.6l3.2-0.9l6-0.9
	l4.3-1.1h2.1L630.2,333.3"/>
<path vector-effect="none" class="st2" d="M652.4,311.8l-0.6,1.8l-1.6-0.1l-2.8,0.5l0.1-13.6v-4.4l0.2-8.4l-0.2-13.5l13.5-0.2
	l12-0.5l2.2-0.1h3.7l-0.6,1.8l0.1,2.8l-1.6,2.4l-2.8,0.8h-2.6l-0.8,7.3l-0.3,1.3l3,0.8v1.3l-7.3,8.5l-3,4.1l-1.5,0.3l-1.5,1.4
	l-0.6,1.6l-2-1.1l-1.9-0.4l-1.6,1.3L652.4,311.8"/>
<path vector-effect="none" class="st1" d="M788.5,310.4l-0.5,13.6H783l-0.6,5.8l-10.6,0.3l0.6,2.1l0.9,1.5l0.6,1.6l-0.1,5.5
	l-2.5,0.7l-4.6-0.1l-7.1-0.1l0.3-6.7l3.7-0.3l1.2-20l-1.5-2.4l5.5-3.3l1.6,2.1l9.7-0.1l0.6-2.2l6.6-0.3l1.3,0.9L788.5,310.4"/>
<path vector-effect="none" class="st1" d="M643.7,442.9l0.3-7.7l13.2,1.5l1.7,23.5l-0.6,15.7l-10.6-10.6l-0.5-16.2l-1.9-0.7
	L643.7,442.9"/>
<path vector-effect="none" class="st0" d="M738.2,498.1l22.3,0l7.1-0.4l0.3,2.6l-3.8,0.1l-0.2,17.8l-22.2,0.1l-15.9,0.1l-25.3,0.1
	l-0.2-20.2l4-0.5l7.4-0.4l7.1-0.2l6.8,0.5h7.9L738.2,498.1"/>
<path vector-effect="none" class="st2" d="M584,355l-33.9,0.5l-5.5-7.3l-0.4-20.9l2.6-0.2l0.1-4l10.9-6.8l0.9,1.9l3.7-1.6l0.6-0.3
	l1.8,5.1l1.4-0.5l2.4,4.6l-1.2,1.6l2.3,3.8l1.7-0.6l1.7,3.7l-0.9,1.2l15.8,10.1l-0.6,4.3L584,355"/>
<path vector-effect="none" class="st3" d="M817.3,756.8l15.8,0.6l-0.5,10.1l-8.8,0.4l-0.4,5.6l-6.3-0.2L817.3,756.8"/>
<path vector-effect="none" class="st1" d="M204.2,530.8l0,8l-7,0.2l-0.1,1.9l-4.1,0.3l-0.3,8.8l-14.3-0.2l-4.9-1.1l-2.8-1.1l0.3-4.7
	l-2.5-0.2l2-8.4l4.6,0.6l0.2-3.1l0.9-0.9l1.4,0.4l0.6,3.4h1.1l4.6-2l4-0.4l1.1-23.7l1.2-2.1l7.6-0.2l0.6-0.6l1.2,1.6l-0.1,4.6
	l-0.5,2.8l1.3,1.6l2.1,3l1.7,2.9l1.3,2.4l1,2.3l-2.6,0.9L204.2,530.8 M179.7,545.6l4.8,0.1l0.1-4.9l-4.9,0.1L179.7,545.6"/>
<path vector-effect="none" class="st2" d="M142.1,625.3l4.3,0l-7.2,14.1l9.4,0.4l-17.8,27.3l-10.8-0.7L142.1,625.3"/>
<path vector-effect="none" class="st0" d="M220.4,419.4l4.9,0.8l4.1,0.4l4.3,0.1l2.9,0.5l3.4,0.4l3.1,0.6l2.8,0.1l3.2,0.5l6.8,1.9
	l4.8,1.8l0.3,1.7l0,1l-15.5-4.6l-10.9-1l-0.5,7.6l-9.3-0.1l-0.5-8.4l-8.3-0.5l0.2-2.8L220.4,419.4"/>
<path vector-effect="none" class="st3" d="M785.9,151.6l-0.4,2.6l-20.2,14.2l-1.9-2.5l-1.6-3.5l-0.4-1.9l-0.7-1.2h-1.8l-0.2-1.9
	l-6.4,0.1l0.2-5.8l32.2-0.6L785.9,151.6"/>
<path vector-effect="none" class="st2" d="M108,515.9l-0.1,12.2l3.9,0l-0.5,10.9l-7.4-0.5l-0.7,6.8l-9.2,5.5l-1.8-1.1l0.1-4.4
	l-9.2,0.1l-0.5,12.3l-6.1,2.6l-2.1,0.4l-10.1,6.9l-12.2,6.6l0.7-33.5l33.3,0.1l0.2-9.2l7.2-0.6l1.2-15.4L108,515.9"/>
<path vector-effect="none" class="st1" d="M600.6,469.9l-0.5,8.2l2.6,0.6l2.6,1.4l2.1,1.7l0.2,1.2l0.1,1.1l-0.6,2.6H605l-4,0.1
	l-3.6-2.1l-1.1-3l-0.9-3.3l-10.2-3v-7.2l14.4,0.6L600.6,469.9"/>
<path vector-effect="none" class="st1" d="M684.1,488.9l3.5,2.8l4.2,1l6.2,0.4h2.4l-0.1,4l-0.2,1.2l0.2,20.2l-14.1-0.2l-1.4,0
	l-0.4-22.2l-9.3-0.1l0.2-13.2l7.6,7.6L684.1,488.9"/>
<path vector-effect="none" class="st1" d="M700.3,518.5l0.5,16.1l25-0.5l-0.1-15.7l15.9-0.1l-0.6,21.4l-22-0.1l-33.4-0.2l0.6-21.2
	L700.3,518.5"/>
<path vector-effect="none" class="st2" d="M752.5,151.6l-0.2,5.8l0.1,8.5l-0.2,4l-9.2-0.1v-1.9l-10.7,0.1l-0.1-5.5l-0.5-0.8l0.3-9.5
	l0-1.9l20.1-0.6L752.5,151.6"/>
<path vector-effect="none" class="st3" d="M78.8,749.7l-1.9-2.5l9.7-7.5h3.7l4.1-5l3.2-0.4l-0.4-2.8l10.2-8l-1.3,15.8l-5.3,0.7
	l-0.1,2.5l-9.6,0.3l-2.3,1l-4,2.6l-2.5,1.3L78.8,749.7"/>
<path vector-effect="none" class="st0" d="M840.5,355.3l-0.1,7.9l-5.4,0.4v-1.7l-1.7-0.7l-2.2-0.5l-0.4-1.2h-2.2l-1.9,0.1h-0.4
	l-0.9-2.4l-0.4-0.6l-1.1-0.3l-0.9-1.6l-0.4-1l-3.4-0.7l-0.9,0.1l-0.4-1l-0.5-1.6l-1.6-1l-2.2,0.2l0-5.3l7,0.2h10.1l7.4-0.2l0.3,3.1
	l2.2-0.8L840.5,355.3"/>
<path vector-effect="none" class="st2" d="M68.8,706.6l29.1-0.1l0.3,8.9l-10.5,18.2l-1,0.2l-4.1-3.1l-0.6-0.4l-1.6-2.8l-0.9-2.1
	l-1.7-5.7l-0.5-2.5l-0.1-2.6l-0.7-1.4l-1.1-1.4l-2.2-1l-1-0.8l-1.5-0.7l-1-1L68.8,706.6"/>
<path vector-effect="none" class="st1" d="M715.6,148.2l5.3,4.5l0.5-0.3l0.1-1.9l0.4-0.6l0-0.1l0.3-0.4l0.4-0.5l9.3,3.3l-0.3,9.5
	l-2.1,0.9l-2.1,1.8l-24.1-12.8l5.9-4.4l2.4-3.2l5-5.8l3.8,4L715.6,148.2"/>
<path vector-effect="none" class="st2" d="M722,149.9l0.1,0.1L722,149.9L722,149.9"/>
<path vector-effect="none" class="st2" d="M722,149.9l-0.1-0.3l-1.5-0.3l-0.1-4.2l0.1-2.9l-3.8-4l3.4-4l3.8,4.4l3.2,1.2l4.6-0.1
	l0.2,10.5l0,1.9l-9.3-3.3l-0.4,0.5L722,149.9"/>
<path vector-effect="none" class="st1" d="M731.7,139.8l-4.6,0.1l-3.2-1.2l-3.8-4.4l11.5-11.6L731.7,139.8"/>
<path vector-effect="none" class="st3" d="M675.5,591.6l-0.1,14.6l-9,0.1v-25.6l2.6,0.2l0.2,10.2L675.5,591.6"/>
<path vector-effect="none" class="st2" d="M792.7,111.8L792.7,111.8l2.9,4.2l2.2,3.2l10.3,15l-22.2,17.3l-1.2-0.6l-32.2,0.6
	l-0.5-1.9l-20.1,0.6l-0.2-10.5l-0.2-17.2l4.1-5.9l3.9,3.6l-4.3,4.7l2.2,2.8l-2.7,4.3l15.1-1l-0.3-6.7l-1.2-1l2.6-2.7l21.6-1.5
	l0.1-8.9l3-3.2l0.8-3.3l-0.6-5.6l3-2.6v-1.2l0.9-0.3l6.9,8.4L792.7,111.8 M772.5,122.8l-11.1,0.4l-9.5,0.2l-0.3,9.3l-2.8-0.4
	l0.5,5.3l2.7-0.3l0.3-3l13,0.9l7.4-0.7L772.5,122.8"/>
<path vector-effect="none" class="st3" d="M751.6,132.7l0.3-9.3l9.5-0.2l11.1-0.4l0.1,11.7l-7.4,0.7l-13-0.9l-0.3,3l-2.7,0.3
	l-0.5-5.3L751.6,132.7"/>
<path vector-effect="none" class="st1" d="M778.7,95.7l-3,2.6l0.6,5.6l-0.8,3.3l-3,3.2l-0.1,8.9l-21.6,1.5l-2.6,2.7l1.2,1l0.3,6.7
	l-15.1,1l2.7-4.3l-2.2-2.8l4.3-4.7l-3.9-3.6l3.2-3.6l7.2,8.9l6.5-5.2l-7.1-9.3l3.6-3l3.6,3.9l1.2-1.3l3.5,4.7l2.9-1.7l-6.4-8.6
	l-1.7,1.6l-1.6-1.2l3.4-3.3l8.1,9.1l0.8,0.7l11.7-9.5l1-2.9l-7.7-9.8L770,85L778.7,95.7"/>
<path vector-effect="none" class="st2" d="M748.9,104.5l1.5-2.6l1.6,1.2l1.7-1.6l6.4,8.6l-2.9,1.7l-3.5-4.7l-1.2,1.3L748.9,104.5"/>
<path vector-effect="none" class="st1" d="M829.7,62.3l-10.9,6.2l-17.2,8.7l-2.4,1.2l-3.9,2.1L785,88.8l-5.1-11.7l1.6-0.3l3.3-2.4
	l1.6-2.5l4.8-0.1l3.1-1.1l3.9-0.9l5.1-1.3l3.8-1l4.4-2l5.1-2.9l4.2-2.6l1.4-0.3l2.7-2.9l3.7-2.2l3.5-2.3l6.7-0.3l-1,5.9L829.7,62.3"
	/>
<path vector-effect="none" class="st0" d="M363.1,547.4l-0.7,1.5l0.1,17.4l-13.5-0.2l-3.2,0l-0.2-19.4l6-0.4l0.2-1.8l10.3,0.1
	l1.2,2.5L363.1,547.4"/>
<path vector-effect="none" class="st2" d="M833.6,85.6l-0.1,29.4l-3.6,3.2l-7.2,4.8l-8.9,7.4l-1.9,0.7l-2-1l-1-3.4l-1-3.2l-0.4-1.3
	l-2.8,0.1l-2.2,0.4l-1.2-1.2l-0.2-1.3v-2.1l-0.1-1l-2.1,0.5l-1.2,1.5l-2.2-3.2l-2.9-4.2l2.2-2.6l4.8-6l2.5-1.1h7.8l1.1,0.4l1.1,10.3
	l-0.2,2.8l-5.6,0.1l-1.3,0.5l0.1,1.3l0.4,0.9l2.9-0.2l2.4,0.1l3.3-0.3l2.1,0.2l0.4-1.1l-0.3-14.2l-2.5-0.4l-0.7-1.6l0.1-3v-4.3
	l0.1-3.5l-0.8-1l-8,1.8l-1.8,0.7l-0.4-1.6l0.2-2.8l-0.4-1.2l-0.4-0.7l-0.2-7.9l17.2-8.7l10.9-6.2l0,23.8l3,0.2L833.6,85.6"/>
<path vector-effect="none" class="st2" d="M643.8,472.7l-22.3-0.3l-0.2-2.4l-20.7-0.1l-1-1l-14.4-0.6v7.2l-2.4,1.6l-0.7-0.1V477
	l0.2-9.5l0.2-2.2l2.6-7l3.4,0.1l2.1-3.5l2.6-6.6l1.4-3.4l13.9-1.7l11.1-0.1l9.8-0.4l1.1,1.7l12.7-0.4l0.5-1.4l1.5,5.5l1.9,0.7
	l0.5,16.2l-0.3,3.2h-3.7L643.8,472.7"/>
<path vector-effect="none" class="st2" d="M664.6,200.9l1.2,0.2l9.5-7.4l4.1,0.9l1.4-1.1v-1.1l-0.2-8.7l-1.4-1.2l0.4-2.5l-0.1-0.6
	l-0.3-1.4l2.8-4l4.4-4l0.2,9.3l13-5.1l8.1-0.4l-2.2-3.8l-5.2-4.7l-5.1-4.5l8.3-9.1l24.1,12.8l2.1-1.8l2.1-0.9l0.5,0.8l0.1,5.5
	l0.1,3.8l-1,0.6l-2.2,1l-1.9,1.9l-0.9,3.2l2.1,2.7l1.4,1.9l-0.2,1.9l-0.7,1.6l-4.9,2.5l-1.1-2.1l-5.7,3.4l-8.8,4.4l-7.5,3.6
	l-9.6,0.1l0.1,2.5l-4.2,0.1l-1.6,1.6l-6.4,3.7l-0.3,2.6l-16.4,0.4l-4.7,1.6l-2.2-1.9l2.9-3.1l3.4-3.7L664.6,200.9"/>
<path vector-effect="none" class="st1" d="M664.6,200.9l0.8-2.3l-0.4-2.5l-0.6-2l1.3-1.5l2.4-2.1l2.9-2.6l1.9-2.1l2.6-3.4l2.3-2.6
	l1.6-0.6l0.1,0.6l-0.4,2.5l1.4,1.2l0.2,8.7v1.1l-1.4,1.1l-4.1-0.9l-9.5,7.4L664.6,200.9"/>
<path vector-effect="none" class="st3" d="M657.7,211l4.7-1.6l16.4-0.4l0.3-2.6l6.4-3.7l1.6-1.6l4.2-0.1l-0.1-2.5l9.6-0.1l7.5-3.6
	l8.8-4.4l5.7-3.4l1.1,2.1l4.9-2.5l0.7-1.6l0.2-1.9l-1.4-1.9l-2.1-2.7l0.9-3.2l1.9-1.9l2.2-1l1-0.6l-0.1-3.8l2,2.9l2.4,3.4l1.3,3
	l1.5,3.8l-6.6,0.3l-0.5,2.3v3.6l-7.2,4.9l-1.7-0.9l-0.3-0.4l-4.1,2.4l-4.6,3l-2.3,0.8l-2.4,1.6l-3.7,1.1l-3.8,1.7l-2.3,0.6h-2.4
	l-5.3-0.4l0.3,2.6l-1.1,2.5l-5.4-0.8l-0.2,6.1l-7.3-0.8l-0.5,7.9l-10.2,0.3l-0.4,5.1l-9.3,0.3l-0.4,7.7l-13.9,1.4l-0.5-0.3l0.1-6
	l6.8-5.6l-0.1-6.8l6.6-0.5L657.7,211"/>
<path vector-effect="none" class="st1" d="M768.7,308.8l-5.5,3.3l1.5,2.4l-1.2,20l-3.7,0.3l-0.3,6.7l-0.3,8.1l-11.9-0.2l-1,11.9
	l-6.3,0.1l1.2-18.5l-4.2-0.7l-0.7-0.9l3.1-10.4v-4l-1.2-1.8l-5.4,0.7l-3.9,1.3l-1.9,1l-1.9,2.1l-3.9-0.3l-4.8-0.6l-1.6-2.7l-2.1-4.5
	l-2.1-3.7l-3.4-3.4l-2.7,2.7l-2.1-3l-3.3-0.3l0.2-19.7l1.2,0.1l3.4-0.3l4.3-0.2l8.4-0.3l2.3-0.4l0.7-6.9l-0.8-13.3l7-0.1l13.3-0.2
	l0.4,19.5l19.4,0.6l4.3-0.4l3.9,3.9l6.6,7.3L768.7,308.8"/>
<path vector-effect="none" class="st1" d="M620.1,257.4l-7.4,4.2l-1.2,1.1l-7.8,3.8l-0.7,0.5l-12.8,8.1l-11.1,6.7l-9.3,5.6
	l-0.5-11.3l4-2.7l3.6-2.7l2.2-2.1l4.2-4l7.1-6.6l4.3-3.8l6-4.5l4.5-3.2l1.7,2.5l-0.7,1.5l-0.1,2.2l0.7,2.4l1.2-0.7l2.7-0.5l2.2,1.6
	l2.2-3.1l-7-7.7l2.9-3.4l5.1-4l2.6-3l3.2-2l3.6-3.5l4.6-3.6l3.6-3.4l3.3-3.6l5.8-5.5l5.2-4.3l2.9-2.9l4.4,3.4l2.2,1.9l-0.7,3.7
	l-6.6,0.5l-3.1,2.9l-5.5,4.6l-16.1,15.3l-1.1,5.3l5.3,2.6l-3.7,2.4l-0.9-0.2l-2.2,1l-2.5-1l-3,3l-1.7,2.5L620.1,257.4"/>
<path vector-effect="none" class="st2" d="M611.5,262.8l1.2-1.1l7.4-4.2l2.5-1.6l6.1-3.1l1.7,3.8l-4.5,3.4l-2.3,0.9l1.3,4.6
	l11.5-0.8l6.7,10.1l1.5,0.2l-0.5,14.3l-1,23.1l-0.4,2l-8.3,0.4l-1.3-0.8l-0.9-1.5l-1-0.7l-1.6-2l-1.9-3.4l-1.6-0.7l-0.4-1.2l-1-4.1
	l-1.5-2.2l-4.1-1.7l-5.3-2.8l-0.7-1.4l0.2-8.3l-1.6-4.5l-0.7-2.3l2.2-1.2v-5l3.3-0.4l1.1-1l-1.6-1.4L611.5,262.8"/>
<path vector-effect="none" class="st2" d="M221.8,570.9l-0.2,13.7l0.4,2.3v19l-29.7-0.3l-4.2,0.1l-2.6,0.9l-0.2-22.8l15.4,0.1
	l-0.4-20.5l6.2-0.4v-5.7l5.3-0.2v14L221.8,570.9"/>
<path vector-effect="none" class="st0" d="M821.2,437.4V478l-30.3-0.6l-3.3-4.6l-4.5-0.5l-2.7,4.6l-11.7,0.9l-1.1,20l-7.1,0.4
	l-0.2-10.1l-1-52.9l20.4-0.1l-0.2,1.8l19.4,0.1l1.7,0.4L821.2,437.4 M807.7,444.5l-0.5,1.2l-0.3,1.4l0.9,1.4l1.2,1.1l1.2,0.6h1.7
	l1.4-0.9l1-1.4l0.1-1.2l-0.3-0.7l-0.4-0.9l-0.7-0.7l-1.2-0.6l-1.4-0.2l-0.6-0.1l-1.2,0.4L807.7,444.5 M774.7,447.5l-1.7-0.4
	l-1.4,0.1l-3.2-0.4l-1.7-1.5l-0.8,1.5l-1.7,2.9l0.3,4.7l10.7-0.3l-0.2-4L774.7,447.5"/>
<path vector-effect="none" class="st2" d="M633.7,417.3l-10.9-3l2.8,0.4l5.5,1.7L633.7,417.3"/>
<path vector-effect="none" class="st3" d="M631.8,315.9l-0.1,0.9l-0.8,0.5h-2.1l-4.3,1.1l-6,0.9l-3.2,0.9h-2.6l-1.1-0.6l-0.8,13.4
	l0.7,0.9l7.5-0.9l4.2,0.2l7,0.2l0.1,7l0.1,9.8l-2.1,2.7l-0.9,0.7l-3-0.4l-1.1,0.9v1.9l-1.8,0.4l-0.8-1.5l-3.6,0.3l-0.4-3.3l-7.7,0.5
	l-7.4-0.7l-3.6-1.3l-0.2-2.3l-1.4-0.9v-6l-2-0.4l0.3-5l-0.8-1.7l-3.8,1.1l-4.7,0.7l-1.1-4.7l-1,0.7l-0.3-1.8l0.5-1.1l-0.4-3.8
	L578,326v-6.5l-1.3-0.5l0.1-3l2.8-0.7v-1.9l-7.7-0.1l-0.6-2.6l-1.9,0.2l-0.9-0.9v-2.7l-0.6-4.2l1.1-2.6l0.1-11.5l0.8-1.7l9.3-5.6
	l11.1-6.7l12.8-8.1l0.8,1.1l-0.3,2.2l-0.5,0.6l-0.1,0.3l-0.1,0.7l-1.1,0.2l-0.5,1.1l0.9,0.3l1.4-0.2l0.7-0.6l0.6-0.2l0.2,0.6
	l0.7,0.1l0.3-1.2l-0.9-0.9l3-0.2l0,2.8l0.2,3.2l0.5,2l1.3,0.7l0.6,0.9v1.4l-0.3,3v2.5l-0.1,2.1l0.7,2.4l1.3,1.1v0.9l0,1.5v1l1.4-0.2
	l1.1,0.4l0.2,1l0.4,0.7l1,0.8l1.7-0.5l0.4,0.8l0.6,0.6l-0.5,0.7l0.8,0.8l0.6,0.1l0.6,0.5l-0.1,1.8l0.2,1.5l1,0.6l1.1,0.2l0.7,0.7
	l1.6,0.5l1.2,0.8l0.6,0.8l0.4,0.5l0.2,1.6l0.4,1.1l0.8,0.5l0.6,0l1.5,0.4l1,1.5L631.8,315.9"/>
<path vector-effect="none" class="st1" d="M806.4,205.9l0.4,4.1l-0.2,2.5l-3,0.2l-3.4,0.1l-1.9,0.7l0.6,1.6l0.7,1.4l0.1,1.9
	l-2.2,1.4l-3.3,0.8l-3.7,0.4l-2.6,0.2l-3.2,0.6l-3,0.5l-1.9,0.4l-1-0.4l-1.5-0.8h-1.6l-0.2,1.5l-0.2-0.6l-0.4-1.5l-1.6-0.4l-2.3,0.4
	l0.2-0.8l-0.4-3.6l-1.6-4.6l1.9-3.7l1.3-2l2.3,0.6l4.2,0.8l1.2-0.3l0.2-3.3l4.5-0.1l4-0.4l1.5,0.5l1.8-0.1l0.7-0.6l-0.1,5.1l0.7,1
	l1.6,0.1l3-0.8l3.9-0.8l3.9-1.3L806.4,205.9"/>
<path vector-effect="none" class="st2" d="M719.8,286.8l-0.7,6.9l-2.3,0.4l-8.4,0.3l-4.3,0.2l-3.4,0.3l-1.2-0.1l-2.8-0.2l-3.4-0.7
	l-2.5,2.8L688,299l-2.5,2.5l-1,0.2l-0.5,1.2l0.8,1.6l-0.1,0.8l-1.2,2.2l-3,2.7l-3.2,2.9l-1.4,1.6l-1.9,2.8l-10,12.5l-4.1,5.7
	l-1.9,2.5l1.8,1.1l6.6,3.5l3.9,1.6l7.3,3.8l1.1,0.8l-0.1,6.3l-10.6-0.2l-3.4-0.1l-0.1-1.6l0.2-4.9l0.1-2.5l-2.3-0.7l-3.3-2.2l-2-1.2
	l-1.8-2.8l-10.1,13.9l-1.4-1l-2.1-1.3l-2.8-3.1l-1.3-2.5l-2.5-2l-2.6-2l-2.4-1l-0.1-7l0.6-16.1l0.8-0.5l0.1-0.9l1.4-2l1.3,0.8
	l8.3-0.4l0.1,3l-0.4,2.5l1.7,2l-0.6,3.2l-0.2,3.7l-0.7,3.7l-1.3,2.4l1.8-1.2l1.7,1l1.2,1.3l0.2-2.1l-0.2-1.9l3-4.2l-1.3-1.3l1.4-1.9
	l-2.5-2l1.6-2.6l0.3-1.4l-2.1-1.6l1.2-3l2.8-0.5l1.6,0.1l0.6-1.8l2.9,2.8l0.7,0.6l1.3-2l4.2,4.2l3.7-4.6l-3.6-3.4l2.5-3l4.3-5.2
	l2.9-3.7l4.5-3.9l-0.2-1.5l0.2-0.8l1.1-0.6l4-5.8l3.9,3.3l3.2-4.3l3-3.6l1.8-2.4l4-4.4l1.9,0.8l1.2,0.9l1.4,1.1l1.4,1l-4.5,6.3
	l2.1,2.2l2.8,1.8l7.2,3.8l1.4,0.6l1.9-4.8l1.5-0.7L719.8,286.8"/>
<path vector-effect="none" class="st2" d="M667.7,265.4l0.2,2.1l0.1,0.7l2.5,0.1l2,2l0.4,3l-12,0.5l-13.5,0.2l0.7-1.6l6.9-7.4
	l5.4-5.3l4.3,1l1.9,1.3l1,2.1L667.7,265.4"/>
<path vector-effect="none" class="st0" d="M746.2,361.2l1.5,1.8l1.6,1l0.2,7.7l-9.5-0.6l-9.5-0.1l-10.6-0.3v-28l-1-8.6l-2.4-4.8
	l4.8,0.6l3.9,0.3l1.9-2.1l1.9-1l3.9-1.3l5.4-0.7l1.2,1.8v4l-3.1,10.4l0.7,0.9l4.2,0.7l-1.2,18.5L746.2,361.2"/>
<path vector-effect="none" class="st3" d="M680.8,591.6l-5.4,0.1l-6.4-0.5l-0.2-10.2l-2.6-0.2l0-2l14.5-0.2L680.8,591.6"/>
<path vector-effect="none" class="st3" d="M751.1,202.3l-0.8,0.6l-4,3l-1.9,1.4h-5.4l-8.5-0.2l-0.2,2.2l0.7,2.1l0.2,2.3l-1.2,1.3
	l-2.3,0.7l-1.5-6.2l-0.7-1.1l-4,2.7l-0.5,1.4l2.2,5.2l-0.7,1.1l-1.9-0.2l-0.4,1.7l-0.5,3.2l-0.6,1.8l-2.8,2.1l-1.3-1.8l-1.5-3.4
	l-1.4-2.3l-1-0.8l-1.4,1.4l-1.1-0.1l-5.1,5.1l1.1,2.1l1.7,2.5l-0.5,1.3l0.6,1.6l1.3,1.4l-0.3,2.2l-4,3.4l0.9,1.8l0.8,0.9l-2.1,1.7
	l-1.2,0.8l-1.9,2.5l-3.3,2l-3.2,2.6l-3,3.3l-2.6,3l-1.5,1.7l-2.1-2.4l-1.5-0.9l-2.3,0.5l-1.4-1l-0.8-0.7l-0.4,1.7l-3.6,1.8l0.1,1.5
	l1.5,5.1l0.3,1.6l-2.6,0.8l-0.7-1.4l-0.5-2.7l-1.8,0.4l-3.2,1.3l-0.2-1.3l-1-2.1l-1.9-1.3l-4.3-1l-5.4,5.3l-6.9,7.4l-0.3-5
	l-0.4-14.2h0.9l5.2,3l3.6,2.1l0.4-2.1l-0.3-3.1l0.4-3.4l-0.8-0.7l-2.5,0.5l-3-1.3l-0.8-0.8l0.3-1.9l-0.7-0.9l-0.5-1l-2.3,0.4l0.4-1
	l10.8-6.6l6.1,0.6l8.3-4.9l8-4.8l13.2-8.4l7.7-5.2l0.9,2.4l5.2-2.9l1.7,4l13.6-12.9l-1.1-2l2.5-3.1l4.7-4.5l4.6-3.2l2.5,1.4l1.7-1.2
	l3.6,3.4l3.2-2.7l2.7,2.4l-2.7,2.7l0.3,0.9l4-1.6l0.8,0.8l0.2,1.8h1.5l1.7-0.5l0.9,1.2l-2.5,1.7L751.1,202.3"/>
<path vector-effect="none" class="st2" d="M789.6,193.3l0,1l-1.3,1l-1.1,1.6l-1.3,0.4l-1.3,0.4l-4.6,2.5l-5.3,2.5l-5.4,2.1l-3.4,1.5
	l-0.9,1.6l-0.4,0.4l-1.1,1.1l-3.7,3.4l-1.3,1.3l0.1,0.8l1.9,0.4l0.7,0.7l-1.3,1.7l-2.1,1.6h-2.3l-2.5,0.7l-1.3,1.8l0.7,2.7l0.5,2.2
	l-1.8,0.6l-4.2,3.6l-0.7,0.7l-2.4,2.5l-3.9,3.4l-0.4,1.1l-0.9-0.3l-2.3-1.7l-2.2-2.3l2.4-2.3l2.5-3.2l-1.5-1.6l-2.6-2.8l-2-1.6
	l-2-1.9l-1.4-1l8-6.4l9.2,8.9l8.2-8.8l-2.4-2l-3.9-4l-2.5-1.9l4-3l0.8-0.6l2.3,1.7l0.9,1l3.4,0.7l1,1.3l1,1.4l1.8,0.7l1.3-1.5
	l0.9-1.9l-0.7-1l-1.2-2.3l0.2-1.3l1.9-1.4l3.8-1.3l3.2-1.9l0.7,1.4l0.7,1.6l1.5,0.1l1.7-1l0.2-2.5l-1.3-3l-1-3.4l-0.3-3.4l0.4-1.9
	l4.5-0.2l3.1-0.1v1h5l3.5-0.2l-0.2,1.8v1.9l0.2,2.9L789.6,193.3"/>
<path vector-effect="none" class="st1" d="M754.5,231.2l-1.2-1.8l-0.4-2.6l-0.5-2.2l-0.7-2.7l1.3-1.8l2.5-0.7h2.3l2.1-1.6l1.3-1.7
	l-0.7-0.7l-1.9-0.4l-0.1-0.8l1.3-1.3l1.8,1l0.8,1v1.1v1.1l0.6,1l1.9,1.1l0.4,1.3l0.1,1.3l0.4,0.8l1.4,0.7v1l-0.7,2l-0.7,3.4
	l-1.3,3.3l-0.2,0.7l-6.1-0.9L754.5,231.2"/>
<path vector-effect="none" class="st1" d="M631.8,397.6l8.2,0.5l6-0.1h1.5l14.7,0.8l6.9-0.4l0.1,4.4l-0.7,4.7l-0.9,6.1l10.4,0.6
	l0.7,3.4l21.2,0.3l0.1,24.7l-0.7-0.3l-4-1.9l-2.5,0.1l-3.5-0.8l-3.5-1.3l-3.9-2.2l-3.2-1.9l-5.2-3.3l-2.4-2.2l-4.6-2.2l-2.5-2.1
	l-1.8-1h-1.9l-4.1-0.2l-3.3-0.8l-3.4-0.5l-1.1-1.6L647,418l-0.4-1.9l-0.8-1.9l-3.3,0.4l-1.3-0.3l-3.5-1.1l-1,0.7l-3.6,1.2h-2l-2.8-2
	l-2.1-0.1l-2.3,0.7l-1,0.7l-1.8-1.6l0.2-3l-0.4-5l2-0.6l4-2.4l2.4-2.1L631.8,397.6"/>
<path vector-effect="none" class="st2" d="M764.6,208.4l0.4-0.4l0.9-1.6l3.4-1.5l5.4-2.1l5.3-2.5l4.6-2.5l1.3-0.4l1.3-0.4l1.1-1.6
	l1.3-1l0-1l2.4-1.7l3.4-2.8l4-3.9l3.9-3.1l5.8-5l2.6-1.6l3.1-3.6l1.3-1.4l3.2,2.7l-1.3,1.7l-2.3,2.2l-2.8,2.2l-0.1,0.8l0.6,2.1
	l-3.3,2.9l-1,1.5l1.2,2.2l-2.1,3.3v1.5l2.1,0.4l1.7,0.8l-0.2,6l-1.4,0.4l-3.1,0.2l-0.7,0.3l-0.4,4.5l-0.6,0.8l-3.9,1.3l-3.9,0.8
	l-3,0.8l-1.6-0.1l-0.7-1l0.1-5.1l-0.7,0.6l-1.8,0.1l-1.5-0.5l-4,0.4l-4.5,0.1l-0.2,3.3l-1.2,0.3l-4.2-0.8l-2.3-0.6l-1.3,2l-1.9,3.7
	l-1.2-0.7l-1.6-1.6L764.6,208.4"/>
<path vector-effect="none" class="st1" d="M812.2,194.5l-1.7-0.8l-2.1-0.4v-1.5l2.1-3.3l-1.2-2.2l1-1.5l3.3-2.9l-0.6-2.1l0.1-0.8
	l2.8-2.2l2.3-2.2l1.8,0.2h3.1l2.1,1.6l1.2,1.8l0.4,2.2l0.3,1.6l-1.3,2.2l-1.2,3.1l0.1,1.4l0.7,1.6l-0.7,1l-11.8-0.4l-0.4,0.7
	L812.2,194.5"/>
<path vector-effect="none" class="st2" d="M725.7,271.1l0.2,2.3l-7,0.1h-6.6h-9.9l-1.6-0.2l-0.7,1.9l-1.2-0.9l-0.2-2.7l1-1.7
	l-3.9-3.4l6.6-6.4l2.9,3.4l0.2,1.3l1.7-1.6l0.2-1.3l-2.2-2.3l-3.6-3.8l4.1-4.5l2,1.6l2.1,2.3l1.9,2.9l2.6-1.8l3.8-3.4l-0.7-1.5
	l-5-4.6l-0.1-1.3l1.7-1.1l-2.1-2.2l0.6-1.3l3.6-5.5l3.4-3.6l9.7,9.1l-0.5,1.9l3.5,4.4l-0.6,2.3l-3.2,2.6l-2.5-2.8l-1.7,0.4l-0.1,1.3
	l3.1,2.1l0.9,1.6l-0.2,3.1l-3,3.9l-2.6,1.3l0.7,1.3l5.1,0.9l0.9,0.6l-1.2,2.8L725.7,271.1"/>
<path vector-effect="none" class="st1" d="M699.4,294.8l-0.2,19.7l-0.2,1.6l-7.7-0.3l-7.3,0.2l-2,1.9l-3.1-1.2l-1.4-3.7l3.2-2.9
	l3-2.7l1.2-2.2l0.1-0.8l-0.8-1.6l0.5-1.2l1-0.2l2.5-2.5l2.6-2.5l2.5-2.8l3.4,0.7L699.4,294.8"/>
<path vector-effect="none" class="st0" d="M716.4,329.4l2.4,4.8l1,8.6h-3.4l-1.8,0.4l-1-1.9l-6.9,2.8l-3,1.5l-3.3,1.6l-2.8,1
	l-0.3,2.1l-4,1l-2.7,0.2l-1-2.2l-1.8-6.9l-0.7-2.1l-0.6-5.2l12.4,0.3l0.1-19.4l0.2-1.6l3.3,0.3l2.1,3l2.7-2.7l3.4,3.4l2.1,3.7
	l2.1,4.5L716.4,329.4"/>
<path vector-effect="none" class="st1" d="M659.2,580.2l0.3,1.8l-3.6,0.2l-0.9,0.5v1.5l0.3,2.1l-1.2,0.9l-3.6,0.9l-2.8,2.3l-1.4,2.4
	l-3.8-1.6l-0.7-9.7h-9.3l-1.2-19.8l20-0.4h7.5L659.2,580.2"/>
<path vector-effect="none" class="st3" d="M645.4,353.3l-4.1,6.8l-5.4-3.9l-2.2-0.6l-2.4,3.3l-1.6,2.8l4.5,7.9l1.5,3l1,0.9v1.8
	l-0.9,2.2l-3,4.8l-0.6,2.7l-0.4,7l-0.2,3l-3.9,0.9l-6.7-0.1l0.3-0.4l-3.3-2.2l-0.9-1.3l1.5-4.5l-0.6-1.6l-3.1-3l-2.7-3.9l12.7-13.4
	l0.4-4.6l1.9-4.6l-1.9-0.7l-2,0.6V354l1.1-0.9l3,0.4l0.9-0.7l2.1-2.7l-0.1-9.8l2.4,1l2.6,2l2.5,2l1.3,2.5l2.8,3.1l2.1,1.3
	L645.4,353.3"/>
<path vector-effect="none" class="st2" d="M633.7,417.3l5.8,1.9l0.6,15.6l3.8,0.4l-0.3,7.7l-0.5,1.4l-12.7,0.4l-1.1-1.7l-9.8,0.4
	l-11.1,0.1l-13.9,1.7l1.1-3l0.7-1.9l11.4-0.7l0.4-2.2l10.6-0.5l-0.1-2.6l0.2-4.2l1.7-2.5l-1.5-1.4l-6.5-5.1l-5.7-4l4.5-6.1l3.4,0.5
	l0.8,1.3l0.3,1.9l2.2,2.2l3,0.3l5.1,0.8l6.8-0.2L633.7,417.3"/>
<path vector-effect="none" class="st2" d="M623.4,355.9l2-0.6l1.9,0.7l-1.9,4.6l-0.4,4.6l-12.7,13.4l-4.6,4.3l-0.9-1.6l-1-4.5
	L605,374l0.4-1.6l1.3-1.6l1.7-1.8l0.5-2.8l-0.5-1.7l-0.9-1L605,363H602l-4.4,2.4l-1.9-1.4l-1.9-1.3l-1.6-0.8l-0.4-1.6l-0.3-1.9
	l0.1-2.8l-0.2-2.8v-3.2l1.2-2.2l0.7-2.9l-0.3-2.1l-1.7-1.6l-2.2-1.7l-3.4,0.9l-1.6,0.2L583,338l-1.3-2l-1-2.7l-1.6-3l-2.8-2.1
	l-0.8-1.9l-0.5-1.6l-1.8-1l-1.8-3.5l-1.4-5l-0.7-4.4l1.9-0.2l0.6,2.6l7.7,0.1v1.9l-2.8,0.7l-0.1,3l1.3,0.5v6.5l5.3-0.7l0.4,3.8
	l-0.5,1.1l0.3,1.8l1-0.7l1.1,4.7l4.7-0.7l3.8-1.1l0.8,1.7l-0.3,5l2,0.4v6l1.4,0.9l0.2,2.3l3.6,1.3l7.4,0.7l7.7-0.5l0.4,3.3l3.6-0.3
	l0.8,1.5L623.4,355.9"/>
<path vector-effect="none" class="st2" d="M621.1,395.7l6.7,0.1l3.9-0.9l0.2-3l0.4-7l0.6-2.7l3-4.8l0.9-2.2l13.7,0.5l18.6-9.2
	l-0.7-2.1l-0.5-1.5l0.5-7.8l10.6,0.2l0.1-6.3l5.3,3.2l2.1,3.2l1.4,2.6l2.1,6l-1.6,1.4l4,3.8l-1.2,3.1l-0.6-0.9l-6.5,0.7l-2.1,2.4
	l-0.1,2l-3.2,0.4l-6.3,1.6l-9.9,0.9l-6.8,2.4l-6.2,4.3l-2.4,4l0.6,7.8h-1.5l-6,0.1l-8.2-0.5l-2.6,2l-2.4,2.1l-4,2.4l-2,0.6
	L621.1,395.7"/>
<path vector-effect="none" class="st1" d="M647.4,398l-0.6-7.8l2.4-4l6.2-4.3l6.8-2.4l9.9-0.9l6.3-1.6l3.2-0.4l0.1-2l2.1-2.4
	l6.5-0.7l0.6,0.9l1.5-0.4l4.1-2l1.4,1.6l1,3.5l0.2,5.9l0.4,11.2l0.2,16l0.1,9.8l-21.2-0.3l-0.7-3.4l-10.4-0.6l0.9-6.1l0.7-4.7
	l-0.1-4.4l-6.9,0.4L647.4,398"/>
<path vector-effect="none" class="st1" d="M719.8,342.8v28l10.6,0.3l9.5,0.1l9.5,0.6l-0.3,4.5l-9.4-0.5l0,4.2l0.1,6.7l0,3.9l-21-0.5
	l-0.3,15.5l8.2,0.4l0.6,11.3h6.3l0.1,1.4l-0.4,16.6l-0.1,3.2l-7.6,0.2l-0.1,6.5l-6.2-0.5l-2-2l-5.1,0.1l-5.2-1.6l-3.4,1l-3.8,0.4
	l-0.1-24.7l-0.1-9.8l-0.2-16l-0.4-11.2L699,375l-1-3.5l-1.4-1.6l-4.1,2l-1.5,0.4l1.2-3.1l-4-3.8l1.6-1.4l-2.1-6l-1.4-2.6l4.2-4
	l2.7-0.2l4-1l0.3-2.1l2.8-1l3.3-1.6l3-1.5l6.9-2.8l1,1.9l1.8-0.4H719.8"/>
<path vector-effect="none" class="st1" d="M739.9,390.6l0.2,1.9l-0.6,1.3l0.3,1l0.9,0.9l2-0.3l0.6,1l-0.8,3.1l-0.2,3.1l-1.4,4.1
	l0.6,8.4l-0.5,1.3l-0.4,0.9l-2,0.1v17.8l-5.1,0l0.4-16.6l-0.1-1.4h-6.3l-0.6-11.3l-8.2-0.4l0.3-15.5L739.9,390.6"/>
<path vector-effect="none" class="st0" d="M760.8,395.5l0.1,4.8l18.9-0.4v-3.7l6.3-0.2l0.5,5l-1.4,2.5l-1.7,2.4l-2.4,1.5l-1.5,2V435
	l-20.4,0.1l-20.6,0.1v-17.8l2-0.1l0.4-0.9l0.5-1.3l-0.6-8.4l1.4-4.1l0.2-3.1l0.8-3.1l-0.6-1L760.8,395.5 M773.6,420.7l-0.9-1.3
	l-1.4-1.3l-0.7-0.7l-0.3,1.5l-0.1,2.1l-0.8,1.5l-1.2,1.9l-1.6,1.6l-1.2,1.5l-1.1,2l0.3,1.2l0.8,1.2l1.2,0.4l1.5-0.1h0.6l3.3-2.9
	l2.6-2.1l2.9-0.5l0.2-5.9l-1.5,0.1L773.6,420.7"/>
<path vector-effect="none" class="st1" d="M766.6,341.5l0.8,2.1l-1.3,1.7l-0.5,5.7l0.2,2.5l1.3,1.1l7.7-0.7l0.8-3l-0.4-2.8l2.1-2.7
	l1.6-1.3l0.2-2.5l6.3,1l0.1,11.2l3.2,0.5l0.4-1.5l3.9-0.2l1.9,0.3l0.2-9.1l7.5,0.4l7.2,0.2h3.5l0,5.3l-0.1,18.5l-2.1,1l-1.4,0.3
	l-0.3,7.2l-14.7-0.2v4.5l15.1,0.7l0.1,13.8l-24.1,0.6l-6.3,0.2l-1.4-0.6l-1.1-39.3l-7.9-0.2l-1.4,5l-0.4,4.8l0.1,2.7l0.4,2l0.7,2.3
	l0.3,2.5l-1.2,3.3l-0.8,2.2l0.4,1.9l1,2.5l1,2.7l1,2.2l0.2,4.5l-0.3,1.2l-9.7-0.4l-0.8-7.8l-3.2-0.7l-6.4-0.1l-10.5-0.4l-0.1-6.7
	l15.1,0.8l4.6,0.3V369l-0.5-5.6v-8.8l0.2-5.1l0.3-8.1L766.6,341.5"/>
<path vector-effect="none" class="st2" d="M821.3,313.4l-0.6,31.2l-7-0.2h-3.5l-7.2-0.2l-7.5-0.4l-0.2,9.1l-1.9-0.3l-3.9,0.2
	l-0.4,1.5l-3.2-0.5l-0.1-11.2l-6.3-1l-0.2,2.5l-1.6,1.3l-2.1,2.7l0.4,2.8l-0.8,3l-7.7,0.7l-1.3-1.1l-0.2-2.5l0.5-5.7l1.3-1.7
	l-0.8-2.1l4.6,0.1l2.5-0.7l0.1-5.5l-0.6-1.6l-0.9-1.5l-0.6-2.1l10.6-0.3l0.6-5.8h4.9l0.5-13.6l6.1-0.8l3.2-3.5l2.5-0.1l9.1-2.3
	l12.2-2.7L821.3,313.4"/>
<path vector-effect="none" class="st2" d="M892,313l-1.2,29.4l3.8,0.5l-0.1,20.3l-6.2-0.4l-0.4,7.8l-26.5-0.2l-0.6-15l-20.4,0
	l0.1-8.7l-2.2,0.8l-0.3-3.1l-7.4,0.2h-10.1l0.6-31.2l20.6,0l-0.2-19.5l19.8,0.4l0.5,18.1L892,313 M858.2,334.5l-0.2,8.4l4.7-0.3
	l0.3-7.8L858.2,334.5"/>
<path vector-effect="none" class="st2" d="M622.8,414.3l-0.7,0.8L620,415l-2.3-2.8L617,410l-0.8-1.3l0-1.7l-1.2-1.5l-1.5-1.5l-2,1.6
	l-2.6,1.4l-0.8-0.6l-3.3-4l-3.6-4.6l-0.4-1l-0.5-4.2l-0.4-3.1l-0.5-2.9l1.8-0.3l1.2-0.2l1.1,0.5l0.9,2l0.9,1.6l2.9,1.7l0.7,1.9
	l0.6,2.9l1,2l1.4,2.4l2.2-0.5l1.7-2.4l2.3-5.1l3.3,2.2l-0.3,0.4l-0.2,9l0.4,5l-0.2,3L622.8,414.3"/>
<path vector-effect="none" class="st3" d="M643.8,472.7l0.1,2.5l2.7,0.2v10.1l22,0.4l0.7,31.8l-0.5,14.4l-9.1,0.3l-0.1-33.6
	l-9.4,2.4h-3.8l-0.5,7.4l-25,0.2v-7.8h-5.1l-0.5-10.3l-2.4,0.1v-5.2l1,0.1l7.1,2.1l0.4-15.3L643.8,472.7"/>
<path vector-effect="none" class="st3" d="M600.3,392.5l0.5,4.2l0.4,1l3.6,4.6l3.3,4l0.8,0.6l2.6,4.1l-4.5,6.1l13.7,10.4L619,430
	l-0.2,4.2l0.1,2.6l-10.6,0.5l-0.4,2.2l-11.4,0.7l-0.7,1.9l-1.1,3l-1.4,3.4l-2.6,6.6l-2.1,3.5l-3.4-0.1l-6.6-0.2l-0.7-2.4l0.5-3.5
	l0.8-3.1l5.7-0.1l-0.1-1.9l-1.9-1.3l-2.7-0.5l-2.7,0.2l-1.8-0.8l0.8-2.1l-3.1-2l-2.1,0.5l-3.2-2.4l2.9-4.4l-3.7-2.5l-10.4-0.1v-8.6
	l-5.7-0.5V421l-3.8-0.1l-1-5.4l-1.4-0.4v-1.8l-0.7-3h-3.5l-1.5-1.8l-1.3-1.8l-3.8-5.5l-2.1-2.5l0.2-4.3l-5.2,0.1l-0.4-3.8l2.9,0.5
	l5-0.1l3.2,0.7l10,1.1l9.1,0.4l9.2,0.5l6.8-0.2l11.7-0.2L600.3,392.5 M599.3,424.3l4-5.5l3-12l-6.6,4.5l-4.5,0.7l-0.2,4.3l-13,1.3
	l-0.4,13.8l13.8,0.2L599.3,424.3"/>
<path vector-effect="none" class="st0" d="M660.4,429.3l0.6,6.1l2.5,1.5l6.2,0.7l0.1,0l2.6,0.3l-0.7,9.4l1.7,2.5l1.9,6.7l1.2,3.2
	l1.5,3l5.4,6.1l1.8,2l-0.6,3l-1.2,1.8l-0.8,1.2l6.2,6.4l-4.6,5.6l-1.2,1.5l-7.6-7.6l0.1-5.1l-16.1,1.1h-1.2l0.1-2.7l0.6-15.7
	l-1.7-23.5l-13.2-1.5l-3.8-0.4l-0.6-15.6l12.1,6.3l2.1,0.1l1.5,2.1l2.7,1.5H660.4"/>
<path vector-effect="none" class="st3" d="M563.1,316.2l-0.6,0.3l-3.7,1.6l-0.9-1.9L547,323l-0.1,4l-2.6,0.2l0.4,20.9l5.5,7.3
	L584,355l2.2,0l1.5,11.2l3.5,3.1l3.3,0.7l0.4,10.3l5.6-0.4l-1,6.6l0.5,2.9l0.4,3.1l-16.1,0.9l-11.7,0.2l-6.8,0.2l-9.2-0.5l-9.1-0.4
	l-10-1.1l-3.2-0.7l-5,0.1l-2.9-0.5l0.2-4.6l-7.9,0.7v-5l-4,0.5l-1.7-8.8l-3.8,0.4l-0.5-2.5l-3,0.3l-0.4-3.1l-3,0.5l-5.3-8.8
	l-3.3,1.2l-3.6-5.8l-1.6,0.9l-1.6-3l28.1-16.8l0.5-2l2.7,0.1l1.2-1.4l2.6-1.4l7.8-6l-0.2-2.6l5.5-0.6l0.6,1.5l1.6,0.2l0.2-4.8
	l4.2-0.1l0.5-3l1.5-1.4l0.6-2.9l3.6,0.5l1.1-2.7l3.2,0.1l0.1,5.8l4.7-3.1l0.4-12.8l3.6-2.2l0.4,12.9l2.2-1.2l2,4.6l-0.7,0.7
	L563.1,316.2"/>
<path vector-effect="none" class="st2" d="M275.3,431.8l34.8,9l1-1.9l9.2,2.3l4.1,1.5l-1.1,0.5l-12,6.3l-1.3-2.5l-7.1,3.6l-11.5-4.3
	l-3.6,9.8l-2.5-0.6l-2.1,1l0.2,7l-0.8,0.1l-7.9,0.2l0.7-18.6l7,1.6l1.3-4l-5.1-1.7l-0.7-3.7l-2.5-0.4l-0.4-5.1L275.3,431.8"/>
<path vector-effect="none" class="st2" d="M694.5,610l0.1-14l-5.6-0.6l0.3-4l-8.5,0.1l0-13l20.1-0.2V571l24.8,13.2l0.5,16.6
	l-5.7,0.4l-0.5,8.5L694.5,610"/>
<path vector-effect="none" class="st2" d="M396.4,624.9v4.9v17.7v7.8v19.7l-3.6,0.2l-0.6-8.1l-61.7-0.7v-4.5l12.4-0.2l0.2-5.5
	l-6.6-3.8l-3.9-4.2l-1.7-0.4l-6.8-0.6l-14.4-3.6l-0.8-0.9l1.5-3.7l15,4.5l0.4-16.8l21.3-0.6l13.7,1.2l20.5-1.5L396.4,624.9
	 M348.9,645.8l-0.2,16.6l21.7-0.1l-0.6-16.6L348.9,645.8"/>
<path vector-effect="none" class="st0" d="M760.3,488.1l0.2,10.1l-22.3,0l-0.4-7.5l16.1,0.8l2.3-1.9L760.3,488.1"/>
<path vector-effect="none" class="st0" d="M698,469.4l2.7,1.2l3.8-0.8l5,0.1l1.3,1.6l2.5,1.9l5.2,1.1l6.9,0.8l4.3,1.2l-0.7,0.8
	l-45.8-1.5l1.2-1.8l0.6-3l1.7-2h2.1l-0.2-2.6l6.4,0.6L698,469.4"/>
<path vector-effect="none" class="st0" d="M680.2,459.7l-3.7,0.1l-1.2-3.2l-1.9-6.7l-1.7-2.5l0.7-9.4l-2.6-0.3l4.1,0.1l3.1,2.6
	l2.7,4.3v3.7l-0.1,4l0.6,4.3V459.7"/>
<path vector-effect="none" class="st0" d="M760.3,488.1l-1.3-1.2l-0.4-7.7l-4.6,0.5l-4.5-2.7l-2,0.5h-2l-0.8-2.7l-2.3-1.3l-12-0.4
	l-9.3-0.8l-8.7-3.3l-5.1-1.3l-2.7-0.4h-1.4l-2-2.4l-3-0.7l-6.3-1.2l-5.7-1.2l-1-2.5l-0.6-3.7l1.1-3.7l-0.1-2.9l-0.4-3.3l2.6-2
	l4.4,1.5h3.6l4.6,2l6.1,1.3l2.7,1.2l5.2,2.5l4.9,1.4l7.4,0.7l4.4,1.5l2.9-0.6l5.8-0.2l4.6,1.8l9.9,2l3.5,0.1l-0.2-1.3l-5-1l-1.5-0.8
	l0.6-6.2v-3l-3.5-0.5l-5.6-0.2l-5.5,0.7l-4.3,0.5l-1.8-0.8l-5.1-1.1l0.1-6.5l7.6-0.2l0.1-3.2l5.1,0l20.6-0.1L760.3,488.1"/>
<path vector-effect="none" class="st0" d="M667.8,435.7l1.9,2.1l-6.2-0.7l-2.5-1.5l-0.6-6.1l4,2.6L667.8,435.7"/>
<path vector-effect="none" class="st0" d="M729.9,476.4l4.2,1.3l2.1,1.7l2,1.6l1.6,0.9v1l-1,1.5l-0.5,2v1.6l-0.4,2.6l0.4,7.5
	l-4.9-0.4h-7.9l-6.8-0.5l-7.1,0.2l-7.4,0.4l-4,0.5l0.2-1.2l0.1-4h-2.4l-6.2-0.4l-4.2-1l-3.5-2.8l4.6-5.6l-6.2-6.4l0.8-1.2l45.8,1.5
	L729.9,476.4"/>
<path vector-effect="none" class="st2" d="M658.2,475.9l-0.1,2.7h1.2l16.1-1.1l-0.1,5.1l-0.2,13.2l9.3,0.1l0.4,22.2l-15.4-0.6
	l-0.7-31.8l-22-0.4v-10.1l-2.7-0.2l-0.1-2.5l-0.2-4.2h3.7l0.3-3.2L658.2,475.9"/>
<path vector-effect="none" class="st2" d="M614,485.6l-1-0.1v5.2l2.4-0.1l0.5,10.3h5.1v7.8l25-0.2l0.5-7.4h3.8l9.4-2.4l0.1,33.6
	l9.1-0.3l0.5-14.4l15.4,0.6l1.4,0l-0.6,21.2l-0.2,7.8l-1.2,0.8l-4.3,2.3l-3.6,3.2l-3.3,2.2l-11.6-3.8l-15.3-0.2l0-0.8l-0.1-4.6
	l-12.4,0.2l-0.3-4.6l-12-0.8v-6.6l-15.4-0.4l-0.7-6.6l-3.6,0.1l-0.3-13.8l-2.5-0.5l0.2-20.7l0.8-0.5l6.2-0.9h3.4v-1.1l-0.2-1.6
	l-1-1.2l-1.1-0.8l0.6-2.6l-0.1-1.1L614,485.6"/>
<path vector-effect="none" class="st3" d="M582.1,477L582.1,477l0.7,0.2l7.1,2.1l0.7,4.4l1.3,0.2l0.2,1.5l0.9-0.3l-0.2,1.8l0.9,0.1
	l0.4,1.3l1.6-0.4l-0.1,3.4l3.6,1.6l-0.2,20.7l2.5,0.5l0.3,13.8l3.6-0.1l0.7,6.6l-1.6,0.4l-0.5,2.9l-16-5.1l-5.1,0.2l-0.5-1.3
	l-4.2-0.4l-0.2-27.4l-2.8-0.1l-0.2-2.2l-1.4-0.6l-0.1-2.2l-0.4-4l-0.7-3.9l0.4-4.3l0.3-4.6l4.2-0.5l-0.1-0.7l0.2-4.6L582.1,477"/>
<path vector-effect="none" class="st2" d="M718.9,539.7l0.3,6.6l7.6,0.2v13.2l-7,0.6l0.1,12.3l-25-8.4l-5.1-1.9l-5.2-2l-11.7-4.5
	l3.3-2.2l3.6-3.2l4.3-2.3l1.2-0.8l0.2-7.8L718.9,539.7"/>
<path vector-effect="none" class="st3" d="M689.9,562.2l-1.1,1.7l0.4,10.6l-9.8-0.2l0.1-5.1l1.2-0.2l0.5-7l3.2,1.4l0.4-3.1
	L689.9,562.2"/>
<path vector-effect="none" class="st2" d="M646.1,551l0,0.8l-2.4,1.2l27.7,9.5l-0.7,9.4l-4.3,0.2l-0.1,6.6l0,2l-7.2-0.5l-0.3-19.1
	h-7.5l-20,0.4l-16.1,0.4l-0.5-5.3l-21.6-0.7v3.6l-4.4-0.1l-0.2-12.1l7.9,0.2l0.5,3.6l2,0l2.7-0.1l0.1-8.7l6.4,0.1l13.3,3.4v2.2
	l12,0.5l0.4,2.5L646.1,551"/>
<path vector-effect="none" class="st2" d="M666.3,580.7v25.6l9-0.1l0.1-14.6l5.4-0.1l8.5-0.1l-0.3,4l5.6,0.6l-0.1,14h-19.7H665
	l-9.9-9.4l-32.7-12.2l-0.1-5.4l10.4,0.2l-0.2-1.8h9.3l0.7,9.7l3.8,1.6l1.4-2.4l2.8-2.3l3.6-0.9l1.2-0.9l-0.3-2.1v-1.5l0.9-0.5
	l3.6-0.2l-0.3-1.8L666.3,580.7"/>
<path vector-effect="none" class="st2" d="M770.8,631l-0.3-12.1l-38.5-1.2l-23.2-0.6l-7.5,0.2l-0.7,1.7l-0.5,9.8l1.4,0.9l-0.1,5.8
	l1.2,3l1.1,1l2-0.8l4.6-0.1l4.8-0.1l6.8-0.1l1.6,1.4l5.5,1.2l5.2-1.3l3.6-1.7l3-1.9l3.7-2.9l2.9-3.4l9.9,1l1.5,0.1v11.2l-17.7,0.3
	l-0.9,8.1h-16l-0.4,5l-6.8,6l-3.3-3.3l-10.1-10l-3.2,2.6l-4.4-1.4l-0.7-0.7l-9.8-8.8l4-5.3l-3.4-3.8l-7.4-0.4l1-6.5L665,610h9.8
	h19.7l25.5-0.3l58.2,1l0.7,19.5l-0.5,0.9L770.8,631"/>
<path vector-effect="none" class="st1" d="M701.2,617.4l7.5-0.2l23.2,0.6l38.5,1.2l0.3,12.1l-13.9-0.2l-9.9-1l-2.9,3.4l-3.7,2.9
	l-3,1.9l-3.6,1.7l-5.2,1.3l-5.5-1.2l-1.6-1.4l-6.8,0.1l-4.8,0.1l-4.6,0.1l-2,0.8l-1.1-1l-1.2-3l0.1-5.8l-1.4-0.9l0.5-9.8
	L701.2,617.4"/>
<path vector-effect="none" class="st3" d="M713.4,658.3l-4.7,4.9l-1.9-0.5l-8-4.1l-4.9-5.6l0.8-2.1l0.3-2.2l0.7,0.7l4.4,1.4l3.2-2.6
	L713.4,658.3"/>
<path vector-effect="none" class="st2" d="M741.4,668.3l-3.3,4.8l0.4,0.5l3.8,3l-0.6,1.2l6.2,4.3l1.4-1.8l2.5-0.3l3.2-0.2l3.7,0.2
	l6.6-0.1l0.2-8.4l10.5,0.1l0.3-14.3l14.4,0.2l-0.2,10.6l-4.9,0.1l2,9.2l1-0.2l11.1-6.6l0.2,1.2l-0.3,2.3l1.6,0.3l1.4-0.5l3.9-1.4
	l4.1,0.5l-0.3,19.3l-2.7,0.4l-0.8,11.6H806l-5.5-0.5l-4.7-0.4l-0.9-4.1l-8.8-0.7l-2.3,0.4l-0.1,1.1l1.2,2l3.6,4.8l3.3,3l0.7,2.3
	l-4.6,0.7l-5.1-0.8l-5-1l-3.6-1l-5.7-1.2l-2.7-3l-1.5-1.2l-3.1-2.5l-3.7-2.9l-3.2-3.3l-2.5-3.6l-1.9-2.6l-2.3-2l-1.8-2.1l-3-1.7
	l-1.6-1.2l-2.4-2.8l0.8-1.8l-0.6-1.2l-2.1-0.9l-2.3-0.7l-5.2-1l-2.3-2.1h-7.3l0.2-2.2l-0.1-2.5l1.1-1.6l-4.8-4.7l6.8-6l0.4-5h16
	l0,12.6l-2.1,1.3L741.4,668.3 M772.1,698.4l1.7,1.4h1l2.2-1l3.8-0.3l-0.2-13.1l-2.1,0.5l-3.5,2.2l-6,4.2l0.3,1.6l0.4,1l1.1,2.3
	L772.1,698.4"/>
<path vector-effect="none" class="st1" d="M769,692.5l6-4.2l3.5-2.2l2.1-0.5l0.2,13.1l-3.8,0.3l-2.2,1h-1l-1.7-1.4l-1.3-1l-1.1-2.3
	l-0.4-1L769,692.5"/>
<path vector-effect="none" class="st0" d="M261.1,419l0.6,7.7l-1.1-0.1l-4.8-1.8l-6.8-1.9l-3.2-0.5l-2.8-0.1l-3.1-0.6l-3.4-0.4
	l-2.9-0.5l-4.3-0.1l-4.1-0.4l-4.9-0.8l0.2-9.4l2.4,0.7l3.7-0.1l3.3-0.2l3.1-0.1l3.3-0.1l3-0.3l2.6-0.5l3.1-0.4l3.7,0.5l2.7,0.9
	l1.3,1.3l1.8,2.5l1,2.3l1.8,0.9l2.2,0.4L261.1,419"/>
<path vector-effect="none" class="st2" d="M802.8,753.1l-0.9,0.7l-9.5,0.3l-10.5-0.1l-1.6-0.4l-0.6-1.8l-0.1-1.7l-0.1-2.5l0.3-2.6
	l-0.3-5.2v-2.5l-2.1,0l-2.5-0.2l-3.4-0.2l-1.6-0.1l0.1-1.1l0.1-1.6l0.1-1.5l-0.4-0.3l-1.5-0.6l-0.9-0.8v-0.8l0.8-0.6l0.7-0.7
	l1.3-1.2l1.9-0.6l0.7,0.9l0.8,1l0.8-0.2l0.5-0.6l0.1-0.8l0.5-1.4l2.3,1.9l1.4-0.5l1.9-0.4l2.5-0.1l3.3-0.4l3.4-0.6l2.9-0.1l2.7-0.5
	l3.3-0.2l2.5,0.2l1.6,0.5l0.2,1.9l-1.5,0.8l-1.3,0.2l-1.6,0.4l-0.6,1.1l-0.1,2.7l-0.6,1.8l-1.3,0.2l4.4,7.4l-0.8,0.9l-2,1.5l1.9,2.7
	L802.8,753.1"/>
<path vector-effect="none" class="st2" d="M846.3,750.7l-0.1,6.2l-11.4-0.1l-0.5,21.6l-9.4,0.4l3,3.2l-3,3.1l-3.8-3l-0.3,3.3
	l-5.2-0.1l0.7-9.2l-10.1-10.8l-0.2-11.4l3.4-0.2l-0.4-3.6L846.3,750.7 M817.1,773.2l6.3,0.2l0.4-5.6l8.8-0.4l0.5-10.1l-15.8-0.6
	L817.1,773.2"/>
<path vector-effect="none" class="st3" d="M599.1,551.1l-2,0l-0.5-3.6l-7.9-0.2l0.2,12.1l0.4,2.1h-4.8l-1.5-0.5l-1.4-1.9L580,558
	l-1.1-1.1l-1.5-1.9l-1.3-1.2l-1,1l-0.3,1l7.4,15.6l-11.4-0.3l1.4-3.4l-2.5-0.2l0.1-0.6l1.6-3.3l-0.4-0.6l-9.2-0.1v6.7l5.4,0.3
	l-2.3,3l0.4,0.7l2.9-0.2l-5.2,9.5l-6.1-0.1l-0.2-11.9l-0.2-8.1l2.4-0.5l0.3-4l11.1-8.7l1.7,0.4l1.8-0.5l2.1-2.9l-1-2l-3-1.7l-2,2.3
	l-1,2.4l-1.4,3l-0.9,1h-4.6L558,551v-4.7l2.5,0.2v-4.9l2.2-1.4l1.4-0.6l1.1-0.8l1.7-1.4l2.7-1.7l1.5-0.7l1.3,0.4l1.4,0.7l1.6,0.3
	l0.9-0.5l1.5,0.2l2.4,0.3l2.2-0.1l0.3,1.7l8.9,0.4l0.5,3.7l6.9,0.4L599.1,551.1"/>
<path vector-effect="none" class="st2" d="M601.6,585.8l-10.7,0.1l-6.7,2.2l0.4,10.7l6-1.7l2.1,1.9l3.6-1.1l6.6,12l-24.7,0.1
	l-0.4,1.6l-1.4,0l-5.3-0.1l-0.1-12.1l-3.3-0.2v-1.5l1.9-3.3l-1.8-1l-1.8,2.2l-1.5,0.7h-1.8l-1.5,1.2l-1.7-4.2l0.1-1l1.9-3l-1-1.1
	l-1.9-0.4l-1.8-0.2l-1-1.6l-1-1.7l-0.7-1.5h-1.4l-0.7-0.8v-1l-0.5-0.7h-1.3l-0.4-1.3l1.4-2.4l3.8-5.1l1.9-0.7l0.2,11.9l6.1,0.1h30.8
	l0.2-8.8h1.6l-0.4-4.7l9.2,7.6l-2.4,2.9L601.6,585.8"/>
<path vector-effect="none" class="st1" d="M618.3,610.8l-0.1,4.1l-12.5,0.4l2.5,5.5l0.7,2l1.5,2.8l2.4,2.9l1.5,1.5l-0.7,0.4
	l-12.4,0.1l-0.4-8.2l-22.4-0.7l0.2-8.2l-0.7-1.7l0.4-1.6l24.7-0.1l-6.6-12l-3.6,1.1l-2.1-1.9l-6,1.7l-0.4-10.7l6.7-2.2l10.7-0.1
	l0.1,6.6l1.3,0.4l0.7,6l5.3,0.6l0.8,1.2l4.9-0.1l1,0.9l0.7,1.1l1.3,0.5l1,0.4L618.3,610.8"/>
<path vector-effect="none" class="st1" d="M311,438.9l-1,1.9l-34.8-9l0-1.5l-0.2-8.6l2.5,0.4l3.6,0.2l3.3,0.4l2.2,1l2.6,1.6l1.6,0.8
	l2.2,0.1l8,0.2l-0.1,2.7l11.2,3.8l-0.4,1l-0.8,1.6V438.9"/>
<path vector-effect="none" class="st2" d="M658.8,622.3l0.4,9.8l-1.2,0.1l-6.2,0.3l0.4,8.7v2.6l-0.2,2.9l-0.1,2.5l-1.5,1.1l-2.7,0.7
	h-2.5l-2.5-0.1l-1.1,0.6l-0.9,2.4l-1.5,2.6l-1.7,2.1l-3.2,1.1l-0.7,1l23.5-0.5l1,0.4l1,33.4l-2.4-0.1l-6.3-2.7l-5-2.5l-2-2.6
	l-3.3-3.2l-1.5-2.9l-2.6-0.3l-2.6,1l-3,0.6l-3-0.7h-3.1l-3.3-0.9l-2-0.9l-0.1-2.1l0.5-2.4l0.9-2.2l1.1-3.4l0.5-1.7l1.5-1.7l3.8-0.7
	l1.6-0.1l-0.3-1.9l-0.7,0.2l-1.5,0.6l-2-0.9h-1.4l-2.6-0.7l-1.4-2.5l-2.6-2.1l-4.5-1.1l-1.7-0.5l-0.4-5.5l-0.1-1.1l1.6-1.5l2.2-3.7
	l1.1-3.5L614,639l-0.5,0.1l-3,0.4l-1.6-1.4l-3.6-0.2l-3.7,0.4l-0.5,4.1l-3.2,0.5v13.3l-6.3,0.1l-0.4-3.4l-1.4-0.5l-3.2-0.3l-2.1-3.1
	l-1.6-3.6l-1.1-5l-0.2-2.6l3,0.4h3.1v-6.1l-0.5-0.6l-2.6-0.3l-3.5,0.4l-2.5,1.2l-1.4,1.4l-21.7,0.1l-1.5-4.3l-3.6-0.1l0.4-3.3
	l24.5,0.4l1.1-1.2l0-14.1l1.4,0l0.7,1.7l-0.2,8.2l22.4,0.7l0.4,8.2l12.4-0.1l0.7-0.4l-1.5-1.5l-2.4-2.9l-1.5-2.8l-0.7-2l-2.5-5.5
	l12.5-0.4l0.1-4.1l6.1,0.5l2.1-0.7l0.2-16.1l2.4,1.6l2.7,0.5l2,1.4v2.1l1.4,1.1l2,1.7l0.5,2l0.3,2.1l4.6,0.4l-0.1,7.8l3.8,0.2h3.7
	l3.8-0.4l2-1.4l2.5-1.1L658.8,622.3"/>
<path vector-effect="none" class="st2" d="M658.8,693.9l-1-33.4l-0.3-21l0.9-0.6l0.1,14.2l27.4-0.4l12.9,13.4l-0.2,22.1l-16.9,0.9v4
	l18.5-0.1l-0.2,18.9l-14.5,0.2l0.1,6.8l-6.2,0.2l-0.3-6.3l-0.9-0.5l-0.5-11.7l-11.3-2.5L658.8,693.9"/>
<path vector-effect="none" class="st2" d="M700.1,712l0.2-18.9l18.9,0.5l0.9-0.9l4-0.3l2.1,3.3l1,1.4l0.9-0.8l1-3.3l3-1.1l0.2-4.5
	l5.6-0.3l3.9-1.4l4.4,3.7l3,3.2l2.4,3.6l3.1,4.8l-4.9,3.8l-3.2-1l-3.5-0.5l-3.6,0.5l-0.9-0.6v-1.8l-0.7-1.1l-1.6,1.1l-1.4,0.4
	l-0.2-1.2l-4.9,2.3l-3.5,2.4l-2.2,2.2l-0.8,3.7L700.1,712"/>
<path vector-effect="none" class="st2" d="M416,526.4l-1.8,13.1l-0.7,4.8l-1.3,0.3l-1.8,0.3l-1.4,0.1l-0.8,1l-0.7,0.8l-1.4-0.2
	l-0.7-1.1l-0.4-1.5l-0.5,0.2l-0.8,0.3l-0.8-0.3L401,543l-1.5-0.1l-1.3,0.1l-0.8,0.1l0.3-1.3l-0.1-1.6h-1.6l-2.2,0.3l-3.5-1.5
	l-1.4,0.3l-1.4,0.2l-1.3-1.9l-1-1.9l-0.3-2.1l0.4-1.6l-0.8-1l12.1-25.1l18.2-0.4l0.4,0.7l-3.6,19.6l3.9-0.2L416,526.4"/>
<path vector-effect="none" class="st3" d="M416,526.4l-0.7-0.7l-3.9,0.2l3.6-19.6l-0.4-0.7l-18.2,0.4l1.3-2.5l5.3-13.3l-0.1-6.6
	l12.1-0.6l0.2-10.7l2.4-0.9l0.7-7l0.8-3.4l1-3l1-1.3l1.8,1.8l0.7,1.6l1.2,0.2l2.4,0.2l0.6-1.8l-1.2-0.8l-2.5-0.3l0.3-1.6l2.1-0.4
	l1.6,0.7h1.1l-0.2-4l3.9-0.6v-2.6l0.4-4.2l-0.4-2.8l2.7-0.6l1.4,0.1l1.4-1.1l2.7-0.3l3.4,0.6l1,1.7l3.3,0.7h2.6l0.1,1.9l0.5,2.6
	l2.6,2.5l2.5,2.9l2.1,2.7l2.7,3.4l-3.1,2.6l-0.7,1.2l1.1,2.7l1.8,2.5l0.5,1.4l-2.5,0.4l-4.1,0.3l-0.6-0.6l-0.4-3.5h-2.7l-2-0.3
	L447,465l-1.3-0.7H444l-1.1,1.3l-1.7,0.2l-0.4,5.6l0.2,5.2l0.1,4.9l1.3,1.3l1.5,2.3l0.6,1.9l2.4,2l2.1,0.4l-0.8,1.4l-5.9,0.6
	l-0.3,2.4l-4.3,0.2l-1,0.6l-1,0.6l-3.2,1.3l-1.1,1.7l-0.6,2.7l-0.7,1.4l-9.2-0.4l-1.1,6.2l11.2,0.5l0.2,1.6l0.4,2.6l-4,0.5l-1.5,2.1
	l-2.7,2.1l-1.9,2l-2.8,1.8l-2.2,0.7l-0.9,1.3L416,526.4"/>
<path vector-effect="none" class="st3" d="M395.4,466.3l-3.6,5.5l-4,1.7l-6.6,1l-4.5-0.6l-1-0.7l-3.5-3.1l-3.5,0.3l-0.4,5.1
	l-0.5,0.6l-5.1,1.9l-7.1,6.2l-0.2,3.1l-20,17.2l-9.2,0.4l-0.3,7.2l-3.7,3.1l-3.9,0.2l-0.2,3.1l-3.5,3.9h-9.1l-1.5,0.6l0.2,10.1
	l-17.1,17.7l-1.9,1.8l-1-0.2l-0.5-2.3l0.4-2.5l2-2.2l-0.2-2.5l-0.9,0.8l-11.3,8.3l0.2,11.3l-12.4,0.1l-3.3,3.4l8.3,0.3l0.2,1.9h-2.1
	l-0.8,1.9l-2.7,0.3v1.5l-9.2-0.1l-2.6-0.2l0.4-21.5l20.3,0.5l6.3-5.9l13.7-11.1l-1.1-1.8l1.2,0.1l10.7-0.4l-0.1-11.4l3-2.1l10.5-0.1
	l0.7-8.1h4.9v-2.4l4.1-0.6v-6.7l5.3-0.1l1.4-0.9l0.5-2.9l4.2,0.1l3.3,0.5l4-3.5l7.8-7.2l4.7-3.9l0-10.9l5.9-0.1l2.3-2.5l4-4l5.9-0.1
	l5,4.4l5.1-0.3l3-0.1l3.7-0.5l1.6-3.2L395.4,466.3"/>
<path vector-effect="none" class="st1" d="M275.1,421.6l0.2,8.6l-2.7-0.4l-0.4,1.6l-11.2-3.1l-0.3-1.7l1.1,0.1l-0.6-7.7l3.3,0.9
	l1.9,0.1l2.8,0.9l3.7,0.8L275.1,421.6"/>
<path vector-effect="none" class="st2" d="M275.2,430.2l0,1.5l-0.2-0.1l0.4,5.1l-3.7-1l0.1,1.5l-3.7-1.6l-3.6-1.3l-3.7,0.2l-0.1-1.9
	l-5.9,0.3l-0.1,4.8l6.1,0.1l5.6,1.3l0.3,4.2l6.3,0.8l2.5,1l-0.7,18.6l-11.3-0.2l-10.6-0.2l-3.4-0.1l0.1-3.1l0.4-13.2l0.4-12.1
	l0.1-2.7l0.7-1.3l9.5-0.5l0-1l0-1l11.2,3.1l0.4-1.6L275.2,430.2"/>
<path vector-effect="none" class="st3" d="M263.5,463.5l-0.3,7.5l-2.2,1.4l0.6,2.4l-9.8,5l1.1-16.5L263.5,463.5"/>
<path vector-effect="none" class="st1" d="M250.1,446.9l-0.4,13.2l-21.3-0.3v-14.6l9.2,0.1l0.9,2.5l1.4-1l1.6-1.3l1.9-0.5l3.1,0.3
	L250.1,446.9"/>
<path vector-effect="none" class="st3" d="M354.8,447.1l-2.2,0.7l-6.8,2.4l-5,1.5l-2.6,0.1l-3.7-0.2l-0.2-3.6l-10.9-3.9l-0.2-0.8
	l1.1-0.5l5.8-2.9l1.7,2.8l1.1,0.2l1.9,0.6h2.3l1.4,0.2l2-0.6l1.3,0.2l1.2-0.2l2.8-1.2l0.2-6.6l1.3-1.3l0.6,0.2l0.8,8.4l2.5-1.3
	l-0.5-9l2.8-2.2l1,0.5l-0.1,4.3l1.1,0.6l2.2,0.2l5.4-0.4l-0.2-4.8l5.1-1.6l0.4,4.2l4.9-2.2l0.7,0.3l1.2,0.8l1.2,0.2l1.4-0.2l0.3,0.7
	l1.4-0.5l1.6,0.6l0.7,1l2.2-0.7l2.2,0.1l3.4-2l2.6-0.7l2.7-2.7l0.3-1.2l-1.9-1.5l-1.5-3.4l5-16.8l8.1,2.8l0.4,1l-2.1,6.3l0.7,0.4
	l1.4,0.1l1.1,0.1l0.9,0.6l1.4,0.4l1.2,1.4l-7.1,5.8l0.7,1.3l0.5,1.4l0.7,4.5l0.5,2.1l0.7-0.3l1.8-0.9l1.6-2l6.6,3.9l2.3-0.3l3.1-1.9
	l2.9-2.3l1.7,1.6l-1.7,3.6l1.8,0.4l0.3,1l0.5,2.8l0.2,2.1l-3,0.7v6.7l-1.4,2l-2.5,1.5l-2.5,0.8l-1-0.7l-1-0.7l-3.4,2l0.7,1.5
	l-0.2,0.9l-1.4,0.6l-1,0.7l-1-0.6l-0.9-0.6l-8.6,4.8l-1.3-2.7l-3.5-4.5l-1.1-2.4l1.8-5.7l-7.5-0.8l-3.2,1.8l-3.9,0.1l-0.1-2.8
	l-8,2.1l0.3-8.6l-14.3,5.6l-0.6,3.4L354.8,447.1"/>
<path vector-effect="none" class="st3" d="M515.9,391.3l-43.4,6.5l-0.6-0.2l-0.7-2.8l-2,0.1l-0.7-5.7l-8.5,0.7l-0.4-3.5l-3.7-5.7
	l-8.3,5.8l-2.9-2.3l2.5-2.4l-2.2-3.5l25.3-15.6l2.4,3.9l13.8-8.5l3.7,6.3l2.5-0.4l4.7,7.5l2.5-0.5l2.2,4.6l3.6-0.3l1,3.7h1.2
	l1.3,4.4l1.2-0.1l1.2,5.1l3.8-0.4L515.9,391.3"/>
<path vector-effect="none" class="st3" d="M491.9,448.9l1.7,2l1.6-1.2l9.7,9.1l0.8-0.4l1.9-1.6v-2.5l1.9-0.2l2,0.1l2.2,0.7h1.4
	l2.1-0.6l2.6-0.9l2.5-0.4l5.2-1.1l2.7-0.6l0.9,0.5l1.7,1l1.2,1l0.4,1.4l1.3,1.2l1.2-0.8l1.9,0.2l0.5,1.5l0.2,5.7l-0.4,8l0.9,0.4
	l1.9-0.1l1.5,0.6l0.5,4.4l-1.3,0.2l-3,0.1l-0.5,1.9l-3.3,0.1l-0.4,1.2l-1.1,1.7l-1.7,0.3l0.2-8.2l-1.2-0.2l-4.9-0.2l-0.7-7.6
	l-4.6,0.4l-1.7-0.7l-0.7-4.2l-1.6-0.7l-1.4-0.8l-0.9-0.7l-2.3,0.4v2.4l0.6,7.4l-0.1,4.6l3.1-0.4l2.3,2.3l1.4,1.4l-0.4,1.5l0.9,1.8
	h4.1l0.9,2l1.3,2.6l2.9,0.6l3,0.6l1.3,2.8l4.7,4l3.9-4.2l8.6,4.6l1.5-0.7l6,2.9l0.2,6h6.5l0.4,12.3l-7.2-0.1l2.6,8.6l-3.2,7l6.3,6.1
	l-8.4,7.4l-0.5,7.2l-3.3,0.3l-1.7,1.2l0.6,4.4l-1.5,2.1l0.4,7.2l-6.3,0.3l-1.2,3.7h-8l-0.3-4.4l-0.3-0.6l6.4,0.3l-0.7-7.2l6.1-0.2
	l-0.3-4.8l-13-0.1l-0.1-7.8l3.9-0.8l3-2.8l7.1-0.3l-0.3-16.3l-7.4,0.1l-0.4-9.6l-4.7,0.2l-0.1-4.7l-5.1-0.3l0.1,12.7l-5.5-0.1
	l0.3,9.7l1.2,0.6l-0.5,4l-2.4,0.1l0.1,3.3l3.9-0.1l0.7,3.5l0.8,20.4l-4.4,0.2l-0.4-0.7l0.1-3.9l-0.4-5.2l-0.2-2.2l0.1-5.2l-0.8-2
	h-6.1l-0.2-3.2l-2-0.4l-0.6-6.5l-2.2-0.4l-0.6-4.2l0.6-3.2l-0.1-2.5l-1.2-0.9h-2l-3.1,1.1l-0.5-0.9l-1.4-1.2l-2.5-0.1l-2.1-0.9
	l-1.2-1l-1.1,1.4l-0.9-0.4l-1.4-0.4L491,521l-0.3-1.5l-0.6-0.6l-1.8-0.4l-0.1-5.3l5.7-0.5l0.2-1.4l-0.9-1.8l0.8-1.6l-3.3-5.3
	l-12.2,0.3l-0.5-7.1h1l11.7,0.2l3.7,5.6l2.1-1.1l1.3,0.1l0.6,1.1l4.7,0.3v9.7l8.4-0.6l-0.1,4l4.5-0.5l0.2-7.9l0.6-0.7l4.2-0.4
	l0.4-1.7h1.9l1.8,0.4l1.7,1.1l1.1-0.9l1.6-0.6l2.2,2l2.6,1.6l4.2,1.8l2.8,1.3l1.5,1.2l1.2,1.4l1.9-0.4l0.2-1.8l0.2-2.2l0.1-6.1
	l-0.4-0.7l-3.7,0.2l-7.4-0.1H532l-2.1-1.6l-1.5-1.8l-3.3-2.6l-3.7,3.5l-1.7,0.1l-3.3,0.7l-1.1,1.1l-1.6,1.2l-3.2,0.7l-2.2-0.4
	l-2.3-2.4l0.1-5.2l-0.7-1.2l-1.5-1.2l-1.4-1.1l-1.1-1.1l1.4-1.4l-0.2-1.1l-0.9-0.2l-1.4-0.9l-1.8-1.7l1.2-1.3l-6.4,0.3l-0.4-3.5
	l0.6-0.3l5.8,0.3l0.5-0.9l-0.3-7.1h1l0.1-1.5l-0.7-2.1l-2.1-2.8l2.4-1.9l-1.8-1.3l-3-2.5l-3.2-3.5l-3.9-2.2V449l1.3-0.1l1.2-1.1
	L491.9,448.9"/>
<path vector-effect="none" class="st2" d="M492.9,524.9l0.2,4.7l4.3,0.1l4,1.6l3.3,1.4l0.6,1.2v2.3v3.5l0.7,2.4l1.5,3l-0.2,2.5
	l-0.7,0.2l-1.1-1.1l-1.3,1.2l-12.2-0.3l-4.8-0.3l-3.7-1l-4.3,0.2l-1.9-0.6l0.1-20.9L492.9,524.9"/>
<path vector-effect="none" class="st2" d="M416,526.4l2-0.3l7.4,0.3l7,0.4l4.2-0.3l2.2-0.4l4.2-0.4l0.1,3.6l-0.8,1.8l0.4,2.4
	l-0.3,2.3l-2.2-0.3l-1.9-1l1.7,3.8l0.3,1.6l-5.3-2.2l-0.2,5.7l-1,0.9l-2.8,0.1l-2-0.9l-0.4-1.6l-1.2,0.1l-0.9,0.8l-1.3,0.2l0.3,5.3
	l-0.6,2.2l-1.7-0.2L421,550l-0.3-0.7l-0.2-10.1l-6.2,0.4L416,526.4"/>
<path vector-effect="none" class="st2" d="M396.4,505.9L384.3,531l-1.6-1l-1.9,0.7l-0.4,2.7h-1.9l-2.5-1.9l-2-1.4l-1.9-1.6l-0.7-2.2
	l-0.3-1.6l-3.5-2.2l-2.5-1.6l-1.7-0.8l-0.4,0.7l-0.7,6.5l-6.3,0.1l0.4-7.5l-11.1-5.7l2.9-4.2l0.5-1.2l0.2-1.5l0.6-2.3l0.7-0.7
	l5.1-0.1l42.5-0.6L396.4,505.9"/>
<path vector-effect="none" class="st2" d="M397.7,503.4l-42.5,0.6l-0.1-8.2l3.1,0.1l-0.2-8.7l14.7-8.9l4.3-0.6l5.3-0.3l3.5-0.7
	l3.9-1l5.2-2.2l1.6-1.3l3.3-1.7l5.2-0.5l4.6-0.3l0.2-4.7l2.6-2.4l0.7,1l1,1.4l1.3-0.3l1.3-0.6l1.5,0.2l-0.7,7l-2.4,0.9l-0.2,10.7
	l-12.1,0.6l0.1,6.6L397.7,503.4"/>
<path vector-effect="none" class="st2" d="M287.9,496.5l-0.1,5.1l-7.2,3.5l0.5,1.7l-0.1,0.8l-6.6,0.2l-0.1,1.7l-1.4,0.1l-14.2,5.5
	l-0.5,0.4l-0.1,2l-4.4,0.3l-0.1-6.7l7.8-3.3l0.4-0.7l-2.3-5.1l-15.2,5.9l-0.4,7l6.4-2.3l0.4,0.3l-0.1,13.9l-4.3,0.2l0.2-6.5
	l-17.2,7.6l0.1-3.6l6-2.6l0.1-10.4l1.8,0.1l-0.1-6.6l6.9,0.1l0.3-0.7l0.4-8.6l21.1,4.4l0.7-14.6h8.1l0.1-3.6H288L287.9,496.5"/>
<path vector-effect="none" class="st2" d="M229.4,528.1l-0.2,6.2l-2.5,0.3l0.3,18.1l13.4,0.4l0.5-1.6l1.1-1.1l0.2-4.3l1.6-1.9
	l5.2-0.1l0.3-9.2l3.3-0.2l19.3,0.5l2-0.1l-0.1,7.4l2.3,3.3l-6.3,5.9l-20.3-0.5l-0.4,21.5l2.6,0.2l-0.2,13.1l22,0.6l-0.2,5.8l-24-0.8
	l-0.3-2.4l-6.7,5.6l-0.4-4.2l-14-0.2l-0.2-5.3l-6.3-0.4l0.2-13.7l0.7-44.5l7.1-1.9L229.4,528.1"/>
<path vector-effect="none" class="st3" d="M471.9,397.6l0.6,0.2l43.4-6.5l2.9,0.1l0.3,3.1l3.8,0.1l0.1,3.1l3.6,0.7l1.8,2.5l2.6,3.3
	l1.9,3l-0.1,2.3l3.4-0.2l0.2,0.8l0.2,4h3.2l0.4,4.1l-5,0.2l-0.2,13.9l9.9-0.1V423l3.3,0.1l0.1,3.2l2.8,0.2l-0.4,5.1l0.4,0.4l2,0.4
	l0.2,4.9l-2.1,0.2l-0.8-0.9l-5.2-0.1v-3l-3.2,0.1l-0.4,6.7l-0.2,0.7l-3.3,1.6l-2.6,1.3l-4.6-0.3l-0.1,1.1l-1,0.5l-1-0.4l-1.5-1.1
	l-6,5.5l-2.5-0.4l-2.2-0.4l-3.4,0.2l-0.8-1.3l-4.4,0.2l-0.9-1.3l-0.4-7.8l-3.1-1.1l-0.7,2.6l-1.7-0.2l1.4-7.8l-7.2-2l-0.3,0.4
	l-1.6,4.1l-0.9-0.3l-1,0.2l-2.9-1l-1.5,1.3l-6.9-7.8l-0.2-0.9l-1.3-0.4l-1,0.2l-15.2-4.8l2.5-9.5l-3.9-7.2l-1.1-3.4l0.5-0.8l7.1-0.6
	l1.3,1.5l0.7,0.9l0.6,1l1-0.2l0.9-0.8l-0.3-1L471.9,397.6"/>
<path vector-effect="none" class="st3" d="M539.6,463l-0.2-5.7l-0.5-1.5l-1.9-0.2l-1.2,0.8l-1.3-1.2l-0.4-1.4l-1.2-1l-1.7-1
	l-0.9-0.5l3.4-3.4l3.3,1.8l2.5-3.4l2.8-2.1l9.2-0.2l12.4,0.1l0.3,2.8l3.1,0.1v4.3l2.3,0.4l-0.4,18.5l-7.9-4.8l0.2,6.9l4.5,1.3
	l0.3,7.8l-5.1,0.4l-0.3,4.8l-2.2-0.2l-0.2-14.2L556,472v-3.5l-10.1-0.1l-0.7-5.3L539.6,463"/>
<path vector-effect="none" class="st2" d="M400.4,460.3l0.8,2.5l-0.7,1.7l-2,1.1l-1,0.7h-2l-4.1-0.2l-1.6,3.2l-3.7,0.5l-3,0.1
	l-5.1,0.3l-5-4.4l-5.9,0.1l-4,4l-2.3,2.5l-5.9,0.1l0-25.4l4-1.3l0.6-3.4l14.3-5.6l-0.3,8.6l8-2.1l0.1,2.8l3.9-0.1l3.2-1.8l7.5,0.8
	l-1.8,5.7l1.1,2.4l3.5,4.5L400.4,460.3"/>
<path vector-effect="none" class="st2" d="M354.8,447.1l0,25.4l0,10.9l-4.7,3.9l-7.8,7.2l-4,3.5l-3.3-0.5l-4.2-0.1l-0.5,2.9l-24-7.6
	l-0.7,4.4l-9.6,0.5l-8.2,4.2l0.1-5.1l5-2.8l0.4-31L289,463l13.2-8l7,4.8l3.8,1.4l2.1-0.4l0.5,2.4l22.2,0.1v-4.3l-3.8-0.6l0.2-3.2
	l-0.7-0.5l-5.5,1.8l-1-2.6l-13.7,1.7l-2-6l12-6.3l0.2,0.8l10.9,3.9l0.2,3.6l3.7,0.2l2.6-0.1l5-1.5l6.8-2.4L354.8,447.1"/>
<path vector-effect="none" class="st2" d="M330.4,500.2l-1.4,0.9l-5.3,0.1v6.7l-4.1,0.6v2.4h-4.9l-0.7,8.1l-10.5,0.1l-3,2.1
	l0.1,11.4l-10.7,0.4l-1.2-0.1l1.1,1.8l-13.7,11.1l-2.3-3.3l0.1-7.4l-2,0.1v-13.7l0.3-0.4h1.6h18.5l0.6-4.9l4.9-0.3l-0.3-2.9l0.5-1.8
	l5.5-4.9l1.2-2.1l0.6-3.4l0.3-4l0.7-4.4L330.4,500.2"/>
<path vector-effect="none" class="st1" d="M273.9,521.1h-1.6l-0.3,0.4v13.7l-19.3-0.5l1.1-16.8l4.4-0.3l0.1-2l0.5-0.4l14.2-5.5
	l1.4-0.1L273.9,521.1"/>
<path vector-effect="none" class="st1" d="M253.8,517.9l-1.1,16.8l-3.3,0.2L249,544l-5.2,0.1l-1.6,1.9l-0.2,4.3l-1.1,1.1l-0.5,1.6
	l-13.4-0.4l-0.3-18.1l2.5-0.3l0.2-6.2l17.2-7.6l-0.2,6.5l4.3-0.2l0.1-13.9l-0.4-0.3l-6.4,2.3l0.4-7l15.2-5.9l2.3,5.1l-0.4,0.7
	l-7.8,3.3L253.8,517.9"/>
<path vector-effect="none" class="st3" d="M273.5,592.4l0.4,6.9h-2.1l-0.4,2.2l-0.9,2l-1.4,0.5l-7.1-0.3l0.2,4.7l2.7,0.6l-2.2,2.9
	l-32.8-0.7v-5.5l12.4-11l6.7-5.6l0.3,2.4L273.5,592.4"/>
<path vector-effect="none" class="st1" d="M348.9,645.8l21-0.1l0.6,16.6l-21.7,0.1L348.9,645.8"/>
<path vector-effect="none" class="st1" d="M210.4,419l5.6,0.4l-0.2,2.8l8.3,0.5l0.5,8.4l9.3,0.1l0.5-7.6l10.9,1l15.5,4.6l0,1
	l-9.5,0.5l-0.7,1.3l-0.1,2.7l-26.9-1.1l-18.8-0.1l-17.7-0.7l-0.1-7.1h-4.5l-0.9,6.5l-14.6,0.1l-21.7,9.2l-0.7-1.2l1.2-1.2l1.8-0.3
	l1.4-0.5l1.6-1.4l2.2-0.3l2.1-1.8l2.3,0.3l-0.4-5.3l0.9-0.8l2,0.3l0.3-1.1l1.8-0.4l0.2-2.6l4.9-0.8v-3.5l23.9-1.6l0.7-1.1l2.9-0.3
	l-0.1,1.5h7l0.5-1.3L210.4,419"/>
<path vector-effect="none" class="st0" d="M210.4,419l-8.7-0.6l-0.5,1.3h-7l0.1-1.5l-2.9,0.3l-0.4-4.3l1.3-3.4l4.4-0.5l3.2-0.1
	l3.4-0.1l7.5-0.1L210.4,419"/>
<path vector-effect="none" class="st0" d="M191.4,418.5l-0.7,1.1l-23.9,1.6v3.5l-4.9,0.8l-0.2,2.6l-1.8,0.4l-0.3,1.1l-2-0.3
	l-0.9,0.8l0.4,5.3l-2.3-0.3l-2.1,1.8l-2.2,0.3l-1.6,1.4l-1.4,0.5l-1.8,0.3l-1.2,1.2l-2.5-1.4l-2.5-4.6l-1.1-2.7l-0.4-1.6h0.5
	l1.3,0.4l-0.1-0.9l-0.5-1.6l-0.3-1.2l-0.8-0.7l-1.2,0.2l-0.5,0.8l-1,0.4l-5.6-7.2l-0.5-1.3l2.8,2.1l2.6,0.4l3.4,0.6l2.8-0.6l1.6,0.3
	l2.9,0.5l3-0.1l5.4-2.5l6.5-2.6l5.1-1.7l4.5-0.5l2.2-0.4l4.9-2.5l4.5-1.1l2.9,0.4l2.2,0.2l5.5-0.7l-1.3,3.4L191.4,418.5"/>
<path vector-effect="none" class="st2" d="M250.5,434.8l-0.4,12.1l-3.7-1.6l-3.1-0.3l-1.9,0.5l-1.6,1.3l-1.4,1l-0.9-2.5l-9.2-0.1
	v14.6l21.3,0.3l-0.1,3.1l-3.3-0.1l-20-0.5l-0.5,1.9l-13.3-0.2l-10.4-0.1l-6.3,0.8l-4.5-0.1l-1.8-1.9l0.3-17.5l-15.4-0.8l-0.2,8.7
	l-0.4,0.7l-7.8,0.1l-2.7-2.9l0.3-5.3l-1.3-0.9l-0.7,1l0.4,7.5l-3-1.2l-3.4,1.9l-3.6,2.1l-2.6-2.7l-1.2,2.8h-0.9l-3.2-8.8l-1.9-5.4
	l3.1-0.8l21.7-9.2l14.6-0.1l0.9-6.5h4.5l0.1,7.1l17.7,0.7l18.8,0.1L250.5,434.8 M220.6,446.7l-24.4-0.6l0.4,12.3l1.6-1.5l0.7,4.1
	l21.9-0.2L220.6,446.7"/>
<path vector-effect="none" class="st2" d="M246.2,463.1l-1,18H233l-2.1,1.3l-5.6-0.1l0.5-17.8l0.5-1.9L246.2,463.1"/>
<path vector-effect="none" class="st1" d="M207.7,482.3h7.5v4.5l-0.2,1.1l-1.5-1l-2.8-0.4l-2.6,0.4l-0.6,1.3l1,1.2l4.1,2.8l0.1,1.4
	l7.7,3.7l-0.1,6.1l-7.1,6.6l1,2l1.5,2.2l0.4,3.4l-1,6.9l-8.7,2.3l-1-2.3l-1.3-2.4l-1.7-2.9l-2.1-3l-1.3-1.6l0.5-2.8l1.8,0.2l0.5,1.9
	l0.9,1.8l1.5,2.6l0.4,0.2l3.9-2.4l-0.5-1.1l-0.7-1.4l0.1-6.2l-2.7-0.4l-2.1-2.1l-0.7-2l-0.7-2.7l-0.3-1.6l-0.3-1.5l-1.7-0.2
	l-7.7-0.3l0.2-8.9l11.1-0.3l0.8-2.8l4.5,0.4L207.7,482.3"/>
<path vector-effect="none" class="st2" d="M207.9,529.9l-3.7,1l-0.4-3.1l2.6-0.9l8.7-2.3l1-6.9l-0.4-3.4l-1.5-2.2l-1-2l7.1-6.6
	l0.1-6.1l-7.7-3.7l-0.1-1.4l-4.1-2.8l-1-1.2l0.6-1.3l2.6-0.4l2.8,0.4l1.5,1l0.2-1.1v-4.5h10.1l5.6,0.1l2.1-1.3h12.3l0.8,0.4v2
	l-4.8,0.7l-6.6,10.9l-4.5-0.1l-0.4,6l-1.3-0.1l-10.4,8.6l2.2,11.8l-0.4,5.4L207.9,529.9"/>
<path vector-effect="none" class="st0" d="M195.7,468.2l4.8,0.1l-0.9,13.9l-11.1,0.4l-0.6,5.1l-9.7,0.1l-1,1.9l-4.1-1.7l-9.7-0.2
	l-0.4-3.9l-0.6-2.5l-0.1-3.9l3.8-12.9l17.6,0.4l5.1,1l-0.3,10.9h6.9L195.7,468.2"/>
<path vector-effect="none" class="st0" d="M207.7,482.3l0.2,2.6l-4.5-0.4l-0.8,2.8l-11.1,0.3l-0.2,8.9l7.7,0.3l1.7,0.2l0.3,1.5
	l0.3,1.6l0.7,2.7l0.7,2l2.1,2.1l2.7,0.4l-0.1,6.2l0.7,1.4l0.5,1.1l-3.9,2.4l-0.4-0.2l-1.5-2.6l-0.9-1.8l-0.5-1.9l-1.8-0.2l0.1-4.6
	l-1.2-1.6l-0.6,0.6l-7.6,0.2l-1.2,2.1l-9.1-0.4l-0.2-0.7l0.9-2.7l0.5-7l0.1-1.1l-0.3-2.4l-1.2-1.7l-1.5-1.6l-1-1.4l1-1.9l9.7-0.1
	l0.6-5.1l11.1-0.4L207.7,482.3"/>
<path vector-effect="none" class="st0" d="M189.1,508.6l-1.1,23.7l-4,0.4l-4.6,2h-1.1l-0.6-3.4l-1.4-0.4l-0.9,0.9l-0.2,3.1l-4.6-0.6
	l-2,8.4l2.5,0.2l-0.3,4.7l-1.6,5.5l-1.6-0.6l-3.9,16.2l-4.4,0.3v-2.2l-0.6-5.2l-0.7-5.9l-0.8-3.6v-4.4l0.6-1.7l0.4-3.4l3.3-1.3v-0.6
	l-5.9-0.8l1.2-1.6l1.6-0.8l1.6-2.2l2,0.6l-0.1-4.5l2.9-1.9l4.1-2.7l2.5-3.3l0.6-2.4V511l-2.8-3.9l1.3-3.1l5.1-3.1l0.6-1.9l4.9-1.2
	l-0.5,7l-0.9,2.7l0.2,0.7L189.1,508.6"/>
<path vector-effect="none" class="st1" d="M192.8,550l-0.7,13.7l-4.9-0.1l-3.2,2.7v8l-2.3,2.9l-6.8,0.3v5.7l-3.5,0.2l-0.1,6l-1,0.7
	l-17.5-0.9l0.5-7.6l0.5-1.9l-1.2-3.6l0.7-1.8l5.3,0.1l0.7-5.4l4.4-0.3l3.9-16.2l1.6,0.6l1.6-5.5l2.8,1.1l4.9,1.1L192.8,550"/>
<path vector-effect="none" class="st2" d="M146.4,625.3l-4.3,0l-28.2,0.1l0.1-11.2l5.3-0.1l0.1,2.9l5.2,0.2V609l6.1-0.4l1.1-5.2
	l6.3-0.1h0.2l0.7-20.1l1.2-0.4v-11.9h1.7l1.7-0.7l1.9-0.6l2.2-1.2l2-1.1l0.6-0.2l0.1,8.4l0.2,1.9l2.5,4.3l-0.5,7.6l17.5,0.9l1-0.7
	l0.1-6l3.5-0.2v-5.7l6.8-0.3l2.3-2.9v-8l3.2-2.7l4.9,0.1l0.7-13.7l0.3-8.8l4.1-0.3l0.1-1.9l7-0.2l0-8l3.7-1l-0.6,12.2l-6-0.3
	l-0.4,2.2l-3.7-0.5l-0.7,23.2h-8.3l0.2,9.8l-7.9,6.6l0.6,4.8l-15,22.2l-0.7,0.6l-3.5,2.2l-2.7,2.9l-1.6,2.1l-2.7,7.2L146.4,625.3"/>
<path vector-effect="none" class="st2" d="M144.2,447.8l-3.5-0.9l-3.3,12.5l-3-0.1l0.2-5.3l-4.9-0.2l-0.4,5.7l-3.6,0.4l0.2,3.2h-7.5
	l-2.3-4.7l-0.4-14l8.5,0.5l-0.1,4.4l-6.8,2.9l-0.3,1.2l2.4,5.3l4.9-2.4l0.3-3.1l5.8-2.2l1,0.7l5.2-3.4l-1.3-3.1l7-2.7L144.2,447.8"
	/>
<path vector-effect="none" class="st1" d="M142.2,442.5l-7,2.7l-11.1-0.3l-8.5-0.5l0.4,14l2.3,4.7h7.5l-0.2-3.2l3.6-0.4l0.4-5.7
	l4.9,0.2l-0.2,5.3l3,0.1l2.2,4.7l3.2,1.7l6.1-1.1l2.3,0.1l-0.6,4l-17.1-0.7l-7.3-0.2l-4.5-0.6l-2.9-0.9l-3.1-1.2l-2.3-2.3l-0.6-0.6
	l-1.4-1.5l0.6-3.9l0.4-2.7l-0.7-2l-0.2-2.4l0.2-2.3l0.7-1.4l1.4-1l1-0.7l0.4-2l-0.5-2.7l1.6-0.9l1.5,1.4l2.9,0.3l2.6-0.1l9.9-1.2
	l-0.4-1.6l-1.9-4.5l-0.5-3l0.5-1.6l2.5,2.7l2.5,4.3l2.4,3.6l2.3,0.7l1.2,1.2L142.2,442.5"/>
<path vector-effect="none" class="st0" d="M113.2,462.7l-17.1,10.1l-7.2,4.3l-2.7,0.1l-1.5-6l-2-9.6l-13.9,0.3L68.7,451l6.1-0.5
	l4,0.6l7.8,2.2l1.6-0.6l2-0.8l18.1-5l4-1l-0.7,1.4l-0.2,2.3l0.2,2.4l0.7,2l-0.4,2.7l-0.6,3.9l1.4,1.5L113.2,462.7"/>
<path vector-effect="none" class="st0" d="M130.8,428.3l-0.5,1.6l0.5,3l1.9,4.5l0.4,1.6l-9.9,1.2l-2.6,0.1l-2.9-0.3l-1.5-1.4
	l-1.6,0.9l0.5,2.7l-0.4,2l-1,0.7l-1.4,1l-4,1l-18.1,5l-2,0.8l-1.6,0.6l-7.8-2.2l-4-0.6l-6.1,0.5L56,450.9l0.4-4.8l4,0.5l2.4-0.6
	l3.8,0.2h2.5l2-1.1l4.8-0.9l7-1.9l6.5-1.5l10.9-3l24-11.5l-0.1-1.1l-0.2-1.8l1.2-0.3l0.4,1.2l1.1,0.2l1.9,0.6L130.8,428.3"/>
<path vector-effect="none" class="st0" d="M115.5,465.1l3.1,1.2l2.9,0.9l4.5,0.6l7.3,0.2l17.1,0.7l0.6-4l0.4-0.7h1.2l1.9,0.8
	l2.6,1.9l-3.7,8.4l-0.1,3.7l-4.5-0.4l-0.3-5.2l-14.1-0.4l-2.6,7.2l-0.7,0.1l-2.9-0.1l-4.7,16.4l-7.6,2L115.5,465.1"/>
<path vector-effect="none" class="st1" d="M115.5,465.1l0.4,33.4l-7.7,3.4l-12.9,5.7l-0.3,0.1l1.1-34.8l17.1-10.1L115.5,465.1"/>
<path vector-effect="none" class="st1" d="M153.4,478.9l0.6,2.2l-0.9,1.1l-2.1-0.5l-2.4-0.9l-4-0.6h-1.1l-2.7,1.2l-1.1,0.6l-2.1,0.2
	l-1.4,0.3l-1.4,0.7l-2.2,2l-1.4,1.9l-0.2,2.2l0.6,1.1l0.4,1.6l0.6,1.7l1.8,1.5l1.5,0.9l-1.4,0.9l-6.1-1.8l-4.9,1.3l4.7-16.4l2.9,0.1
	l0.7-0.1l2.6-7.2l14.1,0.4l0.3,5.2L153.4,478.9"/>
<path vector-effect="none" class="st1" d="M143.4,515.5l0,1.6h-18.9l0.7,10.9l-13.3,0.1l-3.9,0l0.1-12.2l0.1-14l7.7-3.4l7.6-2
	l4.9-1.3l-1,2.4l2.9,1.8l1.4,0.1l-1.1,1.9l0.1,1.5l3.4-0.5l2.8-0.5l-0.1-1.2l1-1.5l1.1,0.2l1.3,0.9l0.5,1.3l1.4,0.5l1.6,0.1
	L143.4,515.5"/>
<path vector-effect="none" class="st0" d="M125.2,527.9l-0.7-10.9h18.9l0-1.6l4.7,0.2l0.1,11.5l-2,0.3l-2.2,0.2l-1.8,0.8l-2,0.6
	l-2.7,0.7l-2.5,0.5l-9,0.4L125.2,527.9"/>
<path vector-effect="none" class="st1" d="M111.8,528.1l13.3-0.1l0.9,2.7l9-0.4l2.5-0.5l2.7-0.7l2-0.6l1.8-0.8l2.2-0.2l2-0.3
	l-0.3,1.7l-10.1,4.2l-1.7,6.8l-2.5-0.1l-2.7-4.6l-2-0.1l-3.2,2.6l-6.4,3.6l-13,5l-1.1,1.7l-2.1,1.8l-1.5,2l1.3,1.5l-0.1,2.1
	l-0.1,1.7l-1.4,0.5l-3,0.2l-0.2,3.5l-6.4-0.1l-0.4-4.9l-2.9,3.1l-7.6,2.7l-5.5,1.8l-5.2,3.2l-2.7,2l-0.2,14.1l-14.2,0.2l-0.5-9.2
	l12.2-6.6l10.1-6.9l2.1-0.4l6.1-2.6l0.5-12.3l9.2-0.1l-0.1,4.4l1.8,1.1l9.2-5.5l0.7-6.8l7.4,0.5L111.8,528.1"/>
<path vector-effect="none" class="st0" d="M82.3,576.6l0.8,1.2l2-0.3l0.2-2.1l0.7-0.7l1-0.4l3.9-0.1l1.4-1l1.4-1.3l1.8-1.8l1.7-0.7
	h0.6v14.9l-31-1.1l0.2-14.1l2.7-2l5.2-3.2l5.5-1.8l7.6-2.7l2.9-3.1l0.4,4.9l6.4,0.1v4.7l-3.5,0.7l-0.9,0.4l-1.3,2.7l-7.9,0.2
	l-0.9,0.8l-0.4,1.9l-0.7,1.2L82.3,576.6"/>
<path vector-effect="none" class="st2" d="M78.8,749.7l3.5-1.9l2.5-1.3l4-2.6l2.3-1l9.6-0.3l0.1-2.5l5.3-0.7l0.9,0.4h11.2v3.8h-13.9
	l-0.1,1.5L98,745l-0.4,9.3L84.4,754l-0.2,2.3l3.4,0.5l0.2,1.9l0.7,0.7l3.3,0.1l3.7,2.5l6.9,0.4l-0.5,8.9l-6.6-0.3l-0.4-1l-0.7-3.3
	l-1.5-2.9l-1.4-1.2l-1.1-1.1l-3.7-0.2l-0.7-0.7l-0.4-1.8l-1.9-1.3l-1.1-0.5l-0.7-2.1l-0.8-2.2L78.8,749.7"/>
<path vector-effect="none" class="st1" d="M101.8,771.4l0.5-8.9l-6.9-0.4l-3.7-2.5l-3.3-0.1l-0.7-0.7l-0.2-1.9l-3.4-0.5l0.2-2.3
	l13.2,0.4L98,745l6.3-0.1l0.1-1.5h13.9l-0.4,3.3l-2.5-0.3l-0.7,8l-10.7,0.2l0.3,4.4l6.6,0.4l-0.4,7l6,0.5l-0.3,4.2L101.8,771.4"/>
<path vector-effect="none" class="st2" d="M95.2,771.1l6.6,0.3l14.4-0.1l0.3-4.2l0.4-3l2.8,0.2l-0.9,10.7l0.3,1.3l8.7,0.5l-0.3,7.7
	l-7.6,0.5l-0.2,4.1l-1,0.4l-1.4-1.4l-1.7-0.7l0.2,2.4l-0.9,1.1l-5.1,4.2l-3.6-2.2l-8.2-0.4l-1.3-0.2l-5.1-5.4l0.1-1.4l1.7-4.5
	l0.9-1.2l1.3-1.3l-0.2-2.2l-0.4-2.2l-0.4-1L95.2,771.1"/>
<path vector-effect="none" class="st1" d="M80.8,790.8l-5.7-0.4l0.6-6l2.7-0.2l0.1-7.2h1.7l0.1-2.5l-8.1-0.2l0.9-18.2l4.3-2.4
	l0.3,3.1l-0.5,2.6l1,1.6l2.5,1.7l3.1,1l2.8-0.1l-0.7,4.8l0.2,1.4l1.6,1.6l-0.4,0.6l-6.9,12.4l-0.1,0.2l0.1,3.9l0.1,0.1l0.1,1.1
	L80.8,790.8"/>
<path vector-effect="none" class="st2" d="M73.1,755.9l-0.9,18.2l8.1,0.2l-0.1,2.5h-1.7l-0.1,7.2l-2.7,0.2l-0.6,6l5.7,0.4l5.4,12.1
	l-0.2,0.4h-18l-12.2-26l-8.7-0.2l1-21.6L73.1,755.9"/>
<path vector-effect="none" class="st2" d="M176,791.4l-9-0.1l-3.3-22.4l6.1-7.4h13l-1.9,2.4l19.6,16.4l-12,14.2l-8.8-6.6v0.1
	l-1.3,1.4L176,791.4"/>
<path vector-effect="none" class="st2" d="M264.9,753.8v3.1l-13.2,0.3l-0.5-32.1l19.9-8.3l-0.1,13.6l23,0.8l-0.7,22.8H269
	L264.9,753.8"/>
<path vector-effect="none" class="st0" d="M293.7,695.5l-0.4,0.4l-1.4,1.1l-1.7-1l-0.7-0.2l-1.1-0.4l-3.4,1.2h-1.6l0.1-1.5l1.1-3.3
	l0.8-1.4l3.2-1.4l2.9-1.4l-0.1-1.6l-0.5-1.2l2.9-1.6l1.6,2.3l2.2,0.6l3.4-0.3l0.1,1.9l-1,1.5l-3.3,3L293.7,695.5"/>
<path vector-effect="none" class="st2" d="M289.5,695.8l0.7,0.2l1.7,1l1.4-1.1l0.4-0.4l2.2,2.2l9.4-10.4l-1.2-1.1l0.4-0.9l3.4-3
	l4.8,4.5l0.3,4.1l3.5,0.3l0.2,17.4l-25.4-0.3l-0.7-9.7l-0.9-0.7l-1.2-0.9L289.5,695.8"/>
<path vector-effect="none" class="st1" d="M321.1,664.5l1.8,0.1l-0.6,11.3l-9.3,10.9l-4.8-4.5l-3.4,3l-0.4,0.9l1.2,1.1l-9.4,10.4
	l-2.2-2.2l3.1-3.2l3.3-3l1-1.5l-0.1-1.9l-3.4,0.3l-2.2-0.6l-1.6-2.3l0.4-6.8l1-0.1h2.2l5.3-2.3l-0.3-10.4L321.1,664.5"/>
<path vector-effect="none" class="st0" d="M321.1,664.5l-18.7-0.7l-2-0.2l-0.1-1.1l0.7-9.9l1.2-1.1l2.7-1.2l3-0.1l0.3-4.2l6.7,1.6
	l5.9,1.5l1.4,0.1l2.9,0.1l3.6,0.9l2.4,1.7l0.8,1.1l-0.1,1.3L321.1,664.5"/>
<path vector-effect="none" class="st1" d="M322.2,675.8l0.6-11.3l-1.8-0.1l10.8-10.4l0.1-1.3l-0.8-1.1l-2.4-1.7l-3.6-0.9l-2.9-0.1
	l-1.4-0.1l-5.9-1.5l-6.7-1.6l0.7-1.9l0.7-0.6l14.4,3.6l6.8,0.6l1.7,0.4l3.9,4.2l6.6,3.8l-0.2,5.5l-12.4,0.2v4.5l61.7,0.7l0.6,8.1
	l-24.5,0.4l-0.6,22.8l0.1,0.6l2.9,0.1l-0.1,7.7l-4,0.1l0.1-6l-18.6-0.3l0.1,2.4l-24.3-0.1l-0.4-9.5l-1.5-0.3L322.2,675.8"/>
<path vector-effect="none" class="st0" d="M366.6,706.7l-8.3-0.8l-2.3,2.4l-5.5,2.7l-3,1l-1.7,1.2l-0.2,7.9h-22.2l0.3-18.3l24.3,0.1
	l-0.1-2.4l18.6,0.3L366.6,706.7"/>
<path vector-effect="none" class="st2" d="M393.5,726.1l-1,6.4l29.8,0.1l0.5,11.1l-38.1,0.6l-0.6-0.3l1.3-4.3l-17.3-0.2l1.1-18.8
	l0.4-1.5l1.5-0.9h1.7l6-0.3l2-0.2l1.5-1v-1.2l-0.5-1.1l-1.8-0.5l-2.5,0.9l-1.8-0.7l-0.4-1.1l-0.1-1.6l-0.1-2l-2.3-0.1l-1.6,0.1h-0.9
	l0.2-3l0.1-7.7l-2.9-0.1l-0.1-0.6l0.6-22.8l24.5-0.4l3.6-0.2l0.3,30.2L393.5,726.1"/>
<path vector-effect="none" class="st2" d="M405,631.9l6.6,0.4l9.6-0.1l5,0.1l3.5-0.3l18.8,0.4v2.5l0.5,2.9l-8.8,0.1v1.3l0.2,4.7
	l-3.4-0.1l2.7,10.5l9.3,2.6l0.4,31.9l-23.7,1.3l-8.7,11.7l6-0.2l-7.9,14.8l-7.5,0.2L407,717l-0.6,0.8l-6.3,0.4l-0.4,1.6l-0.7,0.1
	l-0.9,0.5l-0.2,1.4l-0.9,0.5l-0.1,1.7l-1.9,1.3l-1.5,0.8l3.1-21l-0.3-30.2v-19.7l21.4-0.6l-1.4,5.2l0.8,2.8l1.8,2.1l-0.4,4.3
	l2.4-0.3l1,1.6l0.4,7.1l19.2-0.7l-9.9-35.1l-0.8,0.9l-2.9-0.1l-2.2,0.8l-2.9,0.2l-1.3,3.7l-25.1,0.3v-17.7l7.5,0.4L405,631.9"/>
<path vector-effect="none" class="st1" d="M448.4,632.4l-18.8-0.4l-3.5,0.3l-5-0.1l-9.6,0.1l-6.6-0.4l-1.1-1.8l-7.5-0.4v-4.9
	l8.5,0.7l6.4,0.7l16.5-0.1l20.8-1L448.4,632.4"/>
<path vector-effect="none" class="st1" d="M380.1,559.4l0.1,14l-10.7,0.3l-0.4,2.7l-19.4-0.1l-0.6,0l-0.1-10.1l13.5,0.2l-0.1-17.4
	l0.7-1.5l3.2,1.2l1.7,0.1l1.4-0.6l1.3-1l1.2-0.7h9.9l0.4,10l-2.3,0.1L380.1,559.4"/>
<path vector-effect="none" class="st2" d="M443.4,610.9l-0.1-2l1.5-1.5V581l-1.5-1.1l-0.1-6.8l-19.7,0.5l-2-0.7l-4.6,3.6l3.8,3.7
	l0.1,6.6l-14.3,0.4l-3.2,0.1l-0.1-1.2l-43.9-0.1l-0.1-6.2l-10,0.1l0.4-3.6l19.4,0.1l0.4-2.7l10.7-0.3l-0.1-14l18.1,0.3l1.2-4.4
	l-1.9-0.6l1.3-4.2l8.6,4.3l3.4,2.1l1.5,0.8l1.3,1.3l0.2,2l0.6,0.5l9.2,0.1l0.3-3.3l6.8-1l-0.2-4.5l0.6-3.1l9.1-1.8l2.6,0.8l1.3,3.7
	l2.7,2.3l2.8,1.9l4.2,7.2l-5.6,17.1l-0.3,23.7l6.3,4.4l-3.5,5.3l-3.7-2l-0.1,6.7h-3.4L443.4,610.9"/>
<path vector-effect="none" class="st1" d="M421.5,572.9l2,0.7l19.7-0.5l0.1,6.8l1.5,1.1v26.4l-1.5,1.5l0.1,2l-17.3,1.5l-1.1-1.8
	l-8.6-0.2l-0.8-5.6l-13-0.6l0.6-4.1l19.9,0.5l0.3-9.2h-9.4l-1.1,3.3l-8.7-0.2l2.5-7.3l14.3-0.4l-0.1-6.6l-3.8-3.7L421.5,572.9
	 M428,586.5l0.2,19.7l11.2,1.3l-0.2-1.8l1-2l-0.2-16.8L428,586.5"/>
<path vector-effect="none" class="st0" d="M428,586.5l12,0.4l0.2,16.8l-1,2l0.2,1.8l-11.2-1.3L428,586.5"/>
<path vector-effect="none" class="st2" d="M406.5,587.1l-2.5,7.3l-2.5-0.1l-1.7,5.2l3.3,0.6l-0.6,4.1l13,0.6l0.8,5.6l8.6,0.2
	l1.1,1.8l17.3-1.5l0.1,8l-15.9,0.6l-1.9-4.7l-8.4,0.1l-0.4,4.4l-19.3-0.1l-0.3-4.9l-50.3,0.6v-3.8l11.7-0.7V594v-6.5l0.6-1.6
	l43.9,0.1l0.1,1.2L406.5,587.1 M390.5,590l-17.6-0.4l-0.2,4.3l13.6,0.2L390.5,590"/>
<path vector-effect="none" class="st2" d="M358.8,594v16.5l-11.7,0.7l-0.3-9l-13.3,0.3v-7.6l11.6,0.3l1.3-1.4L358.8,594"/>
<path vector-effect="none" class="st1" d="M758.6,679.9l-3.7-0.2l-3.2,0.2l-2.5,0.3l-1.4,1.8l-6.2-4.3l0.6-1.2l-3.8-3l-0.4-0.5
	l3.3-4.8l-3.7-3.8l2.1-1.3l0-12.6l18.6,0L758.6,679.9"/>
</svg>
