<?xml version="1.0" encoding="utf-8"?>
<!-- Generator: Adobe Illustrator 20.0.0, SVG Export Plug-In . SVG Version: 6.00 Build 0)  -->
<svg version="1.1" id="Layer_1" xmlns="http://www.w3.org/2000/svg" xmlns:xlink="http://www.w3.org/1999/xlink" x="0px" y="0px"
	 viewBox="0 0 260 260" style="enable-background:new 0 0 260 260;" xml:space="preserve">
<style type="text/css">
	.st0{clip-path:url(#SVGID_2_);}
	.st1{fill:none;stroke:#BB60A5;stroke-width:3;stroke-linecap:round;stroke-linejoin:round;}
	.st2{fill:none;stroke:#FFCE06;stroke-width:3;stroke-linecap:round;stroke-linejoin:round;}
	.st3{fill:none;stroke:#F37874;stroke-width:3;stroke-linecap:round;stroke-linejoin:round;}
	.st4{fill:none;stroke:#036B38;stroke-width:3;stroke-linecap:round;stroke-linejoin:round;}
	.st5{fill:none;stroke:#B5D334;stroke-width:3;stroke-linecap:round;stroke-linejoin:round;}
	.st6{fill:none;stroke:#CECAC9;stroke-width:3;stroke-linecap:round;stroke-linejoin:round;}
	.st7{fill:none;stroke:#46B649;stroke-width:3;stroke-linecap:round;stroke-linejoin:round;}
	.st8{fill:#F37874;}
	.st9{fill:#036B38;}
	.st10{fill:#46B649;}
	.st11{fill:#FFFFFF;}
	.st12{font-family:'Arial-BoldMT';}
	.st13{font-size:5.7319px;}
	.st14{font-size:5.7309px;}
	.st15{font-size:5.7312px;}
	.st16{fill:none;stroke:#58595B;stroke-width:3;stroke-miterlimit:10;}
	.st17{fill:#FFFFFF;stroke:#F37874;stroke-width:3;stroke-linecap:round;stroke-linejoin:round;}
</style>
<g>
	<defs>
		<rect id="SVGID_1_" width="260" height="260"/>
	</defs>
	<clipPath id="SVGID_2_">
		<use xlink:href="#SVGID_1_"  style="overflow:visible;"/>
	</clipPath>
	<g id="NEW_INBOUND::PURPLE" class="st0">
		<path class="st1" d="M24.8,183.9C15.9,175,7,166.2-1.9,157.3c-1.6-1.6-3.2-2.2-5.5-2.2c-12.8,0-40.2,0-38.7,0
			c-1.5,0-2.6-0.5-3.7-1.5C-91.4,112-132.9,70.5-174.5,28.9c-4.2-4.2-8.4-8.4-12.6-12.6c-2.1-2.1-4.2-4.2-6.3-6.3
			c-2.9-2.9-4.3-2.6-8-2.6c-15.2,0-5.8,0-13.2,0c-2,0-65.1,0-67.1,0c-1.4,0-2.8,0.2-4.2-0.1c-1.4-0.3-2.2-1.1-3.2-2.1
			c-3.9-3.8-7.8-7.7-18.1-17.9s-13.2-13-19.9-19.5c-6.7-6.5-41.3-40.4-62.2-61"/>
		<g>
			<path class="st1" d="M320.6,96.3c0-1.8,0-3.6,0-5.4c0-0.6-0.1-1.2-0.2-1.8c-0.2-0.6-0.4-1.1-0.7-1.6c-1.1-1.8-2.7-3-4.1-4.4
				c-3.5-3.5-7-7-10.6-10.6c-7-7-14.1-14.1-21.2-21.2C269.7,37.2,255.6,23,241.5,8.9c-1.1-1.1-2.1-1.5-3.7-1.5c-11.4,0-20.7,0-30,0
				c-2.3-0.1-4.5,0.2-6.6-1.3c-0.6-0.4-4.3-4.2-4.9-4.7c-1.6-1.6-3.2-3.2-4.8-4.8c-1.1-1.1-45.3-45.3-72.2-72.2"/>
		</g>
	</g>
	<g id="NEW_INBOUND::YELLOW" class="st0">
		<path class="st2" d="M-247,10.1c149.8,0,299.7,0,449.5,0c1.9,0,3.2,0.6,4.6,1.9c24.4,24.4,48.8,48.8,73.2,73.2
			c1.3,1.3,2.7,1.9,4.6,1.9c8.5,0,17,0,25.4,0c4.3,0,7.7,3.5,7.7,7.7c0,1.2,0,2.4,0,3.7c0,1.5,0.5,2.6,1.5,3.7c2,2,4,4,5.9,5.9"/>
	</g>
	<g id="NEW_INBOUND::PINK" class="st0">
		<path class="st3" d="M-472.3,518.7c0-1.5,0.5-2.6,1.5-3.7c79.2-79.2,158.5-158.4,237.7-237.7c1.1-1.1,2.1-1.5,3.7-1.5
			c55.2,0,110.4,0,165.5,0c1.5,0,2.6-0.5,3.7-1.5c27.6-27.6,55.3-55.3,83-82.9c1.1-1.1,2.1-1.5,3.7-1.5c3.2,0,6.3,0,9.4,0"/>
		<path class="st3" d="M135.1,194.3c0,7.6,0,15.2,0,22.8c0,1.5-0.5,2.6-1.5,3.7c-11.2,11.2-22.3,22.3-33.5,33.5
			c-1.1,1.1-2.1,1.5-3.7,1.5c-9.8,0-19.5,0-29.2,0c-2.9,0-5.1-2.3-5.1-5.1c0-4.7,0-9.4,0-14.2"/>
		<line class="st3" x1="242.6" y1="189.9" x2="158.4" y2="189.9"/>
		<line class="st3" x1="153.2" y1="189.9" x2="200.5" y2="189.9"/>
		<polyline class="st3" points="153.2,189.9 33.1,189.9 24.5,189.9 		"/>
	</g>
	<g id="NEW_INBOUND::DARK_GREEN" class="st0">
		<path class="st4" d="M80.1,151.9c0-2.9-2.3-5.1-5.1-5.1"/>
		<line class="st4" x1="80.1" y1="169.7" x2="80.1" y2="151.9"/>
		<path class="st4" d="M85.3,174.8c-2.9,0-5.1-2.3-5.1-5.1"/>
		<path class="st4" d="M307.1,134c-13.3,0-26.7,0-40,0c-1.5,0-2.6,0.5-3.7,1.5c-12.6,12.6-25.2,25.2-37.8,37.8
			c-1.1,1.1-2.1,1.5-3.7,1.5c-45.6,0-91.1,0-136.7,0"/>
		<path class="st4" d="M75,146.8c-30.5,0-56.9,0-79.2,0c-4.1,0-8.3,0-12.4,0c-2.6,0-5-1-6.7-2.8c-11.7-11.7-23.4-23.4-35-35"/>
	</g>
	<g id="NEW_INBOUND::GRASS" class="st0">
		<path class="st5" d="M22.7,185.8c1.1,1.1,2.1,1.5,3.7,1.5c42.3,0,84.6,0,126.8,0c29.6,0,59.2,0,88.8,0c1.5,0,2.6-0.5,3.7-1.5
			c5.9-5.9,11.9-11.9,17.8-17.8c1.1-1.1,2.1-1.5,3.7-1.5c18.1,0,36.2,0,54.4,0c1.5,0,2.6-0.5,3.7-1.5c8.4-8.4,16.8-16.8,25.2-25.2"
			/>
		<path class="st5" d="M-47,157.6c13.1,0,26.3,0,39.4,0c1.5,0,2.6,0.5,3.7,1.5c8.9,8.9,17.8,17.8,26.6,26.6"/>
		<path class="st5" d="M-126.1,125.4c16,16,31.9,31.9,47.9,47.9c1.1,1.1,2.1,1.5,3.7,1.5c28,0,56.1,0,84.1,0c1.5,0,2.6,0.5,3.7,1.5
			c2.6,2.6,5.2,5.3,7.8,7.8"/>
	</g>
	<g id="NEW_INBOUND::GRAY" class="st0">
		<path class="st6" d="M201.8,12.7c-28.7,0-57.5,0-86.2,0c-7.8,0-15.6-0.1-23.4,0c-0.3,0-0.6,0-1,0.2c-0.8,0.2-1.3,0.6-1.8,1.1
			c-1.3,1.4-1,2.8-1,4.4c0,3.9,0,7.8,0,11.8c0,3.6,0,7.2,0,10.8c0,1.9,0,3.8,0,5.8c0,1.4-0.2,2.6-1,3.8c-0.8,1.3-6.6,6.8-7.7,7.8
			c-2.7,2.7-5.4,5.4-8.1,8.1C51.3,86.9,31,107.2,10.7,127.4c-3.1,3.1-6.2,6.2-9.4,9.4c-0.9,0.9-3.4,3.5-4.4,4.4
			c-0.3,0.2-0.6,0.4-1,0.4h-0.1c-4.2,0.1-8.3,0.1-12.5,0c-0.4,0-0.8-0.1-1.2-0.2c-0.4-0.1-0.8-0.3-1.1-0.5c-0.2-0.1-0.3-0.2-0.5-0.3
			c-0.1-0.1-0.2-0.1-0.2-0.2c-1.6-1.5-3.1-3.1-4.6-4.6c-10.1-10.1-20.3-20.3-30.4-30.4"/>
		<path class="st6" d="M203.9,14.8v78.6c0,1-0.3,1.9-0.7,2.6c-12.3,12.3-24.6,24.6-36.9,36.9c-6.1,6.1-12.3,12.3-18.4,18.4
			c-3.1,3.1-6.1,6.1-9.2,9.2c-1.1,1.1-2.2,2.2-3.3,3.3c-2.1,2.1-2,5.4,0.1,7.5"/>
	</g>
	<g id="NEW_INBOUND::GREEN" class="st0">
		<path class="st7" d="M89,52.8c-17.8,17.8-34,34-51.9,51.9"/>
		<path class="st7" d="M153.1,68.8c19.2,0,38.5,0,57.7,0c1.2,0,2.2-0.3,3.1-1.1c0.2-0.2,0.3-0.3,0.5-0.4c0,0,0.1-0.1,0.2-0.2l0,0
			c1-1,1.3-2.1,1.3-3.5c0-1.9,0-3.9,0-5.8c0-3.5,2.9-6.4,6.4-6.4"/>
		<path class="st7" d="M310.3,89.7c-8.5,0-17,0-25.4,0c-2.6,0-4.5-0.8-6.4-2.6c-11.3-11.3-22.6-22.6-33.8-33.8
			c-1.3-1.3-2.7-1.9-4.6-1.9c-49.2,0-98.3,0-147.5,0"/>
		<path class="st7" d="M149.4,70.2c1.1-1.1,2.1-1.5,3.7-1.5"/>
		<path class="st7" d="M81.7,145.6c2,2,5.3,2,7.3,0c13-13,26.1-26.1,39.1-39.1c6.5-6.5,13-13,19.5-19.6c3.3-3.3,6.5-6.5,9.8-9.8
			c1.6-1.6,3.3-3.3,4.9-4.9c1.6-1.6,2.8-3.5,5.6-3.5"/>
		<path class="st7" d="M81.7,145.6c-2.1-2.1-2.2-5.4-0.1-7.5c1.1-1.1,2.2-2.2,3.3-3.3c3.1-3.1,6.1-6.1,9.2-9.2
			c6.1-6.1,12.3-12.3,18.4-18.4c12.3-12.3,24.6-24.6,36.9-36.9"/>
		<path class="st7" d="M89,52.8c1.1-1.1,2.1-1.5,3.7-1.5"/>
	</g>
	<g id="NEW_INBOUND::PINK::BUS_BORDERS_x5F_pink" class="st0">
		
			<rect x="-6.2" y="216.3" transform="matrix(0.7071 -0.7071 0.7071 0.7071 -155.8228 64.0964)" class="st8" width="11.3" height="7.7"/>
		
			<rect x="122.9" y="227.4" transform="matrix(0.7072 -0.707 0.707 0.7072 -125.8577 158.5926)" class="st8" width="11.3" height="7.7"/>
		
			<rect x="112.5" y="237.8" transform="matrix(0.7072 -0.707 0.707 0.7072 -136.2373 154.2855)" class="st8" width="11.3" height="7.7"/>
	</g>
	<g id="NEW_INBOUND::DARK_GREEN::BUS_BORDERS_x5F_dark_green" class="st0">
		<rect x="2.6" y="139.1" class="st9" width="11.4" height="7.7"/>
	</g>
	<g id="NEW_INBOUND::GREEN::BUS_BORDERS_x5F_green" class="st0">
		
			<rect x="142.2" y="88.3" transform="matrix(0.707 -0.7073 0.7073 0.707 -21.8725 131.5547)" class="st10" width="11.3" height="7.7"/>
		
			<rect x="78.1" y="59.7" transform="matrix(0.7071 -0.7071 0.7071 0.7071 -20.377 77.8072)" class="st10" width="11.3" height="7.7"/>
		<polygon class="st10" points="153.3,86.7 150.4,86.7 153.3,89.7 		"/>
		<polygon class="st10" points="134.9,90.3 134.9,87.3 137.9,90.3 		"/>
		
			<rect x="134.7" y="80.9" transform="matrix(0.7071 -0.7071 0.7071 0.7071 -18.8573 124.0658)" class="st10" width="11.3" height="7.7"/>
		
			<rect x="124.3" y="91.4" transform="matrix(0.7071 -0.7071 0.7071 0.7071 -29.2609 119.7585)" class="st10" width="11.3" height="7.7"/>
	</g>
	<g id="TEXT::BUS_NUMBERS" class="st0">
		<g>
			<g>
				<text transform="matrix(0.7073 -0.707 0.707 0.7073 127.4085 235.8162)" class="st11 st12 st13">32</text>
			</g>
		</g>
		<g>
			<g>
				<text transform="matrix(0.7073 -0.707 0.707 0.7073 118.7781 244.4484)" class="st11 st12 st13">8</text>
			</g>
		</g>
		<g>
			<g>
				<text transform="matrix(0.7071 -0.7071 0.7071 0.7071 -2.0452 224.3058)" class="st11 st12 st14">111</text>
			</g>
		</g>
		<g>
			<g>
				<text transform="matrix(1 0 0 1 4.7241 145.3291)" class="st11 st12 st15">46</text>
			</g>
		</g>
		<g>
			<g>
				<text transform="matrix(0.7071 -0.7071 0.7071 0.7071 129.0928 98.7611)" class="st11 st12 st14">48</text>
			</g>
		</g>
		<g>
			<g>
				<text transform="matrix(0.7071 -0.7071 0.7071 0.7071 138.3749 90.1972)" class="st11 st12 st14">48B</text>
			</g>
		</g>
		<g>
			<g>
				<text transform="matrix(0.707 -0.7072 0.7072 0.707 145.997 97.4896)" class="st11 st12 st14">48B</text>
			</g>
		</g>
		<g>
			<g>
				<text transform="matrix(0.7071 -0.7071 0.7071 0.7071 81.5826 68.3943)" class="st11 st12 st14">48A</text>
			</g>
		</g>
	</g>
	<g class="st0">
		<path class="st11" d="M26.2,180.8c-0.8,0-1.4,0.6-1.4,1.4v8.6c0,0.8,0.6,1.4,1.4,1.4h3.4c0.8,0,1.4-0.6,1.4-1.4v-8.6
			c0-0.8-0.6-1.4-1.4-1.4H26.2z"/>
		<path class="st16" d="M26.2,180.8c-0.8,0-1.4,0.6-1.4,1.4v8.6c0,0.8,0.6,1.4,1.4,1.4h3.4c0.8,0,1.4-0.6,1.4-1.4v-8.6
			c0-0.8-0.6-1.4-1.4-1.4H26.2z"/>
	</g>
	<g class="st0">
		<path class="st11" d="M93.5,54.2c0.5-0.5,0.5-1.4,0-1.9l-5.7-5.7c-0.5-0.5-1.4-0.5-1.9,0l-2,2c-0.5,0.5-0.5,1.4,0,1.9l5.7,5.7
			c0.5,0.5,1.4,0.5,1.9,0L93.5,54.2z"/>
		<path class="st16" d="M93.5,54.2c0.5-0.5,0.5-1.4,0-1.9l-5.7-5.7c-0.5-0.5-1.4-0.5-1.9,0l-2,2c-0.5,0.5-0.5,1.4,0,1.9l5.7,5.7
			c0.5,0.5,1.4,0.5,1.9,0L93.5,54.2z"/>
	</g>
	<g class="st0">
		<path class="st11" d="M82.9,142.7c-0.5-0.5-1.4-0.5-1.9,0l-5.7,5.7c-0.5,0.5-0.5,1.4,0,1.9l2,2c0.5,0.5,1.4,0.5,1.9,0l5.7-5.7
			c0.5-0.5,0.5-1.4,0-1.9L82.9,142.7z"/>
		<path class="st16" d="M82.9,142.7c-0.5-0.5-1.4-0.5-1.9,0l-5.7,5.7c-0.5,0.5-0.5,1.4,0,1.9l2,2c0.5,0.5,1.4,0.5,1.9,0l5.7-5.7
			c0.5-0.5,0.5-1.4,0-1.9L82.9,142.7z"/>
	</g>
	<g class="st0">
		<path class="st11" d="M132.5,167.1c-0.8,0-1.4,0.6-1.4,1.4v8.6c0,0.8,0.6,1.4,1.4,1.4h3.4c0.8,0,1.4-0.6,1.4-1.4v-8.6
			c0-0.8-0.6-1.4-1.4-1.4H132.5z"/>
		<path class="st16" d="M132.5,167.1c-0.8,0-1.4,0.6-1.4,1.4v8.6c0,0.8,0.6,1.4,1.4,1.4h3.4c0.8,0,1.4-0.6,1.4-1.4v-8.6
			c0-0.8-0.6-1.4-1.4-1.4H132.5z"/>
	</g>
	<g class="st0">
		<path class="st11" d="M39.5,107.9c0.5-0.5,0.5-1.4,0-1.9l-5.7-5.7c-0.5-0.5-1.4-0.5-1.9,0l-2,2c-0.5,0.5-0.5,1.4,0,1.9l5.7,5.7
			c0.5,0.5,1.4,0.5,1.9,0L39.5,107.9z"/>
		<path class="st16" d="M39.5,107.9c0.5-0.5,0.5-1.4,0-1.9l-5.7-5.7c-0.5-0.5-1.4-0.5-1.9,0l-2,2c-0.5,0.5-0.5,1.4,0,1.9l5.7,5.7
			c0.5,0.5,1.4,0.5,1.9,0L39.5,107.9z"/>
	</g>
	<g class="st0">
		<path class="st11" d="M133.7,184.5c-0.8,0-1.4,0.6-1.4,1.4v8.1c0,0.8,0.6,1.4,1.4,1.4h2.8c0.8,0,1.4-0.6,1.4-1.4v-8.1
			c0-0.8-0.6-1.4-1.4-1.4H133.7z"/>
		<path class="st16" d="M133.7,184.5c-0.8,0-1.4,0.6-1.4,1.4v8.1c0,0.8,0.6,1.4,1.4,1.4h2.8c0.8,0,1.4-0.6,1.4-1.4v-8.1
			c0-0.8-0.6-1.4-1.4-1.4H133.7z"/>
	</g>
	<g id="TERMINUSES" class="st0">
		
			<ellipse transform="matrix(0.7071 -0.7071 0.7071 0.7071 -149.0306 113.0802)" class="st17" cx="62" cy="236.4" rx="3.6" ry="3.6"/>
	</g>
</g>
</svg>
