<?xml version="1.0" encoding="utf-8"?>
<!-- Generator: Adobe Illustrator 20.0.0, SVG Export Plug-In . SVG Version: 6.00 Build 0)  -->
<svg version="1.1" id="Layer_1" xmlns="http://www.w3.org/2000/svg" xmlns:xlink="http://www.w3.org/1999/xlink" x="0px" y="0px"
	 viewBox="0 0 260 260" style="enable-background:new 0 0 260 260;" xml:space="preserve">
<style type="text/css">
	.st0{fill:none;stroke:#E6E7E8;stroke-width:0.5;stroke-miterlimit:10;}
	.st1{fill:#2FF4AA;stroke:#FFFFFF;stroke-width:2;stroke-miterlimit:10;}
	.st2{fill:#FF7297;stroke:#FFFFFF;stroke-width:2;stroke-miterlimit:10;}
	.st3{display:none;}
	.st4{display:inline;fill:none;stroke:#000000;stroke-width:5.161500e-02;stroke-miterlimit:10;}
	.st5{display:inline;}
	.st6{font-family:'ArialMT';}
	.st7{font-size:10.7796px;}
	.st8{font-size:13.6294px;}
	.st9{font-size:10.9035px;}
	.st10{font-size:12.06px;}
	.st11{font-size:13.0511px;}
	.st12{font-size:5.2452px;}
	.st13{font-size:14.7032px;}
	.st14{font-size:15.8597px;}
	.st15{font-size:11.4818px;}
	.st16{font-size:14.8684px;}
	.st17{font-size:5.5344px;}
	.st18{font-size:14.125px;}
	.st19{font-size:5.9061px;}
	.st20{font-size:13.5055px;}
	.st21{font-size:14.4141px;}
	.st22{font-size:4.9561px;}
	.st23{font-size:14.7858px;}
	.st24{font-size:11.6469px;}
	.st25{font-size:4.667px;}
	.st26{font-size:6.0299px;}
	.st27{font-size:4.4606px;}
	.st28{font-size:7.4755px;}
	.st29{enable-background:new    ;}
	.st30{font-size:10.4905px;}
	.st31{font-size:43.584px;}
</style>
<g id="Layer_2_copy">
	<path class="st0" d="M90.4,146c-9.7,8.9-37.6,7.6-46.5-2.2"/>
	<path class="st0" d="M90.4,146c-13-2.5-28.7-25.9-26.2-39"/>
	<path class="st0" d="M90.4,146c-4.2-14.4,11.3-42.2,25.7-46.4"/>
	<path class="st0" d="M90.4,146c0.2-28.8,43.6-71.9,72.4-71.7"/>
	<path class="st0" d="M90.4,146c15.1-39.5,96.9-76.1,136.4-61"/>
	<path class="st0" d="M90.4,146c-22.2-14.1-34.6-68.3-20.7-90.4"/>
	<path class="st0" d="M90.4,146c-16.5-26.7-1.5-91.5,25.1-108.1"/>
	<path class="st0" d="M90.4,146c-24.8,1.2-63.6-34.1-64.8-58.8"/>
	<path class="st0" d="M90.4,146c-2.2,21.4-37.4,50.4-58.8,48.3"/>
	<path class="st0" d="M243.9,146.2c-30.6,1.8-79.4-41.3-81.2-72"/>
	<path class="st0" d="M243.9,146.2c-15.6-8.9-25.9-45.6-17.1-61.3"/>
	<path class="st0" d="M243.9,146.2c-15.8,10-54.5,1.5-64.6-14.4"/>
	<path class="st0" d="M243.9,146.2c-47.4,4-124.4-61-128.4-108.3"/>
	<path class="st0" d="M43.9,143.8c-3.3-11.4,8.9-33.5,20.2-36.9"/>
	<path class="st0" d="M43.9,143.8c5.5-23.2,48.9-49.8,72.1-44.2"/>
	<path class="st0" d="M43.9,143.8c-12.5-22.9,3-75.7,25.9-88.3"/>
	<path class="st0" d="M43.9,143.8c-15-7.6-26-41.6-18.3-56.7"/>
	<path class="st0" d="M43.9,143.8c7.6,12.6,0.2,42.8-12.4,50.4"/>
	<path class="st0" d="M64.2,107c8.9-11.8,40-16.3,51.8-7.4"/>
	<path class="st0" d="M64.2,107c13.2-26.2,72.3-45.9,98.5-32.8"/>
	<path class="st0" d="M64.2,107c28.1-37,125.7-50.2,162.6-22.1"/>
	<path class="st0" d="M64.2,107c-9.2-11.4-5.9-42.3,5.5-51.5"/>
	<path class="st0" d="M64.2,107C60.6,83,91.4,41.5,115.5,37.9"/>
	<path class="st0" d="M64.2,107c-11.7,3.7-34.9-8.1-38.6-19.8"/>
	<path class="st0" d="M64.2,107c10.9,24-8.7,76.4-32.7,87.2"/>
	<path class="st0" d="M116.1,99.6c4.3-14.4,32.2-29.6,46.6-25.3"/>
	<path class="st0" d="M116.1,99.6c19.2-25.1,85.6-33.9,110.7-14.6"/>
	<path class="st0" d="M116.1,99.6c19.1-6.2,57,13.1,63.3,32.1"/>
	<path class="st0" d="M116.1,99.6c-18.1,0.5-45.9-26-46.4-44"/>
	<path class="st0" d="M116.1,99.6c-12.5-12.3-12.8-49.3-0.5-61.7"/>
	<path class="st0" d="M116.1,99.6c-20.5,15.6-74.8,8.2-90.5-12.4"/>
	<path class="st0" d="M116.1,99.6c2,35.9-48.8,92.7-84.6,94.6"/>
	<path class="st0" d="M162.7,74.3c14.9-10.7,53.4-4.3,64,10.7"/>
	<path class="st0" d="M162.7,74.3c14.8,8.2,24.8,42.8,16.5,57.6"/>
	<path class="st0" d="M162.7,74.3c-22.3,14.8-78.2,3.6-93-18.7"/>
	<path class="st0" d="M162.7,74.3c-16.7,2.2-45-19.7-47.3-36.4"/>
	<path class="st0" d="M162.7,74.3c-24.9,30-107.1,37.8-137.1,12.9"/>
	<path class="st0" d="M226.8,84.9c-0.2,18.9-28.6,46.9-47.5,46.8"/>
	<path class="st0" d="M226.8,84.9c-37.2,25.5-131.5,7.9-157-29.4"/>
	<path class="st0" d="M226.8,84.9c-31.7,12.9-98.4-15.3-111.3-47"/>
	<path class="st0" d="M226.8,84.9c-39.8,40.7-160.4,42-201.1,2.4"/>
	<path class="st0" d="M179.3,131.7c-37.1,6.7-103-39-109.6-76.2"/>
	<path class="st0" d="M179.3,131.7c-31.5-6.1-69.9-62.4-63.8-93.9"/>
	<path class="st0" d="M179.3,131.7c-39.6,21.9-131.8-4.9-153.6-44.6"/>
	<path class="st0" d="M179.3,131.7c-23.5-13-39.4-67.7-26.4-91.3"/>
	<path class="st0" d="M179.3,131.7c-19.3-18.3-20.8-74.8-2.5-94.2"/>
	<path class="st0" d="M69.7,55.6c5.6-12.7,33.1-23.2,45.7-17.7"/>
	<path class="st0" d="M69.7,55.6c-2.5,15.2-29,34.2-44.1,31.6"/>
	<path class="st0" d="M115.5,37.9c-8.1,27.9-62,57.5-89.9,49.4"/>
	<path class="st0" d="M25.6,87.2c22.6,20.2,26.1,84.4,5.9,107"/>
	<path class="st0" d="M153,40.5c4.3-5.4,18.6-7.1,24-2.9"/>
</g>
<g id="Layer_1_1_">
	<path class="st1" d="M94.9,146c0-2.5-2-4.5-4.5-4.5c-2.5,0-4.5,2-4.5,4.5c0,2.5,2,4.5,4.5,4.5C92.9,150.5,94.9,148.5,94.9,146"/>
	<path class="st2" d="M249.6,146.2c0-3.1-2.5-5.6-5.6-5.6c-3.1,0-5.6,2.5-5.6,5.6c0,3.1,2.5,5.6,5.6,5.6
		C247,151.8,249.6,149.4,249.6,146.2"/>
	<path class="st1" d="M48.5,143.8c0-2.5-2.1-4.5-4.5-4.5c-2.5,0-4.5,2.1-4.5,4.5c0,2.5,2.1,4.5,4.5,4.5S48.5,146.4,48.5,143.8"/>
	<path class="st1" d="M69.2,107c0-2.8-2.3-5-5-5c-2.7,0-5,2.3-5,5c0,2.7,2.3,5,5,5C67,112,69.2,109.8,69.2,107"/>
	<path class="st1" d="M121.6,99.6c0-3-2.5-5.4-5.4-5.4c-3,0-5.4,2.5-5.4,5.4s2.5,5.4,5.4,5.4C119.1,105.1,121.6,102.6,121.6,99.6"/>
	<path class="st2" d="M169.3,74.3c0-3.6-3-6.6-6.5-6.6c-3.6,0-6.6,3-6.6,6.6c0,3.6,3,6.6,6.6,6.6C166.3,80.8,169.3,77.9,169.3,74.3"
		/>
	<path class="st2" d="M233,84.9c0-3.5-2.8-6.2-6.2-6.2c-3.5,0-6.2,2.8-6.2,6.2c0,3.5,2.8,6.2,6.2,6.2C230.2,91.1,233,88.3,233,84.9"
		/>
	<path class="st2" d="M185.2,131.7c0-3.3-2.6-5.8-5.8-5.8c-3.3,0-5.9,2.6-5.9,5.8c0,3.3,2.6,5.9,5.9,5.9
		C182.5,137.6,185.2,135,185.2,131.7"/>
	<path class="st1" d="M75.3,55.6c0-3.1-2.5-5.6-5.6-5.6s-5.6,2.5-5.6,5.6c0,3.1,2.5,5.6,5.6,5.6S75.3,58.7,75.3,55.6"/>
	<path class="st2" d="M121.5,37.9c0-3.3-2.6-6-6-6c-3.3,0-6,2.6-6,6c0,3.3,2.6,6,6,6C118.8,43.9,121.5,41.1,121.5,37.9"/>
	<path class="st1" d="M30.4,87.3c0-2.6-2.2-4.8-4.8-4.8s-4.8,2.2-4.8,4.8s2.2,4.8,4.8,4.8C28.3,92.1,30.4,89.9,30.4,87.3"/>
	<path class="st2" d="M154.9,40.5c0-1.1-0.8-1.9-1.9-1.9c-1.1,0-1.9,0.8-1.9,1.9c0,1.1,0.8,1.9,1.9,1.9
		C154.1,42.4,154.9,41.5,154.9,40.5"/>
	<path class="st1" d="M131.7,137.8c0-1.4-1.1-2.5-2.5-2.5c-1.4,0-2.5,1.1-2.5,2.5s1.1,2.5,2.5,2.5
		C130.6,140.4,131.7,139.3,131.7,137.8"/>
	<path class="st2" d="M178.9,37.6c0-1.1-0.8-1.9-1.9-1.9c-1.1,0-1.9,0.8-1.9,1.9c0,1.1,0.8,1.9,1.9,1.9S178.9,38.7,178.9,37.6"/>
	<path class="st1" d="M72.5,175.6c0-1.7-1.4-3.1-3.1-3.1s-3.1,1.4-3.1,3.1c0,1.7,1.4,3.1,3.1,3.1S72.5,177.3,72.5,175.6"/>
	<path class="st1" d="M35.8,194.2c0-2.4-1.9-4.4-4.4-4.4c-2.4,0-4.4,1.9-4.4,4.4c0,2.4,1.9,4.4,4.4,4.4
		C33.9,198.6,35.8,196.7,35.8,194.2"/>
	<g id="Layer_3" class="st3">
		<path class="st4" d="M88.4,141.7c0-6.8-5.5-12.3-12.3-12.3c-6.8,0-12.3,5.5-12.3,12.3c0,6.8,5.5,12.3,12.3,12.3
			C82.9,154,88.4,148.5,88.4,141.7"/>
		<path class="st4" d="M259.9,141.9c0-8.5-6.9-15.5-15.5-15.5c-8.5,0-15.5,6.9-15.5,15.5c0,8.5,6.9,15.5,15.5,15.5
			C253,157.4,259.9,150.5,259.9,141.9"/>
		<path class="st4" d="M37.6,139.4c0-6.8-5.5-12.4-12.4-12.4c-6.8,0-12.4,5.5-12.4,12.4c0,6.8,5.5,12.4,12.4,12.4
			S37.6,146.3,37.6,139.4"/>
		<path class="st4" d="M61.2,99c0-7.6-6.2-13.7-13.7-13.7c-7.6,0-13.7,6.2-13.7,13.7c0,7.6,6.2,13.7,13.7,13.7S61.2,106.5,61.2,99"
			/>
		<path class="st4" d="M119.1,90.8c0-8.2-6.6-14.9-14.9-14.9c-8.2,0-14.9,6.6-14.9,14.9c0,8.2,6.6,14.8,14.9,14.8
			C112.5,105.8,119.1,99,119.1,90.8"/>
		<path class="st4" d="M215.4,38.9c0-3.3-2.6-6-6-6c-3.3,0-6,2.6-6,6c0,3.3,2.6,6,6,6C212.8,44.9,215.4,42.2,215.4,38.9"/>
		<path class="st4" d="M174.9-11.1c0-9.3-7.4-16.7-16.7-16.7c-9.3,0-16.7,7.5-16.7,16.7c0,9.3,7.5,16.7,16.7,16.7
			C167.4,5.6,174.9-1.7,174.9-11.1"/>
		<path class="st4" d="M173.5,63.1c0-10-8.1-18.1-18.1-18.1s-18.1,8.1-18.1,18.1s8.1,18.1,18.1,18.1
			C165.4,81.2,173.5,73.1,173.5,63.1"/>
		<path class="st4" d="M242.6,74.8c0-9.4-7.6-17-17-17s-17,7.5-17,17s7.6,17,17,17C235.1,91.7,242.6,84.1,242.6,74.8"/>
		<path class="st4" d="M142.4,144.6c0-3.5-2.8-6.3-6.3-6.3s-6.3,2.8-6.3,6.3c0,3.5,2.8,6.3,6.3,6.3
			C139.6,151,142.4,148.1,142.4,144.6"/>
		<path class="st4" d="M189.8,126c0-8.9-7.2-16.1-16.1-16.1c-8.9,0-16.1,7.2-16.1,16.1s7.2,16.1,16.1,16.1
			C182.5,142.2,189.8,134.9,189.8,126"/>
		<path class="st4" d="M130.7,185.5c0-9.9-8.1-18-18-18s-18,8.1-18,18c0,9.9,8.1,18,18,18C122.7,203.5,130.7,195.3,130.7,185.5"/>
		<path class="st4" d="M167.7,166.9c0-3.7-3-6.7-6.7-6.7c-3.7,0-6.7,3-6.7,6.7c0,3.7,3,6.7,6.7,6.7
			C164.7,173.5,167.7,170.5,167.7,166.9"/>
		<path class="st4" d="M68.9,42.6c0-8.5-6.9-15.4-15.4-15.4S38,34,38,42.6S44.9,58,53.5,58S68.9,51.1,68.9,42.6"/>
		<path class="st4" d="M120,23.1c0-9.1-7.4-16.4-16.4-16.4s-16.4,7.4-16.4,16.4s7.4,16.4,16.4,16.4S120,32.2,120,23.1"/>
		<path class="st4" d="M196.8,33.3c0-3.1-2.5-5.6-5.6-5.6s-5.6,2.5-5.6,5.6s2.5,5.6,5.6,5.6S196.8,36.5,196.8,33.3"/>
		<path class="st4" d="M234.2-2.5c0-9.3-7.5-16.9-16.9-16.9c-9.3,0-16.9,7.5-16.9,16.9c0,9.3,7.5,16.9,16.9,16.9
			C226.6,14.3,234.2,6.8,234.2-2.5"/>
		<path class="st4" d="M18.4,77.3c0-7.4-6-13.3-13.3-13.3s-13.3,6-13.3,13.3c0,7.4,6,13.3,13.3,13.3C12.4,90.6,18.4,84.5,18.4,77.3"
			/>
		<path class="st4" d="M150,26.1c0-2.9-2.4-5.3-5.3-5.3s-5.3,2.4-5.3,5.3s2.4,5.3,5.3,5.3C147.6,31.3,150,29,150,26.1"/>
		<path class="st4" d="M125.6,132.8c0-3.8-3.1-6.8-6.8-6.8c-3.8,0-6.8,3.1-6.8,6.8c0,3.8,3.1,6.8,6.8,6.8S125.6,136.5,125.6,132.8"
			/>
		<path class="st4" d="M202.1,50.4c0-2.8-2.3-5.1-5.1-5.1c-2.8,0-5.1,2.3-5.1,5.1s2.3,5.1,5.1,5.1C199.8,55.5,202.1,53.1,202.1,50.4
			"/>
		<path class="st4" d="M176.3,22.9c0-2.9-2.4-5.3-5.3-5.3c-2.9,0-5.3,2.4-5.3,5.3s2.4,5.3,5.3,5.3C174,28.1,176.3,25.8,176.3,22.9"
			/>
		<path class="st4" d="M61.6,174.1c0-4.7-3.8-8.5-8.5-8.5s-8.5,3.8-8.5,8.5c0,4.7,3.8,8.5,8.5,8.5C57.8,182.8,61.6,179,61.6,174.1"
			/>
		<path class="st4" d="M51.6-10.7c0-7.4-6-13.3-13.3-13.3c-7.4,0-13.3,6-13.3,13.3c0,7.4,6,13.3,13.3,13.3
			C45.7,2.5,51.6-3.4,51.6-10.7"/>
		<path class="st4" d="M23.5,194.6c0-6.6-5.4-12-12-12s-12,5.4-12,12s5.4,12,12,12C18.1,206.7,23.5,201.2,23.5,194.6"/>
	</g>
	<g id="Layer_2" class="st3">
		<text transform="matrix(1 0 0 1 53.1245 143.3485)" class="st5 st6 st7">Argentina</text>
		<text transform="matrix(1 0 0 1 225.9458 154.6317)" class="st5 st6 st8">Belize</text>
		<text transform="matrix(1 0 0 1 11.626 149.5145)" class="st5 st6 st9">Brazil</text>
		<text transform="matrix(1 0 0 1 33.7085 110.785)" class="st5 st6 st10">Chile</text>
		<text transform="matrix(1 0 0 1 76.7881 103.6337)" class="st5 st6 st11">Colombia</text>
		<text transform="matrix(1 0 0 1 198.2359 44.1483)" class="st5 st6 st12">COMEXA</text>
		<text transform="matrix(1 0 0 1 122.3321 3.3798)" class="st5 st6 st13">Costa Rica</text>
		<text transform="matrix(1 0 0 1 85.1143 66.2552)" class="st5 st6 st14">Dominican Republic</text>
		<text transform="matrix(1 0 0 1 -24.352 35.6859)" class="st5 st6 st15">Ecuador</text>
		<text transform="matrix(1 0 0 1 188.5855 89.3329)" class="st5 st6 st16">El Salvador</text>
		<text transform="matrix(1 0 0 1 130.1026 150.0966)" class="st5 st6 st17">FIAB</text>
		<text transform="matrix(1 0 0 1 143.0742 139.288)" class="st5 st6 st18">Honduras</text>
		<text transform="matrix(1 0 0 1 154.4468 172.6034)" class="st5 st6 st19">ILCE</text>
		<text transform="matrix(1 0 0 1 32.1118 55.1351)" class="st5 st6 st20">Mexico</text>
		<text transform="matrix(1 0 0 1 70.8535 25.3768)" class="st5 st6 st21">Nicaragua</text>
		<text transform="matrix(1 0 0 1 184.3833 38.1639)" class="st5 st6 st22">OTCA</text>
		<text transform="matrix(1 0 0 1 189.8345 11.2489)" class="st5 st6 st23">Panama</text>
		<text transform="matrix(1 0 0 1 -7.1592 88.1361)" class="st5 st6 st24">Peru</text>
		<text transform="matrix(1 0 0 1 135.5469 30.6044)" class="st5 st6 st25">PTCARL</text>
		<text transform="matrix(1 0 0 1 109.0064 138.6444)" class="st5 st6 st26">RELPE</text>
		<text transform="matrix(1 0 0 1 185.4654 51.2694)" class="st5 st6 st27">Selva Maya</text>
		<text transform="matrix(1 0 0 1 159.6949 27.41)" class="st5 st6 st25">SET-CTPT</text>
		<text transform="matrix(1 0 0 1 43.5987 176.0995)" class="st5 st6 st28">Spain</text>
		<text transform="matrix(1 0 0 1 16.4068 -8.859)" class="st5 st6 st24">Uruguay</text>
		<text transform="matrix(1 0 0 1 -13.1582 204.4042)" class="st5 st6 st30">Venezuela</text>
	</g>
	<g id="Layer_5" class="st3">
		<text transform="matrix(1 0 0 1 83.5669 205.0009)" class="st5 st6 st31">IDB</text>
	</g>
</g>
</svg>
