<?xml version="1.0" encoding="utf-8"?>
<!-- Generator: Adobe Illustrator 20.0.0, SVG Export Plug-In . SVG Version: 6.00 Build 0)  -->
<svg version="1.1" xmlns="http://www.w3.org/2000/svg" xmlns:xlink="http://www.w3.org/1999/xlink" x="0px" y="0px"
	 viewBox="0 0 260 260" style="enable-background:new 0 0 260 260;" xml:space="preserve">
<style type="text/css">
	.st0{display:none;}
	.st1{display:inline;fill:none;stroke:#E6E7E8;stroke-width:2.1678;stroke-miterlimit:10;}
	.st2{display:inline;fill:none;stroke:#E6E7E8;stroke-width:2.5291;stroke-miterlimit:10;}
	.st3{display:inline;fill:none;stroke:#E6E7E8;stroke-width:2.7872;stroke-miterlimit:10;}
	.st4{display:inline;fill:none;stroke:#E6E7E8;stroke-width:1.5484;stroke-miterlimit:10;}
	.st5{display:inline;fill:none;stroke:#E6E7E8;stroke-width:0.5;stroke-miterlimit:10;}
	.st6{display:inline;fill:none;stroke:#E6E7E8;stroke-width:2.013;stroke-miterlimit:10;}
	.st7{display:inline;fill:none;stroke:#E6E7E8;stroke-width:1.342;stroke-miterlimit:10;}
	.st8{display:inline;fill:none;stroke:#E6E7E8;stroke-width:2.0646;stroke-miterlimit:10;}
	.st9{display:inline;fill:none;stroke:#E6E7E8;stroke-width:1.4452;stroke-miterlimit:10;}
	.st10{display:inline;fill:none;stroke:#E6E7E8;stroke-width:2.4775;stroke-miterlimit:10;}
	.st11{display:inline;fill:none;stroke:#E6E7E8;stroke-width:2.2194;stroke-miterlimit:10;}
	.st12{display:inline;fill:none;stroke:#E6E7E8;stroke-width:2.1162;stroke-miterlimit:10;}
	.st13{display:inline;fill:none;stroke:#E6E7E8;stroke-width:1.8065;stroke-miterlimit:10;}
	.st14{display:inline;fill:none;stroke:#E6E7E8;stroke-width:1.6001;stroke-miterlimit:10;}
	.st15{display:inline;fill:none;stroke:#E6E7E8;stroke-width:1.9098;stroke-miterlimit:10;}
	.st16{display:inline;fill:none;stroke:#E6E7E8;stroke-width:3.3034;stroke-miterlimit:10;}
	.st17{display:inline;fill:none;stroke:#E6E7E8;stroke-width:1.9614;stroke-miterlimit:10;}
	.st18{display:inline;fill:none;stroke:#E6E7E8;stroke-width:1.3936;stroke-miterlimit:10;}
	.st19{display:inline;fill:none;stroke:#E6E7E8;stroke-width:1.7033;stroke-miterlimit:10;}
	.st20{display:inline;fill:none;stroke:#E6E7E8;stroke-width:3.0453;stroke-miterlimit:10;}
	.st21{display:inline;fill:none;stroke:#E6E7E8;stroke-width:3.4582;stroke-miterlimit:10;}
	.st22{display:inline;fill:none;stroke:#E6E7E8;stroke-width:2.8388;stroke-miterlimit:10;}
	.st23{display:inline;fill:none;stroke:#E6E7E8;stroke-width:2.9937;stroke-miterlimit:10;}
	.st24{display:inline;fill:none;stroke:#E6E7E8;stroke-width:3.7679;stroke-miterlimit:10;}
	.st25{display:inline;fill:none;stroke:#E6E7E8;stroke-width:3.4066;stroke-miterlimit:10;}
	.st26{display:inline;fill:none;stroke:#E6E7E8;stroke-width:1.2904;stroke-miterlimit:10;}
	.st27{display:inline;fill:none;stroke:#E6E7E8;stroke-width:1.6517;stroke-miterlimit:10;}
	.st28{fill:none;stroke:#E6E7E8;stroke-width:0.5;stroke-miterlimit:10;}
	.st29{fill:#2FF4AA;stroke:#FFFFFF;stroke-width:2;stroke-miterlimit:10;}
	.st30{fill:#FF7297;stroke:#FFFFFF;stroke-width:2;stroke-miterlimit:10;}
	.st31{display:inline;fill:none;stroke:#000000;stroke-width:5.161500e-02;stroke-miterlimit:10;}
	.st32{display:inline;}
	.st33{font-family:'ArialMT';}
	.st34{font-size:11.8718px;}
	.st35{font-size:15.0103px;}
	.st36{font-size:12.0083px;}
	.st37{font-size:13.2819px;}
	.st38{font-size:14.3735px;}
	.st39{font-size:5.7767px;}
	.st40{font-size:16.1929px;}
	.st41{font-size:17.4666px;}
	.st42{font-size:12.6451px;}
	.st43{font-size:16.3749px;}
	.st44{font-size:6.0951px;}
	.st45{enable-background:new    ;}
	.st46{font-size:15.5562px;}
	.st47{font-size:6.5045px;}
	.st48{font-size:14.8739px;}
	.st49{font-size:15.8745px;}
	.st50{font-size:5.4583px;}
	.st51{font-size:16.2839px;}
	.st52{font-size:12.827px;}
	.st53{font-size:5.1399px;}
	.st54{font-size:6.6409px;}
	.st55{font-size:4.9125px;}
	.st56{font-size:8.2329px;}
	.st57{font-size:11.5534px;}
	.st58{font-size:48px;}
</style>
<g id="Layer_2_1_" class="st0">
	<path class="st1" d="M80.8,172.1c-10.7,9.8-41.4,8.4-51.2-2.4"/>
	<path class="st2" d="M80.8,172.1c-14.3-2.8-31.6-28.5-28.8-42.9"/>
	<path class="st3" d="M80.8,172.1c-4.6-15.9,12.4-46.5,28.3-51.1"/>
	<path class="st4" d="M80.8,172.1c0.2-31.7,48-79.2,79.7-79"/>
	<path class="st5" d="M80.8,172.1c16.6-43.5,106.7-83.8,150.2-67.2"/>
	<path class="st6" d="M80.8,172.1C56.3,156.6,42.7,96.9,58,72.5"/>
	<path class="st7" d="M80.8,172.1C62.6,142.7,79.1,71.3,108.4,53"/>
	<path class="st8" d="M80.8,172.1c-27.3,1.3-70-37.5-71.4-64.8"/>
	<path class="st9" d="M80.8,172.1c-2.4,23.6-41.2,55.5-64.8,53.2"/>
	<path class="st4" d="M249.8,172.3c-33.7,2-87.4-45.5-89.4-79.3"/>
	<path class="st10" d="M249.8,172.3c-17.2-9.8-28.5-50.2-18.8-67.5"/>
	<path class="st11" d="M249.8,172.3c-17.4,11-60,1.6-71.1-15.9"/>
	<path class="st12" d="M249.8,172.3c-52.2,4.4-137-67.2-141.4-119.3"/>
	<path class="st13" d="M29.6,169.7c-3.6-12.6,9.8-36.9,22.3-40.6"/>
	<path class="st11" d="M29.6,169.7c6.1-25.6,53.8-54.8,79.4-48.7"/>
	<path class="st14" d="M29.6,169.7c-13.8-25.2,3.3-83.4,28.5-97.2"/>
	<path class="st15" d="M29.6,169.7C13.1,161.3,1,123.9,9.4,107.3"/>
	<path class="st5" d="M29.6,169.7c8.4,13.9,0.2,47.1-13.7,55.5"/>
	<path class="st16" d="M51.9,129.2c9.8-13,44-18,57.1-8.1"/>
	<path class="st17" d="M51.9,129.2c14.5-28.9,79.6-50.6,108.5-36.1"/>
	<path class="st18" d="M51.9,129.2c31-40.7,138.4-55.3,179.1-24.3"/>
	<path class="st11" d="M51.9,129.2c-10.1-12.6-6.5-46.6,6.1-56.7"/>
	<path class="st7" d="M51.9,129.2C48,102.7,81.9,57,108.4,53"/>
	<path class="st2" d="M51.9,129.2c-12.9,4.1-38.4-8.9-42.5-21.8"/>
	<path class="st19" d="M51.9,129.2c12,26.4-9.6,84.1-36,96"/>
	<path class="st20" d="M109.1,121c4.7-15.9,35.5-32.6,51.3-27.9"/>
	<path class="st17" d="M109.1,121c21.2-27.6,94.3-37.3,121.9-16.1"/>
	<path class="st1" d="M109.1,121c21-6.8,62.8,14.4,69.7,35.4"/>
	<path class="st20" d="M109.1,121C89.2,121.5,58.5,92.4,58,72.5"/>
	<path class="st8" d="M109.1,121c-13.8-13.5-14.1-54.3-0.6-68"/>
	<path class="st21" d="M109.1,121c-22.6,17.2-82.4,9-99.7-13.7"/>
	<path class="st19" d="M109.1,121c2.2,39.5-53.7,102.1-93.2,104.2"/>
	<path class="st22" d="M160.4,93.1c16.4-11.8,58.8-4.7,70.5,11.8"/>
	<path class="st20" d="M160.4,93.1c16.3,9,27.3,47.1,18.2,63.4"/>
	<path class="st19" d="M160.4,93.1c-24.6,16.3-86.1,4-102.4-20.6"/>
	<path class="st23" d="M160.4,93.1C142,95.5,110.8,71.4,108.3,53"/>
	<path class="st1" d="M160.4,93.1c-27.4,33-117.9,41.6-151,14.2"/>
	<path class="st24" d="M231,104.8c-0.2,20.8-31.5,51.7-52.3,51.5"/>
	<path class="st4" d="M231,104.8c-41,28.1-144.8,8.7-172.9-32.4"/>
	<path class="st25" d="M231,104.8C196.1,119,122.6,87.9,108.4,53"/>
	<path class="st26" d="M231,104.8c-43.8,44.8-176.7,46.3-221.5,2.6"/>
	<path class="st9" d="M178.7,156.4c-40.9,7.4-113.4-43-120.7-83.9"/>
	<path class="st16" d="M178.7,156.4c-34.7-6.7-77-68.7-70.3-103.4"/>
	<path class="st5" d="M178.7,156.4C135.1,180.5,33.5,151,9.5,107.3"/>
	<path class="st7" d="M178.7,156.4c-25.9-14.3-43.4-74.6-29.1-100.5"/>
	<path class="st27" d="M178.7,156.4c-21.3-20.2-22.9-82.4-2.7-103.7"/>
	<path class="st9" d="M58,72.5c6.2-14,36.4-25.6,50.3-19.5"/>
	<path class="st15" d="M58,72.5c-2.7,16.7-31.9,37.7-48.6,34.8"/>
	<path class="st18" d="M108.4,53c-8.9,30.7-68.3,63.3-99,54.4"/>
	<path class="st5" d="M9.4,107.3c24.9,22.3,28.7,93,6.5,117.8"/>
	<path class="st6" d="M149.7,55.9c4.7-5.9,20.5-7.8,26.4-3.2"/>
</g>
<g id="Layer_2_copy">
	<path class="st28" d="M80.8,172.1c-10.7,9.8-41.4,8.4-51.2-2.4"/>
	<path class="st28" d="M80.8,172.1c-14.3-2.8-31.6-28.5-28.8-42.9"/>
	<path class="st28" d="M80.8,172.1c-4.6-15.9,12.4-46.5,28.3-51.1"/>
	<path class="st28" d="M80.8,172.1c0.2-31.7,48-79.2,79.7-79"/>
	<path class="st28" d="M80.8,172.1c16.6-43.5,106.7-83.8,150.2-67.2"/>
	<path class="st28" d="M80.8,172.1C56.3,156.6,42.7,96.9,58,72.5"/>
	<path class="st28" d="M80.8,172.1C62.6,142.7,79.1,71.3,108.4,53"/>
	<path class="st28" d="M80.8,172.1c-27.3,1.3-70-37.5-71.4-64.8"/>
	<path class="st28" d="M80.8,172.1c-2.4,23.6-41.2,55.5-64.8,53.2"/>
	<path class="st28" d="M249.8,172.3c-33.7,2-87.4-45.5-89.4-79.3"/>
	<path class="st28" d="M249.8,172.3c-17.2-9.8-28.5-50.2-18.8-67.5"/>
	<path class="st28" d="M249.8,172.3c-17.4,11-60,1.6-71.1-15.9"/>
	<path class="st28" d="M249.8,172.3c-52.2,4.4-137-67.2-141.4-119.3"/>
	<path class="st28" d="M29.6,169.7c-3.6-12.6,9.8-36.9,22.3-40.6"/>
	<path class="st28" d="M29.6,169.7c6.1-25.6,53.8-54.8,79.4-48.7"/>
	<path class="st28" d="M29.6,169.7c-13.8-25.2,3.3-83.4,28.5-97.2"/>
	<path class="st28" d="M29.6,169.7C13.1,161.3,1,123.9,9.4,107.3"/>
	<path class="st28" d="M29.6,169.7c8.4,13.9,0.2,47.1-13.7,55.5"/>
	<path class="st28" d="M51.9,129.2c9.8-13,44-18,57.1-8.1"/>
	<path class="st28" d="M51.9,129.2c14.5-28.9,79.6-50.6,108.5-36.1"/>
	<path class="st28" d="M51.9,129.2c31-40.7,138.4-55.3,179.1-24.3"/>
	<path class="st28" d="M51.9,129.2c-10.1-12.6-6.5-46.6,6.1-56.7"/>
	<path class="st28" d="M51.9,129.2C48,102.7,81.9,57,108.4,53"/>
	<path class="st28" d="M51.9,129.2c-12.9,4.1-38.4-8.9-42.5-21.8"/>
	<path class="st28" d="M51.9,129.2c12,26.4-9.6,84.1-36,96"/>
	<path class="st28" d="M109.1,121c4.7-15.9,35.5-32.6,51.3-27.9"/>
	<path class="st28" d="M109.1,121c21.2-27.6,94.3-37.3,121.9-16.1"/>
	<path class="st28" d="M109.1,121c21-6.8,62.8,14.4,69.7,35.4"/>
	<path class="st28" d="M109.1,121C89.2,121.5,58.5,92.4,58,72.5"/>
	<path class="st28" d="M109.1,121c-13.8-13.5-14.1-54.3-0.6-68"/>
	<path class="st28" d="M109.1,121c-22.6,17.2-82.4,9-99.7-13.7"/>
	<path class="st28" d="M109.1,121c2.2,39.5-53.7,102.1-93.2,104.2"/>
	<path class="st28" d="M160.4,93.1c16.4-11.8,58.8-4.7,70.5,11.8"/>
	<path class="st28" d="M160.4,93.1c16.3,9,27.3,47.1,18.2,63.4"/>
	<path class="st28" d="M160.4,93.1c-24.6,16.3-86.1,4-102.4-20.6"/>
	<path class="st28" d="M160.4,93.1C142,95.5,110.8,71.4,108.3,53"/>
	<path class="st28" d="M160.4,93.1c-27.4,33-117.9,41.6-151,14.2"/>
	<path class="st28" d="M231,104.8c-0.2,20.8-31.5,51.7-52.3,51.5"/>
	<path class="st28" d="M231,104.8c-41,28.1-144.8,8.7-172.9-32.4"/>
	<path class="st28" d="M231,104.8C196.1,119,122.6,87.9,108.4,53"/>
	<path class="st28" d="M231,104.8c-43.8,44.8-176.7,46.3-221.5,2.6"/>
	<path class="st28" d="M178.7,156.4c-40.9,7.4-113.4-43-120.7-83.9"/>
	<path class="st28" d="M178.7,156.4c-34.7-6.7-77-68.7-70.3-103.4"/>
	<path class="st28" d="M178.7,156.4C135.1,180.5,33.5,151,9.5,107.3"/>
	<path class="st28" d="M178.7,156.4c-25.9-14.3-43.4-74.6-29.1-100.5"/>
	<path class="st28" d="M178.7,156.4c-21.3-20.2-22.9-82.4-2.7-103.7"/>
	<path class="st28" d="M58,72.5c6.2-14,36.4-25.6,50.3-19.5"/>
	<path class="st28" d="M58,72.5c-2.7,16.7-31.9,37.7-48.6,34.8"/>
	<path class="st28" d="M108.4,53c-8.9,30.7-68.3,63.3-99,54.4"/>
	<path class="st28" d="M9.4,107.3c24.9,22.3,28.7,93,6.5,117.8"/>
	<path class="st28" d="M149.7,55.9c4.7-5.9,20.5-7.8,26.4-3.2"/>
</g>
<g id="Layer_1">
	<path class="st29" d="M85.7,172.1c0-2.7-2.2-5-5-5c-2.7,0-5,2.2-5,5c0,2.7,2.2,5,5,5C83.5,177,85.7,174.8,85.7,172.1"/>
	<path class="st30" d="M256.1,172.3c0-3.4-2.8-6.2-6.2-6.2c-3.4,0-6.2,2.8-6.2,6.2s2.8,6.2,6.2,6.2
		C253.2,178.5,256.1,175.8,256.1,172.3"/>
	<path class="st29" d="M34.6,169.7c0-2.8-2.3-5-5-5c-2.8,0-5,2.3-5,5c0,2.8,2.3,5,5,5S34.6,172.5,34.6,169.7"/>
	<path class="st29" d="M57.4,129.2c0-3.1-2.5-5.5-5.5-5.5s-5.5,2.5-5.5,5.5s2.5,5.5,5.5,5.5C55,134.7,57.4,132.2,57.4,129.2"/>
	<path class="st29" d="M115.1,121c0-3.3-2.7-6-6-6c-3.3,0-6,2.7-6,6c0,3.3,2.7,6,6,6C112.4,127,115.1,124.3,115.1,121"/>
	<path class="st30" d="M167.7,93.1c0-4-3.3-7.3-7.2-7.3c-4,0-7.3,3.3-7.3,7.3c0,4,3.3,7.3,7.3,7.3
		C164.4,100.3,167.7,97.1,167.7,93.1"/>
	<path class="st30" d="M237.8,104.8c0-3.8-3.1-6.8-6.8-6.8c-3.8,0-6.8,3.1-6.8,6.8c0,3.8,3.1,6.8,6.8,6.8
		C234.7,111.6,237.8,108.6,237.8,104.8"/>
	<path class="st30" d="M185.2,156.4c0-3.6-2.9-6.4-6.4-6.4c-3.6,0-6.5,2.9-6.5,6.4c0,3.6,2.9,6.5,6.5,6.5
		C182.2,162.9,185.2,160,185.2,156.4"/>
	<path class="st29" d="M64.2,72.5c0-3.4-2.8-6.2-6.2-6.2c-3.4,0-6.2,2.8-6.2,6.2s2.8,6.2,6.2,6.2C61.4,78.7,64.2,75.9,64.2,72.5"/>
	<path class="st30" d="M115,53c0-3.6-2.9-6.6-6.6-6.6c-3.6,0-6.6,2.9-6.6,6.6c0,3.6,2.9,6.6,6.6,6.6C112.1,59.6,115,56.6,115,53"/>
	<path class="st29" d="M14.7,107.4c0-2.9-2.4-5.3-5.3-5.3s-5.3,2.4-5.3,5.3s2.4,5.3,5.3,5.3C12.4,112.7,14.7,110.3,14.7,107.4"/>
	<path class="st30" d="M151.8,55.9c0-1.2-0.9-2.1-2.1-2.1c-1.2,0-2.1,0.9-2.1,2.1s0.9,2.1,2.1,2.1S151.8,57,151.8,55.9"/>
	<path class="st29" d="M126.3,163.1c0-1.5-1.2-2.8-2.8-2.8c-1.5,0-2.8,1.2-2.8,2.8s1.2,2.8,2.8,2.8
		C125.1,165.9,126.3,164.7,126.3,163.1"/>
	<path class="st30" d="M178.2,52.7c0-1.2-0.9-2.1-2.1-2.1c-1.2,0-2.1,0.9-2.1,2.1s0.9,2.1,2.1,2.1S178.2,53.9,178.2,52.7"/>
	<path class="st29" d="M61.1,204.7c0-1.9-1.5-3.4-3.4-3.4c-1.9,0-3.4,1.5-3.4,3.4c0,1.9,1.5,3.4,3.4,3.4S61.1,206.6,61.1,204.7"/>
	<path class="st29" d="M20.7,225.2c0-2.6-2.1-4.8-4.8-4.8c-2.6,0-4.8,2.1-4.8,4.8c0,2.6,2.1,4.8,4.8,4.8S20.7,227.9,20.7,225.2"/>
	<g id="Layer_3" class="st0">
		<path class="st31" d="M78.6,167.4c0-7.5-6.1-13.5-13.5-13.5c-7.5,0-13.5,6.1-13.5,13.5c0,7.5,6.1,13.5,13.5,13.5
			S78.6,174.9,78.6,167.4"/>
		<path class="st31" d="M267.5,167.6c0-9.4-7.6-17.1-17.1-17.1c-9.4,0-17.1,7.6-17.1,17.1c0,9.4,7.6,17.1,17.1,17.1
			C259.8,184.6,267.5,177.1,267.5,167.6"/>
		<path class="st31" d="M22.6,164.8c0-7.5-6.1-13.7-13.7-13.7c-7.5,0-13.7,6.1-13.7,13.7c0,7.5,6.1,13.7,13.7,13.7
			S22.6,172.4,22.6,164.8"/>
		<path class="st31" d="M48.6,120.3c0-8.4-6.8-15.1-15.1-15.1c-8.4,0-15.1,6.8-15.1,15.1c0,8.4,6.8,15.1,15.1,15.1
			S48.6,128.6,48.6,120.3"/>
		<path class="st31" d="M112.4,111.3c0-9-7.3-16.4-16.4-16.4c-9,0-16.4,7.3-16.4,16.4c0,9,7.3,16.3,16.4,16.3
			C105.1,127.8,112.4,120.3,112.4,111.3"/>
		<path class="st31" d="M218.5,54.2c0-3.6-2.9-6.6-6.6-6.6c-3.6,0-6.6,2.9-6.6,6.6c0,3.6,2.9,6.6,6.6,6.6S218.5,57.8,218.5,54.2"/>
		<path class="st31" d="M173.8-0.9c0-10.2-8.2-18.4-18.4-18.4S137-11,137-0.9c0,10.2,8.3,18.4,18.4,18.4
			C165.6,17.5,173.8,9.4,173.8-0.9"/>
		<path class="st31" d="M172.3,80.8c0-11-8.9-19.9-19.9-19.9s-19.9,8.9-19.9,19.9s8.9,19.9,19.9,19.9
			C163.4,100.7,172.3,91.8,172.3,80.8"/>
		<path class="st31" d="M248.4,93.7c0-10.3-8.4-18.7-18.7-18.7S211,83.3,211,93.7s8.4,18.7,18.7,18.7
			C240.1,112.3,248.4,103.9,248.4,93.7"/>
		<path class="st31" d="M138.1,170.6c0-3.8-3.1-6.9-6.9-6.9c-3.8,0-6.9,3.1-6.9,6.9c0,3.8,3.1,6.9,6.9,6.9
			C135,177.6,138.1,174.4,138.1,170.6"/>
		<path class="st31" d="M190.2,150.1c0-9.8-7.9-17.7-17.7-17.7s-17.7,7.9-17.7,17.7c0,9.8,7.9,17.7,17.7,17.7
			C182.2,167.9,190.2,159.9,190.2,150.1"/>
		<path class="st31" d="M125.2,215.6c0-10.9-8.9-19.8-19.8-19.8s-19.8,8.9-19.8,19.8c0,10.9,8.9,19.8,19.8,19.8
			C116.4,235.4,125.2,226.4,125.2,215.6"/>
		<path class="st31" d="M165.9,195.1c0-4.1-3.3-7.4-7.4-7.4c-4.1,0-7.4,3.3-7.4,7.4c0,4.1,3.3,7.4,7.4,7.4
			C162.6,202.4,165.9,199.1,165.9,195.1"/>
		<path class="st31" d="M57.1,58.2c0-9.4-7.6-17-17-17s-17,7.6-17,17s7.6,17,17,17S57.1,67.6,57.1,58.2"/>
		<path class="st31" d="M113.4,36.8c0-10-8.1-18.1-18.1-18.1s-18.1,8.1-18.1,18.1s8.1,18.1,18.1,18.1S113.4,46.8,113.4,36.8"/>
		<path class="st31" d="M198,48c0-3.4-2.8-6.2-6.2-6.2s-6.2,2.8-6.2,6.2s2.8,6.2,6.2,6.2S198,51.5,198,48"/>
		<path class="st31" d="M239.1,8.5c0-10.2-8.3-18.6-18.6-18.6c-10.2,0-18.6,8.3-18.6,18.6c0,10.2,8.3,18.6,18.6,18.6
			C230.8,27,239.1,18.8,239.1,8.5"/>
		<path class="st31" d="M1.5,96.4c0-8.1-6.6-14.7-14.7-14.7s-14.6,6.6-14.6,14.7s6.6,14.6,14.6,14.6C-5.1,111.1,1.5,104.4,1.5,96.4"
			/>
		<path class="st31" d="M146.4,40c0-3.2-2.6-5.8-5.8-5.8s-5.8,2.6-5.8,5.8s2.6,5.8,5.8,5.8C143.8,45.8,146.4,43.2,146.4,40"/>
		<path class="st31" d="M119.6,157.6c0-4.2-3.4-7.5-7.5-7.5c-4.2,0-7.5,3.4-7.5,7.5c0,4.2,3.4,7.5,7.5,7.5
			C116.2,165.1,119.6,161.6,119.6,157.6"/>
		<path class="st31" d="M203.8,66.8c0-3.1-2.5-5.6-5.6-5.6s-5.6,2.5-5.6,5.6s2.5,5.6,5.6,5.6S203.8,69.8,203.8,66.8"/>
		<path class="st31" d="M175.4,36.5c0-3.2-2.6-5.8-5.8-5.8s-5.8,2.6-5.8,5.8s2.6,5.8,5.8,5.8C172.8,42.2,175.4,39.7,175.4,36.5"/>
		<path class="st31" d="M49.1,203.1c0-5.2-4.2-9.4-9.4-9.4s-9.4,4.2-9.4,9.4s4.2,9.4,9.4,9.4C44.9,212.6,49.1,208.4,49.1,203.1"/>
		<path class="st31" d="M38.1-0.5c0-8.1-6.6-14.6-14.6-14.6c-8.1,0-14.6,6.6-14.6,14.6c0,8.1,6.6,14.6,14.6,14.6
			C31.6,14.1,38.1,7.6,38.1-0.5"/>
		<path class="st31" d="M7.1,225.6c0-7.3-5.9-13.2-13.2-13.2s-13.2,5.9-13.2,13.2s5.9,13.2,13.2,13.2C1.2,238.9,7.1,232.9,7.1,225.6
			"/>
	</g>
	<g id="Layer_2" class="st0">
		<text transform="matrix(1 0 0 1 39.7279 169.1793)" class="st32 st33 st34">Argentina</text>
		<text transform="matrix(1 0 0 1 230.06 181.6059)" class="st32 st33 st35">Belize</text>
		<text transform="matrix(1 0 0 1 -5.9752 175.9698)" class="st32 st33 st36">Brazil</text>
		<text transform="matrix(1 0 0 1 18.3452 133.3165)" class="st32 st33 st37">Chile</text>
		<text transform="matrix(1 0 0 1 65.7894 125.4405)" class="st32 st33 st38">Colombia</text>
		<text transform="matrix(1 0 0 1 199.5423 59.9278)" class="st32 st33 st39">COMEXA</text>
		<text transform="matrix(1 0 0 1 115.9477 15.0288)" class="st32 st33 st40">Costa Rica</text>
		<text transform="matrix(1 0 0 1 74.9594 84.275)" class="st32 st33 st41">Dominican Republic</text>
		<text transform="matrix(1 0 0 1 -45.5982 50.608)" class="st32 st33 st42">Ecuador</text>
		<text transform="matrix(1 0 0 1 188.9145 109.6905)" class="st32 st33 st43">El Salvador</text>
		<text transform="matrix(1 0 0 1 124.5057 176.6114)" class="st32 st33 st44">FIAB</text>
		<text transform="matrix(1 0 0 1 138.7915 164.7071)" class="st32 st33 st46">Honduras</text>
		<text transform="matrix(1 0 0 1 151.3164 201.398)" class="st32 st33 st47">ILCE</text>
		<text transform="matrix(1 0 0 1 16.5864 72.0279)" class="st32 st33 st48">Mexico</text>
		<text transform="matrix(1 0 0 1 59.2534 39.2545)" class="st32 st33 st49">Nicaragua</text>
		<text transform="matrix(1 0 0 1 184.2866 53.3375)" class="st32 st33 st50">OTCA</text>
		<text transform="matrix(1 0 0 1 190.2894 23.6953)" class="st32 st33 st51">Panama</text>
		<text transform="matrix(1 0 0 1 -26.6636 108.3727)" class="st32 st33 st52">Peru</text>
		<text transform="matrix(1 0 0 1 130.5018 45.0118)" class="st32 st33 st53">PTCARL</text>
		<text transform="matrix(1 0 0 1 101.2719 163.9981)" class="st32 st33 st54">RELPE</text>
		<text transform="matrix(1 0 0 1 185.4779 67.7706)" class="st32 st33 st55">Selva Maya</text>
		<text transform="matrix(1 0 0 1 157.0962 41.4937)" class="st32 st33 st53">SET-CTPT</text>
		<text transform="matrix(1 0 0 1 29.2373 205.2491)" class="st32 st33 st56">Spain</text>
		<text transform="matrix(1 0 0 1 -0.71 1.5499)" class="st32 st33 st52">Uruguay</text>
		<text transform="matrix(1 0 0 1 -33.2705 236.4214)" class="st32 st33 st57">Venezuela</text>
	</g>
	<g id="Layer_5" class="st0">
		<text transform="matrix(1 0 0 1 73.2553 237.0787)" class="st32 st33 st58">IDB</text>
	</g>
</g>
</svg>
