<?xml version="1.0" encoding="utf-8"?>
<!-- Generator: Adobe Illustrator 20.0.0, SVG Export Plug-In . SVG Version: 6.00 Build 0)  -->
<svg version="1.1" xmlns="http://www.w3.org/2000/svg" xmlns:xlink="http://www.w3.org/1999/xlink" x="0px" y="0px"
	 viewBox="0 0 200 200" style="enable-background:new 0 0 200 200;" xml:space="preserve">
<style type="text/css">
	.st0{fill:#F1F2F2;}
	.st1{fill:none;stroke:#BCBEC0;stroke-width:0.1;stroke-miterlimit:10;}
	.st2{fill:none;stroke:#BCBEC0;stroke-width:0.1;stroke-miterlimit:10;stroke-dasharray:1.1009,4.4037;}
	.st3{fill:none;stroke:#BCBEC0;stroke-width:0.1;stroke-miterlimit:10;stroke-dasharray:1.101,4.404;}
	.st4{fill:none;stroke:#BCBEC0;stroke-width:0.1;stroke-miterlimit:10;stroke-dasharray:1.1009,4.4035;}
	.st5{fill:none;stroke:#BCBEC0;stroke-width:0.1;stroke-miterlimit:10;stroke-dasharray:1.1361,4.5445;}
	.st6{fill:none;stroke:#BCBEC0;stroke-width:0.1;stroke-miterlimit:10;stroke-dasharray:1.1361,4.5446;}
	.st7{fill:none;stroke:#BCBEC0;stroke-width:0.1;stroke-miterlimit:10;stroke-dasharray:1.1362,4.5448;}
	.st8{fill:none;stroke:#BCBEC0;stroke-width:0.1;stroke-miterlimit:10;stroke-dasharray:1.1361,4.5443;}
	.st9{fill:none;stroke:#BCBEC0;stroke-width:0.1;stroke-miterlimit:10;stroke-dasharray:1.1364,4.5454;}
	.st10{fill:none;stroke:#808285;stroke-width:0.5;stroke-miterlimit:10;}
	.st11{fill:none;stroke:#6D6E71;stroke-width:0.25;stroke-miterlimit:10;}
	.st12{fill:none;stroke:#000000;stroke-width:1.104;stroke-miterlimit:10;}
	.st13{fill:none;stroke:#000000;stroke-width:0.9864;stroke-miterlimit:10;}
	.st14{fill:#58595B;stroke:#A7A9AB;stroke-width:0.1;stroke-miterlimit:10;}
	.st15{fill:#664099;stroke:#63499D;stroke-miterlimit:10;}
	.st16{fill:#F9A01B;}
	.st17{fill:#25B34B;}
	.st18{fill:#FFF200;}
	.st19{fill:#00AEEF;}
	.st20{fill:#B2D235;}
	.st21{fill:#00AAAD;}
	.st22{fill:#ED1164;}
	.st23{fill:#F15A22;}
	.st24{fill:#63499D;}
	.st25{fill:#B97810;stroke:#B97812;stroke-width:2;stroke-miterlimit:10;}
	.st26{fill:#F15A22;stroke:#F05B24;stroke-width:5;stroke-miterlimit:10;}
	.st27{fill:none;stroke:#000000;stroke-width:0.64;stroke-miterlimit:10;}
	.st28{fill:#FFF200;stroke:#FCEE1E;stroke-width:8;stroke-miterlimit:10;}
	.st29{fill:#FFF200;stroke:#FCEE1E;stroke-width:2;stroke-miterlimit:10;}
	.st30{fill:#FFF200;stroke:#FCEE1E;stroke-width:10;stroke-miterlimit:10;}
	.st31{fill:#C1B400;stroke:#B8B11B;stroke-width:8;stroke-miterlimit:10;}
	.st32{fill:#ED1164;stroke:#ED1465;stroke-width:13;stroke-miterlimit:10;}
	.st33{fill:#B1004A;stroke:#B1004A;stroke-width:3;stroke-miterlimit:10;}
	.st34{fill:#ED1164;stroke:#ED1465;stroke-width:17;stroke-miterlimit:10;}
	.st35{fill:#ED1164;stroke:#ED1465;stroke-width:6;stroke-miterlimit:10;}
	.st36{fill:#ED1164;stroke:#ED1465;stroke-width:5;stroke-miterlimit:10;}
	.st37{fill:#ED1164;stroke:#ED1465;stroke-width:10;stroke-miterlimit:10;}
	.st38{fill:#ED1164;stroke:#ED1465;stroke-width:4;stroke-miterlimit:10;}
	.st39{fill:#ED1164;stroke:#ED1465;stroke-width:14;stroke-miterlimit:10;}
	.st40{fill:#ED1164;stroke:#ED1465;stroke-width:16;stroke-miterlimit:10;}
	.st41{fill:#B2D235;stroke:#B2D236;stroke-width:3;stroke-miterlimit:10;}
	.st42{fill:#B2D235;stroke:#B2D236;stroke-width:8;stroke-miterlimit:10;}
	.st43{fill:#B2D235;stroke:#B2D236;stroke-width:15;stroke-miterlimit:10;}
	.st44{fill:#B2D235;stroke:#B2D236;stroke-width:13;stroke-miterlimit:10;}
	.st45{fill:#839E25;stroke:#839E25;stroke-width:3;stroke-miterlimit:10;}
	.st46{fill:#B2D235;stroke:#B2D236;stroke-width:31;stroke-miterlimit:10;}
	.st47{fill:#B2D235;stroke:#B2D236;stroke-width:17;stroke-miterlimit:10;}
	.st48{fill:#B2D235;stroke:#B2D236;stroke-width:40;stroke-miterlimit:10;}
	.st49{fill:#F15A22;stroke:#F05B24;stroke-width:28;stroke-miterlimit:10;}
	.st50{fill:#F15A22;stroke:#F05B24;stroke-width:7;stroke-miterlimit:10;}
	.st51{fill:#F15A22;stroke:#F05B24;stroke-width:15;stroke-miterlimit:10;}
	.st52{fill:#F15A22;stroke:#F05B24;stroke-width:11;stroke-miterlimit:10;}
	.st53{fill:#B34215;stroke:#B34217;stroke-width:20;stroke-miterlimit:10;}
	.st54{fill:#F15A22;stroke:#F05B24;stroke-width:10;stroke-miterlimit:10;}
	.st55{fill:#F15A22;stroke:#F05B24;stroke-width:2;stroke-miterlimit:10;}
	.st56{fill:#F15A22;stroke:#F05B24;stroke-width:20;stroke-miterlimit:10;}
	.st57{fill:#F15A22;stroke:#F05B24;stroke-width:6;stroke-miterlimit:10;}
	.st58{fill:#F15A22;stroke:#F05B24;stroke-width:25;stroke-miterlimit:10;}
	.st59{fill:#00AAAD;stroke:#00A9AC;stroke-width:10;stroke-miterlimit:10;}
	.st60{fill:#00AAAD;stroke:#00A9AC;stroke-width:35;stroke-miterlimit:10;}
	.st61{fill:#00AAAD;stroke:#00A9AC;stroke-width:9;stroke-miterlimit:10;}
	.st62{fill:#00AAAD;stroke:#00A9AC;stroke-width:23;stroke-miterlimit:10;}
	.st63{fill:#00AAAD;stroke:#00A9AC;stroke-width:11;stroke-miterlimit:10;}
	.st64{fill:#00AAAD;stroke:#00A9AC;stroke-width:13;stroke-miterlimit:10;}
	.st65{fill:#00AAAD;stroke:#00A9AC;stroke-width:8;stroke-miterlimit:10;}
	.st66{fill:#00AAAD;stroke:#00A9AC;stroke-width:7;stroke-miterlimit:10;}
	.st67{fill:#F9A01B;stroke:#F9A01D;stroke-width:5;stroke-miterlimit:10;}
	.st68{fill:#FFFFFF;stroke:#000000;stroke-width:0.512;stroke-miterlimit:10;}
	.st69{fill:#B97810;stroke:#B97812;stroke-width:3;stroke-miterlimit:10;}
	.st70{fill:#F9A01B;stroke:#F9A01D;stroke-width:3;stroke-miterlimit:10;}
	.st71{fill:#B97810;stroke:#B97812;stroke-width:5;stroke-miterlimit:10;}
	.st72{fill:#F9A01B;stroke:#F9A01D;stroke-width:2;stroke-miterlimit:10;}
	.st73{fill:#F9A01B;stroke:#F9A01D;stroke-width:4;stroke-miterlimit:10;}
	.st74{fill:#F9A01B;stroke:#F9A01D;stroke-miterlimit:10;}
	.st75{fill:#B97810;stroke:#B97812;stroke-width:4;stroke-miterlimit:10;}
	.st76{fill:#F9A01B;stroke:#F9A01D;stroke-width:6;stroke-miterlimit:10;}
	.st77{fill:#C1B400;stroke:#B8B11B;stroke-width:14;stroke-miterlimit:10;}
	.st78{fill:#25B34B;stroke:#28B24B;stroke-width:4;stroke-miterlimit:10;}
	.st79{fill:#25B34B;stroke:#28B24B;stroke-width:6;stroke-miterlimit:10;}
	.st80{fill:#25B34B;stroke:#28B24B;stroke-width:5;stroke-miterlimit:10;}
	.st81{fill:#005E21;stroke:#0A5E30;stroke-width:2;stroke-miterlimit:10;}
	.st82{fill:#005E21;stroke:#0A5E30;stroke-width:5;stroke-miterlimit:10;}
	.st83{fill:#FFF200;stroke:#FCEE1E;stroke-width:13;stroke-miterlimit:10;}
	.st84{fill:#C1B400;stroke:#B8B11B;stroke-width:12;stroke-miterlimit:10;}
	.st85{fill:#FFF200;stroke:#FCEE1E;stroke-width:11;stroke-miterlimit:10;}
	.st86{fill:#C1B400;stroke:#B8B11B;stroke-width:11;stroke-miterlimit:10;}
	.st87{fill:#FFF200;stroke:#FCEE1E;stroke-width:12;stroke-miterlimit:10;}
	.st88{fill:#00AEEF;stroke:#2BABE2;stroke-width:15;stroke-miterlimit:10;}
	.st89{fill:#0084B6;stroke:#0084B6;stroke-width:19;stroke-miterlimit:10;}
	.st90{fill:#00AEEF;stroke:#2BABE2;stroke-width:7;stroke-miterlimit:10;}
	.st91{fill:#00AEEF;stroke:#2BABE2;stroke-width:5;stroke-miterlimit:10;}
	.st92{fill:#00AEEF;stroke:#2BABE2;stroke-width:21;stroke-miterlimit:10;}
	.st93{fill:#00AEEF;stroke:#2BABE2;stroke-width:6;stroke-miterlimit:10;}
	.st94{fill:#00AEEF;stroke:#2BABE2;stroke-width:24;stroke-miterlimit:10;}
	.st95{fill:#B34215;stroke:#B34217;stroke-width:6;stroke-miterlimit:10;}
	.st96{fill:#B34215;stroke:#B34217;stroke-width:7;stroke-miterlimit:10;}
	.st97{fill:#F15A22;stroke:#F05B24;stroke-width:4;stroke-miterlimit:10;}
	.st98{fill:#B34215;stroke:#B34217;stroke-width:5;stroke-miterlimit:10;}
	.st99{fill:#B34215;stroke:#B34217;stroke-width:2;stroke-miterlimit:10;}
	.st100{fill:#B34215;stroke:#B34217;stroke-width:3;stroke-miterlimit:10;}
	.st101{fill:#63499D;stroke:#63499D;stroke-width:4;stroke-miterlimit:10;}
	.st102{fill:#63499D;stroke:#63499D;stroke-width:2;stroke-miterlimit:10;}
	.st103{fill:#63499D;stroke:#63499D;stroke-width:8;stroke-miterlimit:10;}
	.st104{fill:#63499D;stroke:#63499D;stroke-width:11;stroke-miterlimit:10;}
	.st105{fill:#4A3378;stroke:#4A3378;stroke-width:4;stroke-miterlimit:10;}
	.st106{fill:#63499D;stroke:#63499D;stroke-width:6;stroke-miterlimit:10;}
	.st107{fill:#4A3378;stroke:#4A3378;stroke-width:2;stroke-miterlimit:10;}
	.st108{fill:#63499D;stroke:#63499D;stroke-width:3;stroke-miterlimit:10;}
	.st109{fill:#839E25;stroke:#839E25;stroke-width:7;stroke-miterlimit:10;}
	.st110{fill:#B2D235;stroke:#B2D235;stroke-width:23;stroke-miterlimit:10;}
	.st111{fill:#839E25;stroke:#839E25;stroke-width:6;stroke-miterlimit:10;}
	.st112{fill:#839E25;stroke:#839E25;stroke-width:14;stroke-miterlimit:10;}
	.st113{fill:#839E25;stroke:#839E25;stroke-width:13;stroke-miterlimit:10;}
	.st114{fill:#B2D235;stroke:#B2D235;stroke-width:15;stroke-miterlimit:10;}
	.st115{fill:#839E25;stroke:#839E25;stroke-width:2;stroke-miterlimit:10;}
	.st116{fill:#00AAAD;stroke:#00A9AC;stroke-width:3;stroke-miterlimit:10;}
	.st117{fill:#00AAAD;stroke:#00A9AC;stroke-width:2;stroke-miterlimit:10;}
	.st118{fill:#008283;stroke:#008182;stroke-width:9;stroke-miterlimit:10;}
	.st119{fill:#ED1164;stroke:#ED1465;stroke-miterlimit:10;}
	.st120{fill:#B1004A;stroke:#B1004A;stroke-width:9;stroke-miterlimit:10;}
	.st121{fill:#ED1164;stroke:#ED1465;stroke-width:7;stroke-miterlimit:10;}
	.st122{fill:#B1004A;stroke:#B1004A;stroke-width:4;stroke-miterlimit:10;}
	.st123{fill:#ED1164;stroke:#ED1465;stroke-width:8;stroke-miterlimit:10;}
	.st124{fill:#B1004A;stroke:#B1004A;stroke-width:2;stroke-miterlimit:10;}
	.st125{fill:#B1004A;stroke:#B1004A;stroke-width:15;stroke-miterlimit:10;}
	.st126{fill:#005E21;stroke:#0A5E30;stroke-width:12;stroke-miterlimit:10;}
	.st127{fill:#25B34B;stroke:#28B24B;stroke-width:7;stroke-miterlimit:10;}
	.st128{fill:#25B34B;stroke:#28B24B;stroke-width:2;stroke-miterlimit:10;}
	.st129{fill:#25B34B;stroke:#28B24B;stroke-width:8;stroke-miterlimit:10;}
	.st130{fill:#C1B400;stroke:#B8B11B;stroke-width:2;stroke-miterlimit:10;}
	.st131{fill:#C1B400;stroke:#B8B11B;stroke-width:3;stroke-miterlimit:10;}
	.st132{fill:#FFF200;stroke:#FCEE1E;stroke-width:3;stroke-miterlimit:10;}
	.st133{fill:#C1B400;stroke:#B8B11B;stroke-width:4;stroke-miterlimit:10;}
	.st134{fill:#C1B400;stroke:#B8B11B;stroke-width:6;stroke-miterlimit:10;}
	.st135{fill:#C1B400;stroke:#B8B11B;stroke-width:13;stroke-miterlimit:10;}
	.st136{fill:#C1B400;stroke:#B8B11B;stroke-width:7;stroke-miterlimit:10;}
	.st137{fill:#C1B400;stroke:#B8B11B;stroke-width:9;stroke-miterlimit:10;}
	.st138{fill:#FFF200;stroke:#FCEE1E;stroke-width:7;stroke-miterlimit:10;}
	.st139{fill:#C1B400;stroke:#B8B11B;stroke-width:27;stroke-miterlimit:10;}
	.st140{fill:#C1B400;stroke:#B8B11B;stroke-width:18;stroke-miterlimit:10;}
	.st141{fill:#C1B400;stroke:#B8B11B;stroke-width:19;stroke-miterlimit:10;}
	.st142{fill:#C1B400;stroke:#B8B11B;stroke-width:17;stroke-miterlimit:10;}
	.st143{fill:#C1B400;stroke:#B8B11B;stroke-width:15;stroke-miterlimit:10;}
	.st144{fill:#C1B400;stroke:#B8B11B;stroke-width:20;stroke-miterlimit:10;}
	.st145{fill:#B97810;stroke:#B97812;stroke-width:6;stroke-miterlimit:10;}
	.st146{fill:#F9A01B;stroke:#F9A01D;stroke-width:7;stroke-miterlimit:10;}
	.st147{fill:#00AEEF;stroke:#2BABE2;stroke-width:3;stroke-miterlimit:10;}
	.st148{fill:#00AEEF;stroke:#2BABE2;stroke-width:2;stroke-miterlimit:10;}
	.st149{fill:#0084B6;stroke:#0084B6;stroke-width:11;stroke-miterlimit:10;}
	.st150{fill:#00AEEF;stroke:#2BABE2;stroke-width:4;stroke-miterlimit:10;}
	.st151{fill:#00AEEF;stroke:#2BABE2;stroke-width:9;stroke-miterlimit:10;}
	.st152{fill:#FFF200;stroke:#FCEE1E;stroke-width:6;stroke-miterlimit:10;}
	.st153{fill:#4A3378;stroke:#4A3378;stroke-width:12;stroke-miterlimit:10;}
	.st154{fill:#B34215;stroke:#B34217;stroke-width:4;stroke-miterlimit:10;}
	.st155{fill:#B1004A;stroke:#B1004A;stroke-width:10;stroke-miterlimit:10;}
	.st156{fill:#B1004A;stroke:#B1004A;stroke-width:7;stroke-miterlimit:10;}
	.st157{fill:#ED1164;stroke:#ED1465;stroke-width:3;stroke-miterlimit:10;}
	.st158{fill:#B1004A;stroke:#B1004A;stroke-width:12;stroke-miterlimit:10;}
	.st159{fill:#ED1164;stroke:#ED1465;stroke-width:12;stroke-miterlimit:10;}
	.st160{fill:#B1004A;stroke:#B1004A;stroke-width:6;stroke-miterlimit:10;}
	.st161{fill:#B1004A;stroke:#B1004A;stroke-width:8;stroke-miterlimit:10;}
	.st162{fill:#4A3378;stroke:#4A3378;stroke-width:3;stroke-miterlimit:10;}
	.st163{fill:#4A3378;stroke:#4A3378;stroke-width:6;stroke-miterlimit:10;}
	.st164{fill:#63499D;stroke:#63499D;stroke-width:5;stroke-miterlimit:10;}
	.st165{fill:#839E25;stroke:#839E25;stroke-width:9;stroke-miterlimit:10;}
	.st166{fill:#B2D235;stroke:#B2D236;stroke-width:10;stroke-miterlimit:10;}
	.st167{fill:#839E25;stroke:#839E25;stroke-width:12;stroke-miterlimit:10;}
	.st168{fill:#B2D235;stroke:#B2D236;stroke-width:2;stroke-miterlimit:10;}
	.st169{fill:#B2D235;stroke:#B2D236;stroke-width:4;stroke-miterlimit:10;}
	.st170{fill:#839E25;stroke:#839E25;stroke-width:10;stroke-miterlimit:10;}
	.st171{fill:#B2D235;stroke:#B2D236;stroke-width:25;stroke-miterlimit:10;}
	.st172{fill:#839E25;stroke:#839E25;stroke-width:4;stroke-miterlimit:10;}
	.st173{fill:#B2D235;stroke:#B2D236;stroke-width:12;stroke-miterlimit:10;}
	.st174{fill:#008283;stroke:#008182;stroke-width:11;stroke-miterlimit:10;}
	.st175{fill:#008283;stroke:#008182;stroke-width:10;stroke-miterlimit:10;}
	.st176{fill:#008283;stroke:#008182;stroke-width:4;stroke-miterlimit:10;}
	.st177{fill:#008283;stroke:#008182;stroke-width:5;stroke-miterlimit:10;}
	.st178{fill:#00AAAD;stroke:#00A9AC;stroke-width:4;stroke-miterlimit:10;}
	.st179{fill:#008283;stroke:#008182;stroke-width:13;stroke-miterlimit:10;}
	.st180{fill:#008283;stroke:#008182;stroke-width:12;stroke-miterlimit:10;}
	.st181{fill:#00AAAD;stroke:#00A9AC;stroke-width:16;stroke-miterlimit:10;}
	.st182{fill:#FFF200;stroke:#FCEE1E;stroke-width:14;stroke-miterlimit:10;}
	.st183{fill:#FFF200;stroke:#FCEE1E;stroke-width:19;stroke-miterlimit:10;}
	.st184{fill:#0084B6;stroke:#0084B6;stroke-width:2;stroke-miterlimit:10;}
	.st185{fill:#00AEEF;stroke:#2BABE2;stroke-width:18;stroke-miterlimit:10;}
	.st186{fill:#0084B6;stroke:#0084B6;stroke-width:6;stroke-miterlimit:10;}
	.st187{fill:#00AEEF;stroke:#2BABE2;stroke-width:8;stroke-miterlimit:10;}
	.st188{fill:#0084B6;stroke:#0084B6;stroke-width:8;stroke-miterlimit:10;}
	.st189{fill:#0084B6;stroke:#0084B6;stroke-width:16;stroke-miterlimit:10;}
	.st190{fill:#0084B6;stroke:#0084B6;stroke-width:15;stroke-miterlimit:10;}
	.st191{fill:#00AEEF;stroke:#2BABE2;stroke-width:17;stroke-miterlimit:10;}
	.st192{fill:#25B34B;stroke:#28B24B;stroke-width:12;stroke-miterlimit:10;}
	.st193{fill:#005E21;stroke:#0A5E30;stroke-width:9;stroke-miterlimit:10;}
	.st194{fill:#25B34B;stroke:#28B24B;stroke-width:3;stroke-miterlimit:10;}
	.st195{fill:#25B34B;stroke:#28B24B;stroke-miterlimit:10;}
	.st196{fill:#005E21;stroke:#0A5E30;stroke-width:3;stroke-miterlimit:10;}
	.st197{fill:#25B34B;stroke:#28B24B;stroke-width:10;stroke-miterlimit:10;}
	.st198{fill:#005E21;stroke:#0A5E30;stroke-width:13;stroke-miterlimit:10;}
	.st199{fill:#FFFFFF;stroke:#000000;stroke-width:0.52;stroke-miterlimit:10;}
	.st200{fill:#A7A9AC;}
</style>
<g id="Layer_17">
</g>
<g id="GRID">
	<g>
		<g>
			<g>
				<g>
					<line class="st2" x1="-1006.9" y1="121.8" x2="1236.8" y2="121.8"/>
				</g>
			</g>
			<g>
				<g>
					<line class="st2" x1="-1006.9" y1="132.7" x2="1236.8" y2="132.7"/>
				</g>
			</g>
			<g>
				<g>
					<line class="st2" x1="-1006.9" y1="143.5" x2="1236.8" y2="143.5"/>
				</g>
			</g>
			<g>
				<g>
					<line class="st2" x1="-1006.9" y1="154.4" x2="1236.8" y2="154.4"/>
				</g>
			</g>
			<g>
				<g>
					<line class="st2" x1="-1006.9" y1="165.3" x2="1236.8" y2="165.3"/>
				</g>
			</g>
			<g>
				<g>
					<line class="st2" x1="-1006.9" y1="176.2" x2="1236.8" y2="176.2"/>
				</g>
			</g>
			<g>
				<g>
					<line class="st2" x1="-1006.9" y1="187" x2="1236.8" y2="187"/>
				</g>
			</g>
			<g>
				<g>
					<line class="st2" x1="-1006.9" y1="197.9" x2="1236.8" y2="197.9"/>
				</g>
			</g>
		</g>
		<g>
			<g>
				<g>
					<line class="st2" x1="-996.6" y1="100.1" x2="1247" y2="100.1"/>
				</g>
			</g>
			<g>
				<g>
					<line class="st2" x1="-996.6" y1="2.2" x2="1247" y2="2.2"/>
				</g>
			</g>
			<g>
				<g>
					<line class="st2" x1="-996.6" y1="13.1" x2="1247" y2="13.1"/>
				</g>
			</g>
			<g>
				<g>
					<line class="st2" x1="-996.6" y1="23.9" x2="1247" y2="23.9"/>
				</g>
			</g>
			<g>
				<g>
					<line class="st2" x1="-996.6" y1="34.8" x2="1247" y2="34.8"/>
				</g>
			</g>
			<g>
				<g>
					<line class="st2" x1="-996.6" y1="45.7" x2="1247" y2="45.7"/>
				</g>
			</g>
			<g>
				<g>
					<line class="st2" x1="-996.6" y1="56.6" x2="1247" y2="56.6"/>
				</g>
			</g>
			<g>
				<g>
					<line class="st2" x1="-996.6" y1="67.4" x2="1247" y2="67.4"/>
				</g>
			</g>
			<g>
				<g>
					<line class="st2" x1="-996.6" y1="78.3" x2="1247" y2="78.3"/>
				</g>
			</g>
			<g>
				<g>
					<line class="st2" x1="-996.6" y1="89.2" x2="1247" y2="89.2"/>
				</g>
			</g>
			<g>
				<g>
					<line class="st2" x1="-1017.1" y1="110.9" x2="1226.6" y2="110.9"/>
				</g>
			</g>
		</g>
	</g>
	<g>
		<g>
			<g>
				<g>
					<line class="st6" x1="1.6" y1="-318.6" x2="1.6" y2="1002.8"/>
				</g>
			</g>
		</g>
		<g>
			<g>
				<g>
					<line class="st6" x1="23.3" y1="-324.6" x2="23.3" y2="996.7"/>
				</g>
			</g>
			<g>
				<g>
					<line class="st6" x1="132.1" y1="-324.6" x2="132.1" y2="996.7"/>
				</g>
			</g>
			<g>
				<g>
					<line class="st6" x1="121.2" y1="-324.6" x2="121.2" y2="996.7"/>
				</g>
			</g>
			<g>
				<g>
					<line class="st6" x1="110.3" y1="-324.6" x2="110.3" y2="996.7"/>
				</g>
			</g>
			<g>
				<g>
					<line class="st6" x1="99.4" y1="-324.6" x2="99.4" y2="996.7"/>
				</g>
			</g>
			<g>
				<g>
					<line class="st6" x1="88.6" y1="-324.6" x2="88.6" y2="996.7"/>
				</g>
			</g>
			<g>
				<g>
					<line class="st6" x1="77.7" y1="-324.6" x2="77.7" y2="996.7"/>
				</g>
			</g>
			<g>
				<g>
					<line class="st6" x1="66.8" y1="-324.6" x2="66.8" y2="996.7"/>
				</g>
			</g>
			<g>
				<g>
					<line class="st6" x1="55.9" y1="-324.6" x2="55.9" y2="996.7"/>
				</g>
			</g>
			<g>
				<g>
					<line class="st6" x1="45.1" y1="-324.6" x2="45.1" y2="996.7"/>
				</g>
			</g>
			<g>
				<g>
					<line class="st6" x1="34.2" y1="-324.6" x2="34.2" y2="996.7"/>
				</g>
			</g>
			<g>
				<g>
					<line class="st5" x1="12.4" y1="-336.7" x2="12.4" y2="984.6"/>
				</g>
			</g>
		</g>
		<g>
			<g>
				<g>
					<line class="st5" x1="153.8" y1="-306.4" x2="153.8" y2="1014.9"/>
				</g>
			</g>
			<g>
				<g>
					<line class="st5" x1="197.3" y1="-306.4" x2="197.3" y2="1014.9"/>
				</g>
			</g>
			<g>
				<g>
					<line class="st5" x1="186.4" y1="-306.4" x2="186.4" y2="1014.9"/>
				</g>
			</g>
			<g>
				<g>
					<line class="st5" x1="175.5" y1="-306.4" x2="175.5" y2="1014.9"/>
				</g>
			</g>
			<g>
				<g>
					<line class="st5" x1="164.7" y1="-306.4" x2="164.7" y2="1014.9"/>
				</g>
			</g>
			<g>
				<g>
					<line class="st6" x1="142.9" y1="-318.5" x2="142.9" y2="1002.8"/>
				</g>
			</g>
		</g>
	</g>
</g>
<g id="Smaller_ticks">
</g>
<g id="Larger_ticks">
	<g>
		<line class="st11" x1="99.5" y1="-2.6" x2="99.5" y2="658.6"/>
	</g>
</g>
<g id="Gray_lines">
	<line class="st14" x1="153.2" y1="81.8" x2="570.6" y2="81.8"/>
	<line class="st14" x1="106.6" y1="189" x2="552.7" y2="189"/>
	<line class="st14" x1="-20.2" y1="169.5" x2="429.5" y2="169.5"/>
	<line class="st14" x1="124.5" y1="104.5" x2="575.5" y2="104.5"/>
	<line class="st14" x1="94.5" y1="59.2" x2="472.3" y2="59.2"/>
	<line class="st14" x1="111.2" y1="19.7" x2="495.1" y2="19.7"/>
	<line class="st14" x1="117.3" y1="126.5" x2="561.2" y2="126.5"/>
</g>
<g id="Bars">
	<rect x="51.7" y="80.8" class="st16" width="468.9" height="2"/>
	<rect x="20.6" y="188" class="st23" width="178.5" height="2"/>
	<rect x="7.5" y="168.5" class="st22" width="606.7" height="2"/>
	<rect x="-15.2" y="147.7" class="st24" width="487" height="2"/>
	<rect x="190.8" y="103.5" class="st21" width="384.7" height="2"/>
	<rect x="106.3" y="58.3" class="st18" width="199.8" height="2"/>
	<rect x="-63.7" y="39.9" class="st19" width="649" height="2"/>
	<rect x="153.6" y="18.9" class="st17" width="326.4" height="2"/>
	<rect x="-6.8" y="125.5" class="st20" width="486.8" height="2"/>
</g>
<g id="TEXT">
</g>
<g id="Layer_1">
</g>
<g id="Isolation_Mode">
	<rect x="123.7" y="79.9" class="st25" width="3.7" height="3.7"/>
	<rect x="18.6" y="187.1" class="st26" width="3.7" height="3.7"/>
	<rect x="186.9" y="187.1" class="st154" width="3.7" height="3.7"/>
	<rect x="195.3" y="187.1" class="st26" width="3.7" height="3.7"/>
	<rect x="48" y="187.1" class="st97" width="3.7" height="3.7"/>
	<rect x="6.5" y="167.6" class="st37" width="3.7" height="3.7"/>
	<rect x="18.6" y="167.6" class="st121" width="3.7" height="3.7"/>
	<rect x="30.1" y="167.6" class="st120" width="3.7" height="3.7"/>
	<rect x="40" y="167.6" class="st122" width="3.7" height="3.7"/>
	<rect x="104" y="167.6" class="st155" width="3.7" height="3.7"/>
	<rect x="115.9" y="167.6" class="st156" width="3.7" height="3.7"/>
	<rect x="124.9" y="167.6" class="st38" width="3.7" height="3.7"/>
	<rect x="132.6" y="167.6" class="st38" width="3.7" height="3.7"/>
	<rect x="139.6" y="167.6" class="st157" width="3.7" height="3.7"/>
	<rect x="146.8" y="167.6" class="st122" width="3.7" height="3.7"/>
	<rect x="158.2" y="167.6" class="st158" width="3.7" height="3.7"/>
	<rect x="169.3" y="167.6" class="st38" width="3.7" height="3.7"/>
	<rect x="176.8" y="167.6" class="st124" width="3.7" height="3.7"/>
	<rect x="183.2" y="167.6" class="st124" width="3.7" height="3.7"/>
	<rect x="189.7" y="167.6" class="st157" width="3.7" height="3.7"/>
	<rect x="200.3" y="167.6" class="st159" width="3.7" height="3.7"/>
	<rect x="36.7" y="146.8" class="st105" width="3.7" height="3.7"/>
	<rect x="167.4" y="146.8" class="st162" width="3.7" height="3.7"/>
	<rect x="-0.3" y="125.2" class="st165" width="2.8" height="2.7"/>
	<rect x="57.8" y="125.2" class="st166" width="2.8" height="2.7"/>
	<rect x="164.9" y="125.2" class="st41" width="2.7" height="2.7"/>
	<rect x="174.9" y="125.2" class="st167" width="2.7" height="2.7"/>
	<rect x="184.2" y="125.2" class="st168" width="2.7" height="2.7"/>
	<rect x="190" y="125.2" class="st169" width="2.7" height="2.7"/>
	<g>
		<path class="st68" d="M123.3,104.5c0,1.1,0.9,1.9,1.9,1.9l0,0c1.1,0,1.9-0.9,1.9-1.9l0,0c0-1.1-0.9-1.9-1.9-1.9l0,0
			C124.2,102.5,123.3,103.4,123.3,104.5L123.3,104.5z"/>
		<circle cx="125.3" cy="104.5" r="0.4"/>
		<g>
			<circle class="st27" cx="125.3" cy="104.5" r="0.8"/>
		</g>
	</g>
	<rect x="188.2" y="102.6" class="st174" width="3.7" height="3.7"/>
	<rect x="200.5" y="102.6" class="st66" width="3.7" height="3.7"/>
	<rect x="49.9" y="79.9" class="st67" width="3.7" height="3.7"/>
	<rect x="91.5" y="79.9" class="st67" width="3.7" height="3.7"/>
	<rect x="101.8" y="79.9" class="st72" width="3.7" height="3.7"/>
	<rect x="108.1" y="79.9" class="st72" width="3.7" height="3.7"/>
	<rect x="156.3" y="79.9" class="st72" width="3.7" height="3.7"/>
	<rect x="176.8" y="79.9" class="st72" width="3.7" height="3.7"/>
	<rect x="184.6" y="79.9" class="st145" width="3.7" height="3.7"/>
	<rect x="198.6" y="79.9" class="st70" width="3.7" height="3.7"/>
	<g>
		<path class="st68" d="M92.6,59.2c0,1.1,0.9,1.9,1.9,1.9l0,0c1.1,0,1.9-0.9,1.9-1.9l0,0c0-1.1-0.9-1.9-1.9-1.9l0,0
			C93.5,57.3,92.6,58.2,92.6,59.2L92.6,59.2z"/>
		<circle cx="94.5" cy="59.2" r="0.4"/>
		<g>
			<circle class="st27" cx="94.5" cy="59.2" r="0.8"/>
		</g>
	</g>
	<rect x="104.5" y="57.4" class="st30" width="3.7" height="3.7"/>
	<rect x="134.6" y="57.4" class="st86" width="3.7" height="3.7"/>
	<rect x="147.9" y="57.4" class="st30" width="3.7" height="3.7"/>
	<rect x="167.7" y="57.4" class="st83" width="3.7" height="3.7"/>
	<rect x="188.3" y="57.4" class="st30" width="3.7" height="3.7"/>
	<rect x="202.8" y="57.4" class="st83" width="3.7" height="3.7"/>
	<rect x="78.7" y="39" class="st184" width="3.7" height="3.7"/>
	<rect x="110.2" y="39" class="st148" width="3.7" height="3.7"/>
	<rect x="117.3" y="39" class="st148" width="3.7" height="3.7"/>
	<rect x="197.3" y="39" class="st185" width="3.7" height="3.7"/>
	<rect x="154.5" y="17.8" class="st192" width="3.7" height="3.7"/>
</g>
<g id="DOTS">
	<path class="st199" d="M144.9,81.7c0,1.1,0.9,1.9,1.9,1.9l0,0c1.1,0,1.9-0.9,1.9-1.9l0,0c0-1.1-0.9-1.9-1.9-1.9l0,0
		C145.8,79.8,144.9,80.7,144.9,81.7L144.9,81.7z"/>
	<path class="st199" d="M133.1,189c0,1.1,0.9,1.9,1.9,1.9l0,0c1.1,0,1.9-0.9,1.9-1.9l0,0c0-1.1-0.9-1.9-1.9-1.9l0,0
		C134,187.1,133.1,187.9,133.1,189L133.1,189z"/>
	<path class="st199" d="M44.9,169.5c0,1.1,0.9,1.9,1.9,1.9l0,0c1.1,0,1.9-0.9,1.9-1.9l0,0c0-1.1-0.9-1.9-1.9-1.9l0,0
		C45.8,167.6,44.9,168.4,44.9,169.5L44.9,169.5z"/>
	<path class="st199" d="M50.3,148.7c0,1.1,0.9,1.9,1.9,1.9l0,0c1.1,0,1.9-0.9,1.9-1.9l0,0c0-1.1-0.9-1.9-1.9-1.9l0,0
		C51.1,146.8,50.3,147.6,50.3,148.7L50.3,148.7z"/>
	<path class="st199" d="M166.3,104.5c0,1.1,0.9,1.9,1.9,1.9l0,0c1.1,0,1.9-0.9,1.9-1.9l0,0c0-1.1-0.9-1.9-1.9-1.9l0,0
		C167.1,102.5,166.3,103.4,166.3,104.5L166.3,104.5z"/>
	<path class="st68" d="M111.8,59.2c0,1.1,0.9,1.9,1.9,1.9l0,0c1.1,0,1.9-0.9,1.9-1.9l0,0c0-1.1-0.9-1.9-1.9-1.9l0,0
		C112.7,57.3,111.8,58.2,111.8,59.2L111.8,59.2z"/>
	<path class="st68" d="M143.3,19.8c0,1.1,0.9,1.9,1.9,1.9l0,0c1.1,0,1.9-0.9,1.9-1.9l0,0c0-1.1-0.9-1.9-1.9-1.9l0,0
		C144.2,17.9,143.3,18.8,143.3,19.8L143.3,19.8z"/>
	<path class="st199" d="M68,126.5c0,1.1,0.9,1.9,1.9,1.9l0,0c1.1,0,1.9-0.9,1.9-1.9l0,0c0-1.1-0.9-1.9-1.9-1.9l0,0
		C68.9,124.6,68,125.5,68,126.5L68,126.5z"/>
	<g>
		<path class="st68" d="M18.8,189c0,1.1,0.9,1.9,1.9,1.9l0,0c1.1,0,1.9-0.9,1.9-1.9l0,0c0-1.1-0.9-1.9-1.9-1.9l0,0
			C19.7,187.1,18.8,187.9,18.8,189L18.8,189z"/>
		<circle cx="20.8" cy="189" r="0.4"/>
		<g>
			<circle class="st27" cx="20.8" cy="189" r="0.8"/>
		</g>
	</g>
	<g>
		<path class="st68" d="M125.5,81.7c0,1.1,0.9,1.9,1.9,1.9l0,0c1.1,0,1.9-0.9,1.9-1.9l0,0c0-1.1-0.9-1.9-1.9-1.9l0,0
			C126.4,79.8,125.5,80.7,125.5,81.7L125.5,81.7z"/>
		<circle cx="127.5" cy="81.7" r="0.4"/>
		<g>
			<circle class="st27" cx="127.5" cy="81.7" r="0.8"/>
		</g>
	</g>
	<g>
		<path class="st68" d="M81.4,40.9c0,1.1,0.9,1.9,1.9,1.9l0,0c1.1,0,1.9-0.9,1.9-1.9l0,0c0-1.1-0.9-1.9-1.9-1.9l0,0
			C82.2,38.9,81.4,39.8,81.4,40.9L81.4,40.9z"/>
		<circle cx="83.3" cy="40.9" r="0.4"/>
		<g>
			<circle class="st27" cx="83.3" cy="40.9" r="0.8"/>
		</g>
	</g>
	<g>
		<path class="st68" d="M110.2,19.7c0,1.1,0.9,1.9,1.9,1.9l0,0c1.1,0,1.9-0.9,1.9-1.9l0,0c0-1.1-0.9-1.9-1.9-1.9l0,0
			C111,17.8,110.2,18.6,110.2,19.7L110.2,19.7z"/>
		<circle cx="112.1" cy="19.7" r="0.4"/>
		<g>
			<circle class="st27" cx="112.1" cy="19.7" r="0.8"/>
		</g>
	</g>
</g>
<g id="_Months">
</g>
<g id="Products">
</g>
</svg>
